<svg viewBox="0 0 330 200" xmlns="http://www.w3.org/2000/svg"><g><g><g><g><g><line x1="61.953125" y1="177" x2="56.953125" y2="177" style="visibility: inherit;" fill="rgb(0, 0, 0)" stroke="rgb(204, 204, 204)" stroke-width="1px"></line><line x1="61.953125" y1="162.25" x2="56.953125" y2="162.25" style="visibility: inherit;" fill="rgb(0, 0, 0)" stroke="rgb(204, 204, 204)" stroke-width="1px"></line><line x1="61.953125" y1="147.5" x2="56.953125" y2="147.5" style="visibility: inherit;" fill="rgb(0, 0, 0)" stroke="rgb(204, 204, 204)" stroke-width="1px"></line><line x1="61.953125" y1="132.75" x2="56.953125" y2="132.75" style="visibility: inherit;" fill="rgb(0, 0, 0)" stroke="rgb(204, 204, 204)" stroke-width="1px"></line><line x1="61.953125" y1="118.00000000000001" x2="56.953125" y2="118.00000000000001" style="visibility: inherit;" fill="rgb(0, 0, 0)" stroke="rgb(204, 204, 204)" stroke-width="1px"></line><line x1="61.953125" y1="103.24999999999999" x2="56.953125" y2="103.24999999999999" style="visibility: inherit;" fill="rgb(0, 0, 0)" stroke="rgb(204, 204, 204)" stroke-width="1px"></line><line x1="61.953125" y1="88.5" x2="56.953125" y2="88.5" style="visibility: inherit;" fill="rgb(0, 0, 0)" stroke="rgb(204, 204, 204)" stroke-width="1px"></line><line x1="61.953125" y1="73.75" x2="56.953125" y2="73.75" style="visibility: inherit;" fill="rgb(0, 0, 0)" stroke="rgb(204, 204, 204)" stroke-width="1px"></line><line x1="61.953125" y1="59.00000000000001" x2="56.953125" y2="59.00000000000001" style="visibility: inherit;" fill="rgb(0, 0, 0)" stroke="rgb(204, 204, 204)" stroke-width="1px"></line><line x1="61.953125" y1="44.24999999999998" x2="56.953125" y2="44.24999999999998" style="visibility: inherit;" fill="rgb(0, 0, 0)" stroke="rgb(204, 204, 204)" stroke-width="1px"></line><line x1="61.953125" y1="29.500000000000032" x2="56.953125" y2="29.500000000000032" style="visibility: inherit;" fill="rgb(0, 0, 0)" stroke="rgb(204, 204, 204)" stroke-width="1px"></line><line x1="61.953125" y1="14.750000000000007" x2="56.953125" y2="14.750000000000007" style="visibility: inherit;" fill="rgb(0, 0, 0)" stroke="rgb(204, 204, 204)" stroke-width="1px"></line><line x1="61.953125" y1="0" x2="56.953125" y2="0" style="visibility: inherit;" fill="rgb(0, 0, 0)" stroke="rgb(204, 204, 204)" stroke-width="1px"></line></g><g transform="translate(51.953125, 0)"><text x="0" y="177" dx="0em" dy="0.3em" style="text-anchor: end; visibility: hidden; font-family: Roboto, sans-serif; font-size: 12px; font-weight: 200;" fill="rgb(33, 33, 33)" stroke="none" stroke-width="1px">-1e-3</text><text x="0" y="162.25" dx="0em" dy="0.3em" style="text-anchor: end; visibility: inherit; font-family: Roboto, sans-serif; font-size: 12px; font-weight: 200;" fill="rgb(33, 33, 33)" stroke="none" stroke-width="1px">0</text><text x="0" y="147.5" dx="0em" dy="0.3em" style="text-anchor: end; visibility: hidden; font-family: Roboto, sans-serif; font-size: 12px; font-weight: 200;" fill="rgb(33, 33, 33)" stroke="none" stroke-width="1px">1e-3</text><text x="0" y="132.75" dx="0em" dy="0.3em" style="text-anchor: end; visibility: inherit; font-family: Roboto, sans-serif; font-size: 12px; font-weight: 200;" fill="rgb(33, 33, 33)" stroke="none" stroke-width="1px">2e-3</text><text x="0" y="118.00000000000001" dx="0em" dy="0.3em" style="text-anchor: end; visibility: hidden; font-family: Roboto, sans-serif; font-size: 12px; font-weight: 200;" fill="rgb(33, 33, 33)" stroke="none" stroke-width="1px">3e-3</text><text x="0" y="103.24999999999999" dx="0em" dy="0.3em" style="text-anchor: end; visibility: inherit; font-family: Roboto, sans-serif; font-size: 12px; font-weight: 200;" fill="rgb(33, 33, 33)" stroke="none" stroke-width="1px">4e-3</text><text x="0" y="88.5" dx="0em" dy="0.3em" style="text-anchor: end; visibility: hidden; font-family: Roboto, sans-serif; font-size: 12px; font-weight: 200;" fill="rgb(33, 33, 33)" stroke="none" stroke-width="1px">5e-3</text><text x="0" y="73.75" dx="0em" dy="0.3em" style="text-anchor: end; visibility: inherit; font-family: Roboto, sans-serif; font-size: 12px; font-weight: 200;" fill="rgb(33, 33, 33)" stroke="none" stroke-width="1px">6e-3</text><text x="0" y="59.00000000000001" dx="0em" dy="0.3em" style="text-anchor: end; visibility: hidden; font-family: Roboto, sans-serif; font-size: 12px; font-weight: 200;" fill="rgb(33, 33, 33)" stroke="none" stroke-width="1px">7e-3</text><text x="0" y="44.24999999999998" dx="0em" dy="0.3em" style="text-anchor: end; visibility: inherit; font-family: Roboto, sans-serif; font-size: 12px; font-weight: 200;" fill="rgb(33, 33, 33)" stroke="none" stroke-width="1px">8e-3</text><text x="0" y="29.500000000000032" dx="0em" dy="0.3em" style="text-anchor: end; visibility: hidden; font-family: Roboto, sans-serif; font-size: 12px; font-weight: 200;" fill="rgb(33, 33, 33)" stroke="none" stroke-width="1px">9e-3</text><text x="0" y="14.750000000000007" dx="0em" dy="0.3em" style="text-anchor: end; visibility: inherit; font-family: Roboto, sans-serif; font-size: 12px; font-weight: 200;" fill="rgb(33, 33, 33)" stroke="none" stroke-width="1px">0.01</text><text x="0" y="0" dx="0em" dy="0.3em" style="text-anchor: end; visibility: hidden; font-family: Roboto, sans-serif; font-size: 12px; font-weight: 200;" fill="rgb(33, 33, 33)" stroke="none" stroke-width="1px">0.011</text></g><line x1="61.953125" y1="0" x2="61.953125" y2="177" fill="rgb(0, 0, 0)" stroke="rgb(204, 204, 204)" stroke-width="1px"></line></g></g><g transform="translate(61, 0)" clip-path="url(#clip_0)"><clipPath id="clip_0"><rect width="268" height="177"></rect></clipPath><g><g><g><line x1="0" y1="0" x2="0" y2="177" fill="rgb(0, 0, 0)" stroke="rgb(66, 66, 66)" stroke-width="1px" opacity="0.25"></line><line x1="22.337239583333332" y1="0" x2="22.337239583333332" y2="177" fill="rgb(0, 0, 0)" stroke="rgb(66, 66, 66)" stroke-width="1px" opacity="0.25"></line><line x1="44.674479166666664" y1="0" x2="44.674479166666664" y2="177" fill="rgb(0, 0, 0)" stroke="rgb(66, 66, 66)" stroke-width="1px" opacity="0.25"></line><line x1="67.01171875" y1="0" x2="67.01171875" y2="177" fill="rgb(0, 0, 0)" stroke="rgb(66, 66, 66)" stroke-width="1px" opacity="0.25"></line><line x1="89.34895833333333" y1="0" x2="89.34895833333333" y2="177" fill="rgb(0, 0, 0)" stroke="rgb(66, 66, 66)" stroke-width="1px" opacity="0.25"></line><line x1="111.68619791666667" y1="0" x2="111.68619791666667" y2="177" fill="rgb(0, 0, 0)" stroke="rgb(66, 66, 66)" stroke-width="1px" opacity="0.25"></line><line x1="134.0234375" y1="0" x2="134.0234375" y2="177" fill="rgb(0, 0, 0)" stroke="rgb(66, 66, 66)" stroke-width="1px" opacity="0.25"></line><line x1="156.36067708333334" y1="0" x2="156.36067708333334" y2="177" fill="rgb(0, 0, 0)" stroke="rgb(66, 66, 66)" stroke-width="1px" opacity="0.25"></line><line x1="178.69791666666666" y1="0" x2="178.69791666666666" y2="177" fill="rgb(0, 0, 0)" stroke="rgb(66, 66, 66)" stroke-width="1px" opacity="0.25"></line><line x1="201.03515625" y1="0" x2="201.03515625" y2="177" fill="rgb(0, 0, 0)" stroke="rgb(66, 66, 66)" stroke-width="1px" opacity="0.25"></line><line x1="223.37239583333334" y1="0" x2="223.37239583333334" y2="177" fill="rgb(0, 0, 0)" stroke="rgb(66, 66, 66)" stroke-width="1px" opacity="0.25"></line><line x1="245.70963541666666" y1="0" x2="245.70963541666666" y2="177" fill="rgb(0, 0, 0)" stroke="rgb(66, 66, 66)" stroke-width="1px" opacity="0.25"></line><line x1="268.046875" y1="0" x2="268.046875" y2="177" fill="rgb(0, 0, 0)" stroke="rgb(66, 66, 66)" stroke-width="1px" opacity="0.25"></line></g><g><line x1="0" y1="177" x2="268.046875" y2="177" fill="rgb(0, 0, 0)" stroke="rgb(66, 66, 66)" stroke-width="1px" opacity="0.25"></line><line x1="0" y1="162.25" x2="268.046875" y2="162.25" fill="rgb(0, 0, 0)" stroke="rgb(66, 66, 66)" stroke-width="1px" opacity="0.25"></line><line x1="0" y1="147.5" x2="268.046875" y2="147.5" fill="rgb(0, 0, 0)" stroke="rgb(66, 66, 66)" stroke-width="1px" opacity="0.25"></line><line x1="0" y1="132.75" x2="268.046875" y2="132.75" fill="rgb(0, 0, 0)" stroke="rgb(66, 66, 66)" stroke-width="1px" opacity="0.25"></line><line x1="0" y1="118.00000000000001" x2="268.046875" y2="118.00000000000001" fill="rgb(0, 0, 0)" stroke="rgb(66, 66, 66)" stroke-width="1px" opacity="0.25"></line><line x1="0" y1="103.24999999999999" x2="268.046875" y2="103.24999999999999" fill="rgb(0, 0, 0)" stroke="rgb(66, 66, 66)" stroke-width="1px" opacity="0.25"></line><line x1="0" y1="88.5" x2="268.046875" y2="88.5" fill="rgb(0, 0, 0)" stroke="rgb(66, 66, 66)" stroke-width="1px" opacity="0.25"></line><line x1="0" y1="73.75" x2="268.046875" y2="73.75" fill="rgb(0, 0, 0)" stroke="rgb(66, 66, 66)" stroke-width="1px" opacity="0.25"></line><line x1="0" y1="59.00000000000001" x2="268.046875" y2="59.00000000000001" fill="rgb(0, 0, 0)" stroke="rgb(66, 66, 66)" stroke-width="1px" opacity="0.25"></line><line x1="0" y1="44.24999999999998" x2="268.046875" y2="44.24999999999998" fill="rgb(0, 0, 0)" stroke="rgb(66, 66, 66)" stroke-width="1px" opacity="0.25"></line><line x1="0" y1="29.500000000000032" x2="268.046875" y2="29.500000000000032" fill="rgb(0, 0, 0)" stroke="rgb(66, 66, 66)" stroke-width="1px" opacity="0.25"></line><line x1="0" y1="14.750000000000007" x2="268.046875" y2="14.750000000000007" fill="rgb(0, 0, 0)" stroke="rgb(66, 66, 66)" stroke-width="1px" opacity="0.25"></line><line x1="0" y1="0" x2="268.046875" y2="0" fill="rgb(0, 0, 0)" stroke="rgb(66, 66, 66)" stroke-width="1px" opacity="0.25"></line></g></g></g><g><g><line x1="0" y1="162.25" x2="268.046875" y2="162.25" fill="rgb(0, 0, 0)" stroke="rgb(153, 153, 153)" stroke-width="1.5px"></line></g></g><g><g><line x1="22.337239583333332" y1="0" x2="22.337239583333332" y2="177" fill="rgb(0, 0, 0)" stroke="rgb(153, 153, 153)" stroke-width="1.5px"></line></g></g><g><g><g><g><g><path stroke="rgb(255, 112, 67)" stroke-width="2px" d="M23.4541015625,159.30000007452327L24.570963541666664,157.78717959991982L25.687825520833336,156.24916762386047L26.8046875,154.68599707882396L27.921549479166668,153.09771408887667L29.038411458333336,151.48437857555052L30.1552734375,149.8460623847763L31.272135416666668,148.18285064684017L32.388997395833336,146.4948411454254L33.505859375,144.78214392872775L34.62272135416667,143.04488199006104L35.739583333333336,141.28318986949816L36.8564453125,139.49721358342006L37.973307291666664,137.68711146515997L39.090169270833336,135.85305238544188L40.20703125,133.99521686906058L41.32389322916667,132.11379542927034L42.44075520833333,130.2089895239279L43.5576171875,128.28100997030046L44.674479166666664,126.33007750856652L45.791341145833336,124.35642262758529L46.908203125,122.360283567381L48.025065104166664,120.34190759784516L49.14192708333333,118.30155052109377L50.2587890625,116.23947476324717L51.37565104166667,114.1559505053934L52.492513020833336,112.05125472832695L53.609375,109.92567123841555L54.726236979166664,107.77948885245188L55.843098958333336,105.61300239632307L56.9599609375,103.42651178512972L58.07682291666667,101.2203220208806L59.19368489583333,98.99474145717265L60.310546875,96.75008271868427L61.427408854166664,94.48666223321182L62.544270833333336,92.20479855305624L63.6611328125,89.90481324102628L64.77799479166667,87.587030025161L65.89485677083333,85.25177480102526L67.01171875,82.89937363360798L68.12858072916666,80.53015522334253L69.24544270833334,78.14444806779474L70.3623046875,75.7425801741088L71.47916666666667,73.32488107448124L72.59602864583333,70.891679074286L73.712890625,68.44330099155299L74.82975260416667,65.98007416436742L75.94661458333333,63.50232377944946L77.0634765625,61.010372643097675L78.18033854166667,58.50454319050985L79.29720052083333,56.14429200836729L80.4140625,53.920145773030676L81.53092447916666,51.82335518154525L82.64778645833334,49.84582791605467L83.7646484375,47.98007177207352L84.88151041666666,46.21913955596758L85.99837239583334,44.5565825632316L87.115234375,42.98640668655465L88.23209635416667,41.503038673113956L89.34895833333333,40.10128651188243L90.4658203125,38.77631212765144L91.58268229166667,37.52360107166267L92.69954427083333,36.33893714084235L93.81640625,35.21838077315403L94.93326822916667,34.15824731507557L96.05013020833333,33.15508792520917L97.1669921875,32.205671451077556L98.28385416666666,31.306970692964818L99.40071614583334,30.456145652403368L100.517578125,29.650530960413555L101.63444010416666,28.887622954303314L102.75130208333334,28.165070610159734L103.8681640625,27.48066232899643L104.98502604166667,26.83231932862977L106.10188802083333,26.218083998268717L107.21875,25.6361139996074L108.33561197916667,25.08467405771112L109.45247395833333,24.562129753256038L110.5693359375,24.066938991318054L111.68619791666667,23.59764754786184L112.80305989583333,23.1528849622999L113.919921875,22.731357259663504L115.03678385416666,22.33184224143221L116.15364583333334,21.953187192986825L117.2705078125,21.594301909586648L118.38736979166666,21.25415771893528L119.50423177083334,20.93178174379131L120.62109375,20.62625360187442L121.73795572916667,20.336703711414145L122.85481770833333,20.062309642907962L123.9716796875,19.802293391325815L125.08854166666667,19.555918129531864L126.20540364583333,19.322487930693413L127.322265625,19.10134406728095L128.43912760416669,18.89186083403444L129.55598958333334,18.693447835850524L130.6728515625,18.50554456558742L131.78971354166666,18.327620811498527L132.90657552083334,18.15917429281853L134.0234375,17.99972912182006L135.14029947916666,17.84883435697462L136.25716145833331,17.706062641214775L137.3740234375,17.57100891974708L138.49088541666669,17.44328854209485L139.60774739583334,17.32253753932685L140.724609375,17.208411514019023L141.84147135416666,17.10058252423152L142.95833333333334,16.998740270042894L144.0751953125,16.9025911558791L145.19205729166666,16.811854648113044L146.30891927083331,16.726266714414574L147.42578125,16.645575511485564L148.54264322916669,16.56954349645461L149.65950520833334,16.49794392287977L150.7763671875,16.43056302762885L151.89322916666666,16.367195911090352L153.01009114583331,16.30765020291701L154.126953125,16.25174265886753L155.24381510416669,16.1992993740081L156.36067708333334,16.15015461000823L157.4775390625,16.10415243617724L158.59440104166666,16.06114278334803L159.71126302083334,16.020985955770016L160.828125,15.983546595293479L161.94498697916666,15.948698271221408L163.06184895833331,15.916319584053646L164.1787109375,15.886296657531513L165.29557291666669,15.858519315237508L166.41243489583334,15.83288570388213L167.529296875,15.809297055923942L168.64615885416666,15.78766028112531L169.76302083333331,15.767886302146044L170.8798828125,15.749891224754423L171.99674479166669,15.733595386809494L173.11360677083334,15.718922455439909L174.23046875,15.705801319897413L175.34733072916666,15.694163764731119L176.46419270833334,15.683944322484816L177.5810546875,15.67508150880107L178.69791666666666,15.667516933538522L179.81477864583331,15.66119514407617L180.931640625,15.656062789324691L182.04850260416669,15.65206988774963L183.16536458333334,15.649168970037781L184.2822265625,15.647314952174039L185.39908854166666,15.646464327758506L186.51595052083331,15.646577149800482L187.6328125,15.647614102806246L188.74967447916669,15.64953853205859L189.86653645833334,15.652314935378381L190.9833984375,15.655910966314451L192.10026041666666,15.660294527034933L193.21712239583334,15.665435129710037L194.333984375,15.67130518969973L195.45084635416666,15.677877131425882L196.56770833333331,15.685125448869963L197.6845703125,15.693025914585462L198.80143229166669,15.701554828372606L199.91829427083334,15.710691051804892L201.03515625,15.720413131611107L202.15201822916666,15.730701376353924L203.26888020833331,15.741536394027028L204.3857421875,15.752900450947488L205.50260416666669,15.76477670161222L206.61946614583334,15.777149144127094L207.736328125,15.790001890893192L208.85319010416666,15.803320536757523L209.97005208333334,15.817090710788161L211.0869140625,15.831300135393867L212.20377604166666,15.845935086687932L213.32063802083331,15.860984588546337L214.4375,15.87643684030039L215.55436197916669,15.892281318788585L216.67122395833334,15.908508027451825L217.7880859375,15.92510678301173L218.90494791666666,15.942068598644777L220.02180989583331,15.95938493716469L221.138671875,15.977047001576615L222.25553385416669,15.995047121893474L223.37239583333334,16.013377324900038L224.4892578125,16.03203072313176L225.60611979166666,16.05100077363424L226.72298177083334,16.070280573807924L227.83984375,16.08986425319562L228.95670572916666,16.10974623494081L230.07356770833331,16.12992122109278L231.1904296875,16.150382804853066L232.30729166666669,16.17112627360947L233.42415364583334,16.19214783729896L234.541015625,16.21344183469854L235.65787760416666,16.23500426144928L236.77473958333331,16.256831313411915L237.8916015625,16.278918689764996L239.00846354166669,16.301262991609004L240.12532552083334,16.32386098997533L241.2421875,16.346708930445764L242.35904947916666,16.36980324630821L243.47591145833334,16.3931412360445L244.5927734375,16.41672033318597L245.70963541666666,16.440537412684424" style="fill: none;" fill="none"></path></g></g></g></g><g opacity="0.2"><g><g><g><path stroke="rgb(255, 112, 67)" stroke-width="2px" d="M23.4541015625,159.30000007452327L24.570963541666664,156.35000014904654L25.687825520833336,153.40000043821055L26.8046875,150.45000029809307L27.921549479166668,147.4999992994126L29.038411458333336,144.5500008764211L30.1552734375,141.60000073630363L31.272135416666668,138.65000059618615L32.388997395833336,135.70000045606866L33.505859375,132.7499985988252L34.62272135416667,129.8000001758337L35.739583333333336,126.85000175284222L36.8564453125,123.89999989559875L37.973307291666664,120.95000147260727L39.090169270833336,117.99999961536376L40.20703125,115.05000119237228L41.32389322916667,112.09999933512881L42.44075520833333,109.15000091213733L43.5576171875,106.19999905489387L44.674479166666664,103.24999719765036L45.791341145833336,100.3000022089109L46.908203125,97.35000035166739L48.025065104166664,94.39999849442393L49.14192708333333,91.45000350568442L50.2587890625,88.50000164844096L51.37565104166667,85.54999979119748L52.492513020833336,82.599997933954L53.609375,79.65000294521451L54.726236979166664,76.70000108797103L55.843098958333336,73.74999923072755L56.9599609375,70.79999737348408L58.07682291666667,67.85000238474458L59.19368489583333,64.9000005275011L60.310546875,61.949998670257635L61.427408854166664,59.00000368151813L62.544270833333336,56.050001824274645L63.6611328125,53.09999996703116L64.77799479166667,50.149998109787695L65.89485677083333,47.20000312104819L67.01171875,44.249994395300725L68.12858072916666,41.29999940656124L69.24544270833334,38.35000441782176L70.3623046875,35.39999569207429L71.47916666666667,32.45000070333479L72.59602864583333,29.500005714595304L73.712890625,26.549996988847838L74.82975260416667,23.600002000108354L75.94661458333333,20.65000701136885L77.0634765625,17.699998285621405L78.18033854166667,14.750003296881902L79.29720052083333,14.750099455937736L80.4140625,14.750387933105223L81.53092447916666,14.750868728384363L82.64778645833334,14.751528104767191L83.7646484375,14.752393536269652L84.88151041666666,14.753451285883784L85.99837239583334,14.75470135360955L87.115234375,14.75611626543104L88.23209635416667,14.757750969380128L89.34895833333333,14.759564254432904L90.4658203125,14.761583594605314L91.58268229166667,14.763795252889395L92.69954427083333,14.766185492277145L93.81640625,14.768768049776547L94.93326822916667,14.771542925387621L96.05013020833333,14.774510119110346L97.1669921875,14.77765589393674L98.28385416666666,14.781007723882787L99.40071614583334,14.784551871940486L100.517578125,14.788288338109838L101.63444010416666,14.792203385382878L102.75130208333334,14.796324487775552L103.8681640625,14.800624171271913L104.98502604166667,14.80512990988791L106.10188802083333,14.809814229607575L107.21875,14.814690867438912L108.33561197916667,14.8197598233819L109.45247395833333,14.825034834444523L110.5693359375,14.830488426610815L111.68619791666667,14.836120599880815L112.80305989583333,14.841958828270428L113.919921875,14.847989374771714L115.03678385416666,14.854198502376669L116.15364583333334,14.860613685101258L117.2705078125,14.867207448929536L118.38736979166666,14.874007267877447L119.50423177083334,14.880999404937029L120.62109375,14.88817012310028L121.73795572916667,14.895533159375184L122.85481770833333,14.903088513761759L123.9716796875,14.910836186259985L125.08854166666667,14.918762439861881L126.20540364583333,14.926894748583429L127.322265625,14.935233112424612L128.43912760416669,14.943736320361483L129.55598958333334,14.952445583418005L130.6728515625,14.961333427578198L131.78971354166666,14.970413589850061L132.90657552083334,14.979686070233576L134.0234375,14.989150868728744L135.14029947916666,14.998807985335581L136.25716145833331,15.008657420054071L137.3740234375,15.018699172884213L138.49088541666669,15.028919506818044L139.60774739583334,15.039332158863544L140.724609375,15.04995086602866L141.84147135416666,15.060748154297464L142.95833333333334,15.071737760677921L144.0751953125,15.08293342217803L145.19205729166666,15.094293927773826L146.30891927083331,15.105860488489258L147.42578125,15.117605630308377L148.54264322916669,15.12955682724713L149.65950520833334,15.141686605289571L150.7763671875,15.154022438451648L151.89322916666666,15.166523115709412L153.01009114583331,15.179229848086827L154.126953125,15.192128898575895L155.24381510416669,15.205220267176616L156.36067708333334,15.218490216881024L157.4775390625,15.231966221705067L158.59440104166666,15.245607070624816L159.71126302083334,15.25946771167218L160.828125,15.273493196815252L161.94498697916666,15.287724737077939L163.06184895833331,15.302134858444333L164.1787109375,15.316751034930341L165.29557291666669,15.331532055512058L166.41243489583334,15.34653286822139L167.529296875,15.361712262034409L168.64615885416666,15.377083973959081L169.76302083333331,15.392634266987443L170.8798828125,15.408376878127456L171.99674479166669,15.42431180737912L173.11360677083334,15.440425317734473L174.23046875,15.45674488320946L175.34733072916666,15.4732567667961L176.46419270833334,15.489947231486427L177.5810546875,15.506830014288425L178.69791666666666,15.523905115202057L179.81477864583331,15.541172534227359L180.931640625,15.558618534356349L182.04850260416669,15.576256852596991L183.16536458333334,15.594087488949286L184.2822265625,15.61211044341325L185.39908854166666,15.630311978980886L186.51595052083331,15.648719569668174L187.6328125,15.667305741459131L188.74967447916669,15.68608423136174L189.86653645833334,15.705041302368038L190.9833984375,15.72420442849397L192.10026041666666,15.74354613572359L193.21712239583334,15.76306642405688L194.333984375,15.782792767509806L195.45084635416666,15.802697692066419L196.56770833333331,15.822794934734702L197.6845703125,15.843084495514619L198.80143229166669,15.863552637398243L199.91829427083334,15.884226834401481L201.03515625,15.905079612508409L202.15201822916666,15.92612470872699L203.26888020833331,15.947348386049258L204.3857421875,15.968764381483197L205.50260416666669,15.99037269502877L206.61946614583334,16.01217332668601L207.736328125,16.034152539446943L208.85319010416666,16.056324070319526L209.97005208333334,16.0786741822958L211.0869140625,16.101230349391685L212.20377604166666,16.1239513605833L213.32063802083331,16.146878426894546L214.4375,16.16998407430946L215.55436197916669,16.19328203983605L216.67122395833334,16.216772323474288L217.7880859375,16.240441188216195L218.90494791666666,16.264302371069775L220.02180989583331,16.288355872035027L221.138671875,16.312587954103947L222.25553385416669,16.337012354284518L223.37239583333334,16.36161533556878L224.4892578125,16.38641063496469L225.60611979166666,16.411398252472274L226.72298177083334,16.436564451083527L227.83984375,16.46192296780645L228.95670572916666,16.487473802641027L230.07356770833331,16.513216955587254L231.1904296875,16.53912495262921L232.30729166666669,16.565225267782793L233.42415364583334,16.591531638056033L234.541015625,16.61800285242498L235.65787760416666,16.644666384905577L236.77473958333331,16.671522235497825L237.8916015625,16.698556667193763L239.00846354166669,16.725783417001352L240.12532552083334,16.753202484920614L241.2421875,16.780800133943544L242.35904947916666,16.808576364070163L243.47591145833334,16.836544912308455L244.5927734375,16.864705778658376L245.70963541666666,16.893045226112008" style="fill: none;" fill="none"></path></g></g></g></g></g></g><g transform="translate(61, 177)" clip-path="url(#clip_1)"><clipPath id="clip_1"><rect width="268" height="23"></rect></clipPath><g><g><line x1="0" y1="0" x2="0" y2="5" style="visibility: inherit;" fill="rgb(0, 0, 0)" stroke="rgb(204, 204, 204)" stroke-width="1px"></line><line x1="22.337239583333332" y1="0" x2="22.337239583333332" y2="5" style="visibility: inherit;" fill="rgb(0, 0, 0)" stroke="rgb(204, 204, 204)" stroke-width="1px"></line><line x1="44.674479166666664" y1="0" x2="44.674479166666664" y2="5" style="visibility: inherit;" fill="rgb(0, 0, 0)" stroke="rgb(204, 204, 204)" stroke-width="1px"></line><line x1="67.01171875" y1="0" x2="67.01171875" y2="5" style="visibility: inherit;" fill="rgb(0, 0, 0)" stroke="rgb(204, 204, 204)" stroke-width="1px"></line><line x1="89.34895833333333" y1="0" x2="89.34895833333333" y2="5" style="visibility: inherit;" fill="rgb(0, 0, 0)" stroke="rgb(204, 204, 204)" stroke-width="1px"></line><line x1="111.68619791666667" y1="0" x2="111.68619791666667" y2="5" style="visibility: inherit;" fill="rgb(0, 0, 0)" stroke="rgb(204, 204, 204)" stroke-width="1px"></line><line x1="134.0234375" y1="0" x2="134.0234375" y2="5" style="visibility: inherit;" fill="rgb(0, 0, 0)" stroke="rgb(204, 204, 204)" stroke-width="1px"></line><line x1="156.36067708333334" y1="0" x2="156.36067708333334" y2="5" style="visibility: inherit;" fill="rgb(0, 0, 0)" stroke="rgb(204, 204, 204)" stroke-width="1px"></line><line x1="178.69791666666666" y1="0" x2="178.69791666666666" y2="5" style="visibility: inherit;" fill="rgb(0, 0, 0)" stroke="rgb(204, 204, 204)" stroke-width="1px"></line><line x1="201.03515625" y1="0" x2="201.03515625" y2="5" style="visibility: inherit;" fill="rgb(0, 0, 0)" stroke="rgb(204, 204, 204)" stroke-width="1px"></line><line x1="223.37239583333334" y1="0" x2="223.37239583333334" y2="5" style="visibility: inherit;" fill="rgb(0, 0, 0)" stroke="rgb(204, 204, 204)" stroke-width="1px"></line><line x1="245.70963541666666" y1="0" x2="245.70963541666666" y2="5" style="visibility: inherit;" fill="rgb(0, 0, 0)" stroke="rgb(204, 204, 204)" stroke-width="1px"></line><line x1="268.046875" y1="0" x2="268.046875" y2="5" style="visibility: inherit;" fill="rgb(0, 0, 0)" stroke="rgb(204, 204, 204)" stroke-width="1px"></line></g><g transform="translate(0, 8)"><text x="0" y="0" dx="0em" dy="0.95em" style="text-anchor: middle; visibility: hidden; font-family: Roboto, sans-serif; font-size: 12px; font-weight: 200;" fill="rgb(33, 33, 33)" stroke="none" stroke-width="1px">-2k</text><text x="22.337239583333332" y="0" dx="0em" dy="0.95em" style="text-anchor: middle; visibility: inherit; font-family: Roboto, sans-serif; font-size: 12px; font-weight: 200;" fill="rgb(33, 33, 33)" stroke="none" stroke-width="1px">0</text><text x="44.674479166666664" y="0" dx="0em" dy="0.95em" style="text-anchor: middle; visibility: hidden; font-family: Roboto, sans-serif; font-size: 12px; font-weight: 200;" fill="rgb(33, 33, 33)" stroke="none" stroke-width="1px">2k</text><text x="67.01171875" y="0" dx="0em" dy="0.95em" style="text-anchor: middle; visibility: inherit; font-family: Roboto, sans-serif; font-size: 12px; font-weight: 200;" fill="rgb(33, 33, 33)" stroke="none" stroke-width="1px">4k</text><text x="89.34895833333333" y="0" dx="0em" dy="0.95em" style="text-anchor: middle; visibility: hidden; font-family: Roboto, sans-serif; font-size: 12px; font-weight: 200;" fill="rgb(33, 33, 33)" stroke="none" stroke-width="1px">6k</text><text x="111.68619791666667" y="0" dx="0em" dy="0.95em" style="text-anchor: middle; visibility: inherit; font-family: Roboto, sans-serif; font-size: 12px; font-weight: 200;" fill="rgb(33, 33, 33)" stroke="none" stroke-width="1px">8k</text><text x="134.0234375" y="0" dx="0em" dy="0.95em" style="text-anchor: middle; visibility: hidden; font-family: Roboto, sans-serif; font-size: 12px; font-weight: 200;" fill="rgb(33, 33, 33)" stroke="none" stroke-width="1px">10k</text><text x="156.36067708333334" y="0" dx="0em" dy="0.95em" style="text-anchor: middle; visibility: inherit; font-family: Roboto, sans-serif; font-size: 12px; font-weight: 200;" fill="rgb(33, 33, 33)" stroke="none" stroke-width="1px">12k</text><text x="178.69791666666666" y="0" dx="0em" dy="0.95em" style="text-anchor: middle; visibility: hidden; font-family: Roboto, sans-serif; font-size: 12px; font-weight: 200;" fill="rgb(33, 33, 33)" stroke="none" stroke-width="1px">14k</text><text x="201.03515625" y="0" dx="0em" dy="0.95em" style="text-anchor: middle; visibility: inherit; font-family: Roboto, sans-serif; font-size: 12px; font-weight: 200;" fill="rgb(33, 33, 33)" stroke="none" stroke-width="1px">16k</text><text x="223.37239583333334" y="0" dx="0em" dy="0.95em" style="text-anchor: middle; visibility: hidden; font-family: Roboto, sans-serif; font-size: 12px; font-weight: 200;" fill="rgb(33, 33, 33)" stroke="none" stroke-width="1px">18k</text><text x="245.70963541666666" y="0" dx="0em" dy="0.95em" style="text-anchor: middle; visibility: inherit; font-family: Roboto, sans-serif; font-size: 12px; font-weight: 200;" fill="rgb(33, 33, 33)" stroke="none" stroke-width="1px">20k</text><text x="268.046875" y="0" dx="0em" dy="0.95em" style="text-anchor: middle; visibility: hidden; font-family: Roboto, sans-serif; font-size: 12px; font-weight: 200;" fill="rgb(33, 33, 33)" stroke="none" stroke-width="1px">22k</text></g><line x1="0" y1="0" x2="268.046875" y2="0" fill="rgb(0, 0, 0)" stroke="rgb(204, 204, 204)" stroke-width="1px"></line></g></g></g></g></svg>