<svg viewBox="0 0 330 200" xmlns="http://www.w3.org/2000/svg"><g><g><g><g><g><line x1="51.5625" y1="177" x2="46.5625" y2="177" style="visibility: inherit;" fill="rgb(0, 0, 0)" stroke="rgb(204, 204, 204)" stroke-width="1px"></line><line x1="51.5625" y1="162.25" x2="46.5625" y2="162.25" style="visibility: inherit;" fill="rgb(0, 0, 0)" stroke="rgb(204, 204, 204)" stroke-width="1px"></line><line x1="51.5625" y1="147.5" x2="46.5625" y2="147.5" style="visibility: inherit;" fill="rgb(0, 0, 0)" stroke="rgb(204, 204, 204)" stroke-width="1px"></line><line x1="51.5625" y1="132.75" x2="46.5625" y2="132.75" style="visibility: inherit;" fill="rgb(0, 0, 0)" stroke="rgb(204, 204, 204)" stroke-width="1px"></line><line x1="51.5625" y1="118" x2="46.5625" y2="118" style="visibility: inherit;" fill="rgb(0, 0, 0)" stroke="rgb(204, 204, 204)" stroke-width="1px"></line><line x1="51.5625" y1="103.24999999999999" x2="46.5625" y2="103.24999999999999" style="visibility: inherit;" fill="rgb(0, 0, 0)" stroke="rgb(204, 204, 204)" stroke-width="1px"></line><line x1="51.5625" y1="88.5" x2="46.5625" y2="88.5" style="visibility: inherit;" fill="rgb(0, 0, 0)" stroke="rgb(204, 204, 204)" stroke-width="1px"></line><line x1="51.5625" y1="73.75" x2="46.5625" y2="73.75" style="visibility: inherit;" fill="rgb(0, 0, 0)" stroke="rgb(204, 204, 204)" stroke-width="1px"></line><line x1="51.5625" y1="58.999999999999986" x2="46.5625" y2="58.999999999999986" style="visibility: inherit;" fill="rgb(0, 0, 0)" stroke="rgb(204, 204, 204)" stroke-width="1px"></line><line x1="51.5625" y1="44.25" x2="46.5625" y2="44.25" style="visibility: inherit;" fill="rgb(0, 0, 0)" stroke="rgb(204, 204, 204)" stroke-width="1px"></line><line x1="51.5625" y1="29.499999999999993" x2="46.5625" y2="29.499999999999993" style="visibility: inherit;" fill="rgb(0, 0, 0)" stroke="rgb(204, 204, 204)" stroke-width="1px"></line><line x1="51.5625" y1="14.749999999999988" x2="46.5625" y2="14.749999999999988" style="visibility: inherit;" fill="rgb(0, 0, 0)" stroke="rgb(204, 204, 204)" stroke-width="1px"></line><line x1="51.5625" y1="0" x2="46.5625" y2="0" style="visibility: inherit;" fill="rgb(0, 0, 0)" stroke="rgb(204, 204, 204)" stroke-width="1px"></line></g><g transform="translate(41.5625, 0)"><text x="0" y="177" dx="0em" dy="0.3em" style="text-anchor: end; visibility: hidden; font-family: Roboto, sans-serif; font-size: 12px; font-weight: 200;" fill="rgb(33, 33, 33)" stroke="none" stroke-width="1px">0</text><text x="0" y="162.25" dx="0em" dy="0.3em" style="text-anchor: end; visibility: inherit; font-family: Roboto, sans-serif; font-size: 12px; font-weight: 200;" fill="rgb(33, 33, 33)" stroke="none" stroke-width="1px">0.05</text><text x="0" y="147.5" dx="0em" dy="0.3em" style="text-anchor: end; visibility: hidden; font-family: Roboto, sans-serif; font-size: 12px; font-weight: 200;" fill="rgb(33, 33, 33)" stroke="none" stroke-width="1px">0.1</text><text x="0" y="132.75" dx="0em" dy="0.3em" style="text-anchor: end; visibility: inherit; font-family: Roboto, sans-serif; font-size: 12px; font-weight: 200;" fill="rgb(33, 33, 33)" stroke="none" stroke-width="1px">0.15</text><text x="0" y="118" dx="0em" dy="0.3em" style="text-anchor: end; visibility: hidden; font-family: Roboto, sans-serif; font-size: 12px; font-weight: 200;" fill="rgb(33, 33, 33)" stroke="none" stroke-width="1px">0.2</text><text x="0" y="103.24999999999999" dx="0em" dy="0.3em" style="text-anchor: end; visibility: inherit; font-family: Roboto, sans-serif; font-size: 12px; font-weight: 200;" fill="rgb(33, 33, 33)" stroke="none" stroke-width="1px">0.25</text><text x="0" y="88.5" dx="0em" dy="0.3em" style="text-anchor: end; visibility: hidden; font-family: Roboto, sans-serif; font-size: 12px; font-weight: 200;" fill="rgb(33, 33, 33)" stroke="none" stroke-width="1px">0.3</text><text x="0" y="73.75" dx="0em" dy="0.3em" style="text-anchor: end; visibility: inherit; font-family: Roboto, sans-serif; font-size: 12px; font-weight: 200;" fill="rgb(33, 33, 33)" stroke="none" stroke-width="1px">0.35</text><text x="0" y="58.999999999999986" dx="0em" dy="0.3em" style="text-anchor: end; visibility: hidden; font-family: Roboto, sans-serif; font-size: 12px; font-weight: 200;" fill="rgb(33, 33, 33)" stroke="none" stroke-width="1px">0.4</text><text x="0" y="44.25" dx="0em" dy="0.3em" style="text-anchor: end; visibility: inherit; font-family: Roboto, sans-serif; font-size: 12px; font-weight: 200;" fill="rgb(33, 33, 33)" stroke="none" stroke-width="1px">0.45</text><text x="0" y="29.499999999999993" dx="0em" dy="0.3em" style="text-anchor: end; visibility: hidden; font-family: Roboto, sans-serif; font-size: 12px; font-weight: 200;" fill="rgb(33, 33, 33)" stroke="none" stroke-width="1px">0.5</text><text x="0" y="14.749999999999988" dx="0em" dy="0.3em" style="text-anchor: end; visibility: inherit; font-family: Roboto, sans-serif; font-size: 12px; font-weight: 200;" fill="rgb(33, 33, 33)" stroke="none" stroke-width="1px">0.55</text><text x="0" y="0" dx="0em" dy="0.3em" style="text-anchor: end; visibility: hidden; font-family: Roboto, sans-serif; font-size: 12px; font-weight: 200;" fill="rgb(33, 33, 33)" stroke="none" stroke-width="1px">0.6</text></g><line x1="51.5625" y1="0" x2="51.5625" y2="177" fill="rgb(0, 0, 0)" stroke="rgb(204, 204, 204)" stroke-width="1px"></line></g></g><g transform="translate(51, 0)" clip-path="url(#clip_0)"><clipPath id="clip_0"><rect width="278" height="177"></rect></clipPath><g><g><g><line x1="0" y1="0" x2="0" y2="177" fill="rgb(0, 0, 0)" stroke="rgb(66, 66, 66)" stroke-width="1px" opacity="0.25"></line><line x1="23.203125" y1="0" x2="23.203125" y2="177" fill="rgb(0, 0, 0)" stroke="rgb(66, 66, 66)" stroke-width="1px" opacity="0.25"></line><line x1="46.40625" y1="0" x2="46.40625" y2="177" fill="rgb(0, 0, 0)" stroke="rgb(66, 66, 66)" stroke-width="1px" opacity="0.25"></line><line x1="69.609375" y1="0" x2="69.609375" y2="177" fill="rgb(0, 0, 0)" stroke="rgb(66, 66, 66)" stroke-width="1px" opacity="0.25"></line><line x1="92.8125" y1="0" x2="92.8125" y2="177" fill="rgb(0, 0, 0)" stroke="rgb(66, 66, 66)" stroke-width="1px" opacity="0.25"></line><line x1="116.015625" y1="0" x2="116.015625" y2="177" fill="rgb(0, 0, 0)" stroke="rgb(66, 66, 66)" stroke-width="1px" opacity="0.25"></line><line x1="139.21875" y1="0" x2="139.21875" y2="177" fill="rgb(0, 0, 0)" stroke="rgb(66, 66, 66)" stroke-width="1px" opacity="0.25"></line><line x1="162.421875" y1="0" x2="162.421875" y2="177" fill="rgb(0, 0, 0)" stroke="rgb(66, 66, 66)" stroke-width="1px" opacity="0.25"></line><line x1="185.625" y1="0" x2="185.625" y2="177" fill="rgb(0, 0, 0)" stroke="rgb(66, 66, 66)" stroke-width="1px" opacity="0.25"></line><line x1="208.828125" y1="0" x2="208.828125" y2="177" fill="rgb(0, 0, 0)" stroke="rgb(66, 66, 66)" stroke-width="1px" opacity="0.25"></line><line x1="232.03125" y1="0" x2="232.03125" y2="177" fill="rgb(0, 0, 0)" stroke="rgb(66, 66, 66)" stroke-width="1px" opacity="0.25"></line><line x1="255.234375" y1="0" x2="255.234375" y2="177" fill="rgb(0, 0, 0)" stroke="rgb(66, 66, 66)" stroke-width="1px" opacity="0.25"></line><line x1="278.4375" y1="0" x2="278.4375" y2="177" fill="rgb(0, 0, 0)" stroke="rgb(66, 66, 66)" stroke-width="1px" opacity="0.25"></line></g><g><line x1="0" y1="177" x2="278.4375" y2="177" fill="rgb(0, 0, 0)" stroke="rgb(66, 66, 66)" stroke-width="1px" opacity="0.25"></line><line x1="0" y1="162.25" x2="278.4375" y2="162.25" fill="rgb(0, 0, 0)" stroke="rgb(66, 66, 66)" stroke-width="1px" opacity="0.25"></line><line x1="0" y1="147.5" x2="278.4375" y2="147.5" fill="rgb(0, 0, 0)" stroke="rgb(66, 66, 66)" stroke-width="1px" opacity="0.25"></line><line x1="0" y1="132.75" x2="278.4375" y2="132.75" fill="rgb(0, 0, 0)" stroke="rgb(66, 66, 66)" stroke-width="1px" opacity="0.25"></line><line x1="0" y1="118" x2="278.4375" y2="118" fill="rgb(0, 0, 0)" stroke="rgb(66, 66, 66)" stroke-width="1px" opacity="0.25"></line><line x1="0" y1="103.24999999999999" x2="278.4375" y2="103.24999999999999" fill="rgb(0, 0, 0)" stroke="rgb(66, 66, 66)" stroke-width="1px" opacity="0.25"></line><line x1="0" y1="88.5" x2="278.4375" y2="88.5" fill="rgb(0, 0, 0)" stroke="rgb(66, 66, 66)" stroke-width="1px" opacity="0.25"></line><line x1="0" y1="73.75" x2="278.4375" y2="73.75" fill="rgb(0, 0, 0)" stroke="rgb(66, 66, 66)" stroke-width="1px" opacity="0.25"></line><line x1="0" y1="58.999999999999986" x2="278.4375" y2="58.999999999999986" fill="rgb(0, 0, 0)" stroke="rgb(66, 66, 66)" stroke-width="1px" opacity="0.25"></line><line x1="0" y1="44.25" x2="278.4375" y2="44.25" fill="rgb(0, 0, 0)" stroke="rgb(66, 66, 66)" stroke-width="1px" opacity="0.25"></line><line x1="0" y1="29.499999999999993" x2="278.4375" y2="29.499999999999993" fill="rgb(0, 0, 0)" stroke="rgb(66, 66, 66)" stroke-width="1px" opacity="0.25"></line><line x1="0" y1="14.749999999999988" x2="278.4375" y2="14.749999999999988" fill="rgb(0, 0, 0)" stroke="rgb(66, 66, 66)" stroke-width="1px" opacity="0.25"></line><line x1="0" y1="0" x2="278.4375" y2="0" fill="rgb(0, 0, 0)" stroke="rgb(66, 66, 66)" stroke-width="1px" opacity="0.25"></line></g></g></g><g><g><line x1="0" y1="177" x2="278.4375" y2="177" fill="rgb(0, 0, 0)" stroke="rgb(153, 153, 153)" stroke-width="1.5px"></line></g></g><g><g><line x1="23.203125" y1="0" x2="23.203125" y2="177" fill="rgb(0, 0, 0)" stroke="rgb(153, 153, 153)" stroke-width="1.5px"></line></g></g><g><g><g><g><g><path stroke="rgb(255, 112, 67)" stroke-width="2px" d="M24.36328125,14.736756205558777L25.523437499999996,66.25935372328142L26.683593750000004,73.66035929445005L27.84375,67.07397155418859L29.00390625,59.93765301323686L30.1640625,66.6954169191214L31.32421875,78.06622210350787L32.484375,77.06886887130763L33.64453125,76.10282331393358L34.8046875,84.08236756457843L35.96484375000001,88.06907400528645L37.125,87.22927394380825L38.28515625,92.30212908934904L39.4453125,88.76495528634646L40.60546875,88.96019939255221L41.765625,91.78247161277216L42.92578125,94.42214280435665L44.0859375,97.40277304532462L45.24609375,99.85440579330958L46.40625,100.75252141505659L47.56640625,100.02209861719204L48.7265625,100.5795820543463L49.88671875,100.18165905656443L51.04687499999999,101.793036255871L52.20703125,102.8401524811273L53.36718750000001,102.49794702297294L54.52734375,104.32748056357623L55.6875,105.54150735574092L56.84765625,106.04507231514444L58.0078125,103.88440724031756L59.16796875,105.85093559509845L60.328125,108.30489232880586L61.48828125,107.75650656712513L62.6484375,108.66574684022598L63.80859375,111.1007366228663L64.96875,112.02246135099053L66.12890625,112.21513137920084L67.2890625,113.2310137265651L68.44921875,110.47553771351379L69.609375,111.0009610184471L70.76953125,110.11612484393096L71.92968750000001,110.54758134687465L73.08984375,107.80140128456371L74.25,104.0259994514808L75.41015625,102.85183472100192L76.5703125,100.77061575624353L77.73046875,100.54931703164962L78.890625,100.55703188662154L80.05078125,99.277797658914L81.2109375,99.1723663681234L82.37109375,100.22314762415009L83.53125,100.8287511397266L84.69140624999999,101.14456140445685L85.8515625,101.56566229722297L87.01171875,102.21034781525665L88.171875,103.45260089362031L89.33203125000001,103.88019844299335L90.4921875,105.04060385039038L91.65234375,104.72843699991489L92.8125,104.94333772756785L93.97265625,104.28459886448253L95.1328125,105.09499802558585L96.29296875,104.78781328855543L97.453125,104.64756536553914L98.61328125,103.44069917076105L99.7734375,102.36813417080849L100.93359375,103.7725237340214L102.09374999999999,103.3241896132107L103.25390625,101.8743666864036L104.4140625,102.31005830941749L105.57421875,103.20070359112309L106.73437500000001,102.89772139636338L107.89453125,102.94645699859929L109.0546875,102.21340720718396L110.21484375,102.46184227051516L111.375,104.36781866698847L112.53515625,104.42799689173987L113.6953125,105.04981742237493L114.85546875,103.7874062740008L116.015625,105.96236890122336L117.17578125,103.89787061064986L118.3359375,104.30324950672124L119.49609374999999,103.76782145411326L120.65625,102.53274619743179L121.81640625,105.36543788797353L122.9765625,106.89676424943987L124.13671875000001,106.6757604514534L125.296875,106.48937283676605L126.45703125,104.81166625511491L127.6171875,106.12541883935492L128.77734375,106.65832421768043L129.9375,104.77887485848262L131.09765625,107.56743486474844L132.2578125,106.51266861708227L133.41796875,103.64007564061417L134.578125,106.76696566640626L135.73828125,108.33259255800014L136.8984375,108.80540606828076L138.05859375,111.09468711374392L139.21875,109.85363486767619L140.37890625,110.42204790634436L141.5390625,106.6795729947811L142.69921875,108.1252151881561L143.85937500000003,111.08872822512038L145.01953125,112.20268251611452L146.1796875,111.98945247521496L147.33984375,112.51918537824191L148.5,111.26537907629097L149.66015625,112.11243894275064L150.8203125,112.76407866785839L151.98046874999997,113.9036356509343L153.140625,115.20746812065677L154.30078125,117.09548340057384L155.4609375,115.84105200324716L156.62109375,113.21460547121609L157.78125,113.36760849166714L158.94140625,114.2850819721293L160.1015625,116.11007454103304L161.26171875000003,117.43143907322757L162.421875,118.95279785511686L163.58203125,119.3080412606851L164.7421875,120.35258625869209L165.90234375,120.01703496009661L167.0625,119.71808841334L168.22265625,118.91119122570039L169.38281249999997,120.13145062213067L170.54296875,119.92294966164646L171.703125,120.60743564587018L172.86328125,119.68338416268355L174.0234375,121.24928520668968L175.18359375,122.16203132504718L176.34375,118.58357846783889L177.50390625,118.46178816955774L178.66406250000003,119.24759937112131L179.82421875,118.52616617282838L180.984375,117.8171523992542L182.14453125,118.94240846053538L183.3046875,118.83428210795716L184.46484375,119.9046119863458L185.625,121.19894951479614L186.78515624999997,120.81963815043393L187.9453125,121.99765983176682L189.10546875,123.87412865154212L190.265625,122.10306462163234L191.42578125,123.3556648817686L192.5859375,123.66154044407307L193.74609375,123.43160123108467L194.90625,124.05174486766217L196.06640625000003,124.97274626605842L197.2265625,124.1268645565928L198.38671875,119.47355357670071L199.546875,117.63902823039103L200.70703125,117.79317710019318L201.8671875,116.19658754640001L203.02734375,117.34035440618176L204.18749999999997,118.81711859772268L205.34765625,118.73995545083744L206.5078125,119.59057531509856L207.66796875,120.17975056640174L208.828125,122.2289323897935L209.98828125,123.56911659988806L211.1484375,124.70837356727914L212.30859375,121.26367252080607L213.46875000000003,119.111942448224L214.62890625,119.55312926197779L215.7890625,119.73185632451599L216.94921875,118.84758786856992L218.109375,116.50057647832664L219.26953125,116.28299699705708L220.4296875,116.89474450524015L221.58984374999997,118.77064766370773L222.75,119.91401931720354L223.91015625,120.59454904957998L225.0703125,118.84739758046152L226.23046875,119.88153445519295L227.390625,121.00307422291087L228.55078125,122.4492424223215L229.7109375,122.77762787510888L230.87109375000003,122.90259747347237L232.03125,122.07893106314906L233.19140625,119.89510446426347L234.3515625,119.39160218279265L235.51171875,118.079391738043L236.671875,118.84927149801202L237.83203125,119.61022963708454L238.99218749999997,120.03787176248976L240.15234375,120.37191664489393L241.3125,121.73529740732033L242.47265625,121.14663444432645L243.6328125,122.2713236900062L244.79296875,122.93872868129878L245.953125,123.80958767440204L247.11328125,121.28240417956681L248.27343750000003,121.3033690196951L249.43359375,122.4978756602637L250.59375,120.72038100600194L251.75390625,122.37414340931215L252.9140625,122.14073248704449L254.07421875,122.40753287233632L255.234375,123.94980244188609" style="fill: none;" fill="none"></path></g></g></g></g><g opacity="0.2"><g><g><g><path stroke="rgb(255, 112, 67)" stroke-width="2px" d="M24.36328125,14.736756205558777L25.523437499999996,115.20582136511803L26.683593750000004,87.37072211503983L27.84375,49.22568407654761L29.00390625,34.786545753479004L30.1640625,95.74138221144676L31.32421875,135.2983736693859L32.484375,71.35244768857956L33.64453125,69.92495056986809L34.8046875,140.14075030386448L35.96484375000001,118.46371655166149L37.125,80.34896147251128L38.28515625,136.6041762828827L39.4453125,56.058476239442825L40.60546875,90.86073976755141L41.765625,120.56249839067459L42.92578125,122.501891374588L44.0859375,130.35576742887497L45.24609375,127.93277901411055L46.40625,111.37748208642006L47.56640625,91.11914497613907L48.7265625,107.56447550654411L49.88671875,95.06720942258835L51.04687499999999,122.99911391735075L52.20703125,116.92617830634116L53.36718750000001,97.79960361123085L54.52734375,129.92835965752602L55.6875,122.83345219492911L56.84765625,113.33734211325645L58.0078125,72.10702043771742L59.16796875,135.19520324468613L60.328125,145.42287823557854L61.48828125,99.35552087426186L62.6484375,122.76216042041777L63.80859375,149.27731563150883L64.96875,126.62665110826492L66.12890625,115.29827472567558L67.2890625,129.6396319270134L68.44921875,65.57648640871048L69.609375,119.63353817164896L70.76953125,95.46476942300795L71.92968750000001,117.74442923069L73.08984375,61.67563331127165L74.25,40.19708943367004L75.41015625,82.87788969278336L76.5703125,65.15963745117188L77.73046875,96.74184960126875L78.890625,100.6904591321945L80.05078125,77.04457145929337L81.2109375,97.33142000436783L82.37109375,118.65179707109928L83.53125,111.49412137269974L84.69140624999999,106.72827196121216L85.8515625,109.03875318169594L87.01171875,113.69169977307318L88.171875,125.65013226866722L89.33203125000001,111.54502522945404L90.4921875,125.90360534191132L91.65234375,99.10003450512886L92.8125,108.82844288647173L93.97265625,92.3451718389988L95.1328125,119.81868666410446L96.29296875,99.19397366046906L97.453125,102.08810847997665L98.61328125,81.37068715691566L99.7734375,82.7158589363098L100.93359375,129.55227774381638L102.09374999999999,95.07989582419395L103.25390625,75.1696566939354L104.4140625,110.3478394895792L105.57421875,119.65618555247784L106.73437500000001,97.29191017150879L107.89453125,103.84938192367554L109.0546875,88.61485105752944L110.21484375,107.07605783641337L111.375,139.80843779444695L112.53515625,105.54819923639297L113.6953125,116.63682636618614L114.85546875,80.24052482843399L116.015625,146.56825237721205L117.17578125,65.3202263712883L118.3359375,111.88460406661034L119.49609374999999,93.74632027745247L120.65625,79.39859789609909L121.81640625,158.4625846967101L122.9765625,135.62014934420586L124.13671875000001,102.52766636013983L125.296875,102.98885178565979L126.45703125,73.28449961543083L127.6171875,130.8269006460905L128.77734375,116.6834047138691L129.9375,69.40479052066802L131.09765625,160.0772447027266L132.2578125,86.642014503479L133.41796875,49.500397861003876L134.578125,165.72329784557223L135.73828125,137.86327746510506L136.8984375,117.72682827711105L138.05859375,154.3056847602129L139.21875,86.42059591412544L140.37890625,121.15795482695103L141.5390625,35.9724913239479L142.69921875,135.44565197825432L143.85937500000003,167.10965647175908L145.01953125,133.2657492607832L146.1796875,107.95664180815218L147.33984375,122.54030664265154L148.5,87.54155334830284L149.66015625,128.143361851573L150.8203125,125.09903427958488L151.98046874999997,135.47846694290638L153.140625,139.89686016738415L154.30078125,152.8530104532838L155.4609375,92.07929369807242L156.62109375,63.45620450377464L157.78125,116.26669202744961L158.94140625,131.67165410518646L160.1015625,150.69909595698118L161.26171875000003,142.47832310199738L162.421875,147.79403527081013L163.58203125,126.04334038496017L164.7421875,140.1589249148965L165.90234375,113.65377244353293L167.0625,114.04843997955322L168.22265625,103.60664789378643L169.38281249999997,143.27830270677805L170.54296875,115.9676120877266L171.703125,133.5933933854103L172.86328125,102.15112727880478L174.0234375,150.96160688251257L175.18359375,139.48216956853867L176.34375,50.67505490779876L177.50390625,116.15042638778687L178.66406250000003,134.16174505650997L179.82421875,104.83312313258646L180.984375,104.35913701355456L182.14453125,140.30230191349983L183.3046875,116.78170454502106L184.46484375,140.22373501956463L185.625,145.77166636288166L186.78515624999997,113.6182056814432L187.9453125,144.36389338970184L189.10546875,159.5025542266667L190.265625,88.47479951381682L191.42578125,147.14032073318958L192.5859375,129.4697545915842L193.74609375,119.06519968807697L194.90625,135.82821336388588L196.06640625000003,142.462939850986L197.2265625,108.06281898915768L198.38671875,31.100921899080276L199.546875,82.79813152551651L200.70703125,120.72080147266388L201.8671875,85.87323439121246L203.02734375,139.06386119127274L204.18749999999997,146.865747615695L205.34765625,117.27434661984444L206.5078125,135.74721117317677L207.66796875,131.37069714069366L208.828125,161.1522084362805L209.98828125,149.02567122876644L211.1484375,146.34864707291126L212.30859375,55.830463886260986L213.46875000000003,78.2386317551136L214.62890625,127.93381643295288L215.7890625,123.1269538104534L216.94921875,102.04985585808753L218.109375,71.915854036808L219.26953125,112.14973491430281L220.4296875,128.51594907045364L221.58984374999997,154.406986951828L222.75,141.6347103640437L223.91015625,133.52270823717117L225.0703125,85.65616768598557L226.23046875,139.52752147614956L227.390625,142.30963703989983L228.55078125,149.9231396317482L229.7109375,129.01623991131783L230.87109375000003,125.27676258981228L232.03125,106.43088002502918L233.19140625,78.40645623207092L234.3515625,109.82594747841357L235.51171875,93.14959344267844L236.671875,133.47576063871384L237.83203125,134.06728279590607L238.99218749999997,128.16245739161968L240.15234375,126.71831321716307L241.3125,147.63776306807995L242.47265625,109.96276368200779L243.6328125,143.63910247385502L244.79296875,135.61868113279343L245.953125,140.35498828440905L247.11328125,73.26845479011536L248.27343750000003,121.70168098807335L249.43359375,145.1924195960164L250.59375,86.94951248168945L251.75390625,153.79427683353424L252.9140625,117.70610627532005L254.07421875,127.47654330730437L255.234375,153.25184305012226" style="fill: none;" fill="none"></path></g></g></g></g></g></g><g transform="translate(51, 177)" clip-path="url(#clip_1)"><clipPath id="clip_1"><rect width="278" height="23"></rect></clipPath><g><g><line x1="0" y1="0" x2="0" y2="5" style="visibility: inherit;" fill="rgb(0, 0, 0)" stroke="rgb(204, 204, 204)" stroke-width="1px"></line><line x1="23.203125" y1="0" x2="23.203125" y2="5" style="visibility: inherit;" fill="rgb(0, 0, 0)" stroke="rgb(204, 204, 204)" stroke-width="1px"></line><line x1="46.40625" y1="0" x2="46.40625" y2="5" style="visibility: inherit;" fill="rgb(0, 0, 0)" stroke="rgb(204, 204, 204)" stroke-width="1px"></line><line x1="69.609375" y1="0" x2="69.609375" y2="5" style="visibility: inherit;" fill="rgb(0, 0, 0)" stroke="rgb(204, 204, 204)" stroke-width="1px"></line><line x1="92.8125" y1="0" x2="92.8125" y2="5" style="visibility: inherit;" fill="rgb(0, 0, 0)" stroke="rgb(204, 204, 204)" stroke-width="1px"></line><line x1="116.015625" y1="0" x2="116.015625" y2="5" style="visibility: inherit;" fill="rgb(0, 0, 0)" stroke="rgb(204, 204, 204)" stroke-width="1px"></line><line x1="139.21875" y1="0" x2="139.21875" y2="5" style="visibility: inherit;" fill="rgb(0, 0, 0)" stroke="rgb(204, 204, 204)" stroke-width="1px"></line><line x1="162.421875" y1="0" x2="162.421875" y2="5" style="visibility: inherit;" fill="rgb(0, 0, 0)" stroke="rgb(204, 204, 204)" stroke-width="1px"></line><line x1="185.625" y1="0" x2="185.625" y2="5" style="visibility: inherit;" fill="rgb(0, 0, 0)" stroke="rgb(204, 204, 204)" stroke-width="1px"></line><line x1="208.828125" y1="0" x2="208.828125" y2="5" style="visibility: inherit;" fill="rgb(0, 0, 0)" stroke="rgb(204, 204, 204)" stroke-width="1px"></line><line x1="232.03125" y1="0" x2="232.03125" y2="5" style="visibility: inherit;" fill="rgb(0, 0, 0)" stroke="rgb(204, 204, 204)" stroke-width="1px"></line><line x1="255.234375" y1="0" x2="255.234375" y2="5" style="visibility: inherit;" fill="rgb(0, 0, 0)" stroke="rgb(204, 204, 204)" stroke-width="1px"></line><line x1="278.4375" y1="0" x2="278.4375" y2="5" style="visibility: inherit;" fill="rgb(0, 0, 0)" stroke="rgb(204, 204, 204)" stroke-width="1px"></line></g><g transform="translate(0, 8)"><text x="0" y="0" dx="0em" dy="0.95em" style="text-anchor: middle; visibility: hidden; font-family: Roboto, sans-serif; font-size: 12px; font-weight: 200;" fill="rgb(33, 33, 33)" stroke="none" stroke-width="1px">-2k</text><text x="23.203125" y="0" dx="0em" dy="0.95em" style="text-anchor: middle; visibility: inherit; font-family: Roboto, sans-serif; font-size: 12px; font-weight: 200;" fill="rgb(33, 33, 33)" stroke="none" stroke-width="1px">0</text><text x="46.40625" y="0" dx="0em" dy="0.95em" style="text-anchor: middle; visibility: hidden; font-family: Roboto, sans-serif; font-size: 12px; font-weight: 200;" fill="rgb(33, 33, 33)" stroke="none" stroke-width="1px">2k</text><text x="69.609375" y="0" dx="0em" dy="0.95em" style="text-anchor: middle; visibility: inherit; font-family: Roboto, sans-serif; font-size: 12px; font-weight: 200;" fill="rgb(33, 33, 33)" stroke="none" stroke-width="1px">4k</text><text x="92.8125" y="0" dx="0em" dy="0.95em" style="text-anchor: middle; visibility: hidden; font-family: Roboto, sans-serif; font-size: 12px; font-weight: 200;" fill="rgb(33, 33, 33)" stroke="none" stroke-width="1px">6k</text><text x="116.015625" y="0" dx="0em" dy="0.95em" style="text-anchor: middle; visibility: inherit; font-family: Roboto, sans-serif; font-size: 12px; font-weight: 200;" fill="rgb(33, 33, 33)" stroke="none" stroke-width="1px">8k</text><text x="139.21875" y="0" dx="0em" dy="0.95em" style="text-anchor: middle; visibility: hidden; font-family: Roboto, sans-serif; font-size: 12px; font-weight: 200;" fill="rgb(33, 33, 33)" stroke="none" stroke-width="1px">10k</text><text x="162.421875" y="0" dx="0em" dy="0.95em" style="text-anchor: middle; visibility: inherit; font-family: Roboto, sans-serif; font-size: 12px; font-weight: 200;" fill="rgb(33, 33, 33)" stroke="none" stroke-width="1px">12k</text><text x="185.625" y="0" dx="0em" dy="0.95em" style="text-anchor: middle; visibility: hidden; font-family: Roboto, sans-serif; font-size: 12px; font-weight: 200;" fill="rgb(33, 33, 33)" stroke="none" stroke-width="1px">14k</text><text x="208.828125" y="0" dx="0em" dy="0.95em" style="text-anchor: middle; visibility: inherit; font-family: Roboto, sans-serif; font-size: 12px; font-weight: 200;" fill="rgb(33, 33, 33)" stroke="none" stroke-width="1px">16k</text><text x="232.03125" y="0" dx="0em" dy="0.95em" style="text-anchor: middle; visibility: hidden; font-family: Roboto, sans-serif; font-size: 12px; font-weight: 200;" fill="rgb(33, 33, 33)" stroke="none" stroke-width="1px">18k</text><text x="255.234375" y="0" dx="0em" dy="0.95em" style="text-anchor: middle; visibility: inherit; font-family: Roboto, sans-serif; font-size: 12px; font-weight: 200;" fill="rgb(33, 33, 33)" stroke="none" stroke-width="1px">20k</text><text x="278.4375" y="0" dx="0em" dy="0.95em" style="text-anchor: middle; visibility: hidden; font-family: Roboto, sans-serif; font-size: 12px; font-weight: 200;" fill="rgb(33, 33, 33)" stroke="none" stroke-width="1px">22k</text></g><line x1="0" y1="0" x2="278.4375" y2="0" fill="rgb(0, 0, 0)" stroke="rgb(204, 204, 204)" stroke-width="1px"></line></g></g></g></g></svg>