<svg viewBox="0 0 1112.5999755859375 400" xmlns="http://www.w3.org/2000/svg"><g><g><g><g><g><line x1="41.171875" y1="377" x2="36.171875" y2="377" style="visibility: inherit;" fill="rgb(0, 0, 0)" stroke="rgb(204, 204, 204)" stroke-width="1px"></line><line x1="41.171875" y1="329.875" x2="36.171875" y2="329.875" style="visibility: inherit;" fill="rgb(0, 0, 0)" stroke="rgb(204, 204, 204)" stroke-width="1px"></line><line x1="41.171875" y1="282.75" x2="36.171875" y2="282.75" style="visibility: inherit;" fill="rgb(0, 0, 0)" stroke="rgb(204, 204, 204)" stroke-width="1px"></line><line x1="41.171875" y1="235.625" x2="36.171875" y2="235.625" style="visibility: inherit;" fill="rgb(0, 0, 0)" stroke="rgb(204, 204, 204)" stroke-width="1px"></line><line x1="41.171875" y1="188.5" x2="36.171875" y2="188.5" style="visibility: inherit;" fill="rgb(0, 0, 0)" stroke="rgb(204, 204, 204)" stroke-width="1px"></line><line x1="41.171875" y1="141.375" x2="36.171875" y2="141.375" style="visibility: inherit;" fill="rgb(0, 0, 0)" stroke="rgb(204, 204, 204)" stroke-width="1px"></line><line x1="41.171875" y1="94.25" x2="36.171875" y2="94.25" style="visibility: inherit;" fill="rgb(0, 0, 0)" stroke="rgb(204, 204, 204)" stroke-width="1px"></line><line x1="41.171875" y1="47.125" x2="36.171875" y2="47.125" style="visibility: inherit;" fill="rgb(0, 0, 0)" stroke="rgb(204, 204, 204)" stroke-width="1px"></line><line x1="41.171875" y1="0" x2="36.171875" y2="0" style="visibility: inherit;" fill="rgb(0, 0, 0)" stroke="rgb(204, 204, 204)" stroke-width="1px"></line></g><g transform="translate(31.171875, 0)"><text x="0" y="377" dx="0em" dy="0.3em" style="text-anchor: end; visibility: hidden; font-family: Roboto, sans-serif; font-size: 12px; font-weight: 200;" fill="rgb(33, 33, 33)" stroke="none" stroke-width="1px">0</text><text x="0" y="329.875" dx="0em" dy="0.3em" style="text-anchor: end; visibility: inherit; font-family: Roboto, sans-serif; font-size: 12px; font-weight: 200;" fill="rgb(33, 33, 33)" stroke="none" stroke-width="1px">0.5</text><text x="0" y="282.75" dx="0em" dy="0.3em" style="text-anchor: end; visibility: inherit; font-family: Roboto, sans-serif; font-size: 12px; font-weight: 200;" fill="rgb(33, 33, 33)" stroke="none" stroke-width="1px">1</text><text x="0" y="235.625" dx="0em" dy="0.3em" style="text-anchor: end; visibility: inherit; font-family: Roboto, sans-serif; font-size: 12px; font-weight: 200;" fill="rgb(33, 33, 33)" stroke="none" stroke-width="1px">1.5</text><text x="0" y="188.5" dx="0em" dy="0.3em" style="text-anchor: end; visibility: inherit; font-family: Roboto, sans-serif; font-size: 12px; font-weight: 200;" fill="rgb(33, 33, 33)" stroke="none" stroke-width="1px">2</text><text x="0" y="141.375" dx="0em" dy="0.3em" style="text-anchor: end; visibility: inherit; font-family: Roboto, sans-serif; font-size: 12px; font-weight: 200;" fill="rgb(33, 33, 33)" stroke="none" stroke-width="1px">2.5</text><text x="0" y="94.25" dx="0em" dy="0.3em" style="text-anchor: end; visibility: inherit; font-family: Roboto, sans-serif; font-size: 12px; font-weight: 200;" fill="rgb(33, 33, 33)" stroke="none" stroke-width="1px">3</text><text x="0" y="47.125" dx="0em" dy="0.3em" style="text-anchor: end; visibility: inherit; font-family: Roboto, sans-serif; font-size: 12px; font-weight: 200;" fill="rgb(33, 33, 33)" stroke="none" stroke-width="1px">3.5</text><text x="0" y="0" dx="0em" dy="0.3em" style="text-anchor: end; visibility: hidden; font-family: Roboto, sans-serif; font-size: 12px; font-weight: 200;" fill="rgb(33, 33, 33)" stroke="none" stroke-width="1px">4</text></g><line x1="41.171875" y1="0" x2="41.171875" y2="377" fill="rgb(0, 0, 0)" stroke="rgb(204, 204, 204)" stroke-width="1px"></line></g></g><g transform="translate(41, 0)" clip-path="url(#clip_0)"><clipPath id="clip_0"><rect width="1071" height="377"></rect></clipPath><g><g><g><line x1="0" y1="0" x2="0" y2="377" fill="rgb(0, 0, 0)" stroke="rgb(66, 66, 66)" stroke-width="1px" opacity="0.25"></line><line x1="89.28567708333333" y1="0" x2="89.28567708333333" y2="377" fill="rgb(0, 0, 0)" stroke="rgb(66, 66, 66)" stroke-width="1px" opacity="0.25"></line><line x1="178.57135416666665" y1="0" x2="178.57135416666665" y2="377" fill="rgb(0, 0, 0)" stroke="rgb(66, 66, 66)" stroke-width="1px" opacity="0.25"></line><line x1="267.85703125" y1="0" x2="267.85703125" y2="377" fill="rgb(0, 0, 0)" stroke="rgb(66, 66, 66)" stroke-width="1px" opacity="0.25"></line><line x1="357.1427083333333" y1="0" x2="357.1427083333333" y2="377" fill="rgb(0, 0, 0)" stroke="rgb(66, 66, 66)" stroke-width="1px" opacity="0.25"></line><line x1="446.42838541666663" y1="0" x2="446.42838541666663" y2="377" fill="rgb(0, 0, 0)" stroke="rgb(66, 66, 66)" stroke-width="1px" opacity="0.25"></line><line x1="535.7140625" y1="0" x2="535.7140625" y2="377" fill="rgb(0, 0, 0)" stroke="rgb(66, 66, 66)" stroke-width="1px" opacity="0.25"></line><line x1="624.9997395833333" y1="0" x2="624.9997395833333" y2="377" fill="rgb(0, 0, 0)" stroke="rgb(66, 66, 66)" stroke-width="1px" opacity="0.25"></line><line x1="714.2854166666666" y1="0" x2="714.2854166666666" y2="377" fill="rgb(0, 0, 0)" stroke="rgb(66, 66, 66)" stroke-width="1px" opacity="0.25"></line><line x1="803.5710937499999" y1="0" x2="803.5710937499999" y2="377" fill="rgb(0, 0, 0)" stroke="rgb(66, 66, 66)" stroke-width="1px" opacity="0.25"></line><line x1="892.8567708333333" y1="0" x2="892.8567708333333" y2="377" fill="rgb(0, 0, 0)" stroke="rgb(66, 66, 66)" stroke-width="1px" opacity="0.25"></line><line x1="982.1424479166666" y1="0" x2="982.1424479166666" y2="377" fill="rgb(0, 0, 0)" stroke="rgb(66, 66, 66)" stroke-width="1px" opacity="0.25"></line><line x1="1071.428125" y1="0" x2="1071.428125" y2="377" fill="rgb(0, 0, 0)" stroke="rgb(66, 66, 66)" stroke-width="1px" opacity="0.25"></line></g><g><line x1="0" y1="377" x2="1071.428125" y2="377" fill="rgb(0, 0, 0)" stroke="rgb(66, 66, 66)" stroke-width="1px" opacity="0.25"></line><line x1="0" y1="329.875" x2="1071.428125" y2="329.875" fill="rgb(0, 0, 0)" stroke="rgb(66, 66, 66)" stroke-width="1px" opacity="0.25"></line><line x1="0" y1="282.75" x2="1071.428125" y2="282.75" fill="rgb(0, 0, 0)" stroke="rgb(66, 66, 66)" stroke-width="1px" opacity="0.25"></line><line x1="0" y1="235.625" x2="1071.428125" y2="235.625" fill="rgb(0, 0, 0)" stroke="rgb(66, 66, 66)" stroke-width="1px" opacity="0.25"></line><line x1="0" y1="188.5" x2="1071.428125" y2="188.5" fill="rgb(0, 0, 0)" stroke="rgb(66, 66, 66)" stroke-width="1px" opacity="0.25"></line><line x1="0" y1="141.375" x2="1071.428125" y2="141.375" fill="rgb(0, 0, 0)" stroke="rgb(66, 66, 66)" stroke-width="1px" opacity="0.25"></line><line x1="0" y1="94.25" x2="1071.428125" y2="94.25" fill="rgb(0, 0, 0)" stroke="rgb(66, 66, 66)" stroke-width="1px" opacity="0.25"></line><line x1="0" y1="47.125" x2="1071.428125" y2="47.125" fill="rgb(0, 0, 0)" stroke="rgb(66, 66, 66)" stroke-width="1px" opacity="0.25"></line><line x1="0" y1="0" x2="1071.428125" y2="0" fill="rgb(0, 0, 0)" stroke="rgb(66, 66, 66)" stroke-width="1px" opacity="0.25"></line></g></g></g><g><g><line x1="0" y1="377" x2="1071.428125" y2="377" fill="rgb(0, 0, 0)" stroke="rgb(153, 153, 153)" stroke-width="1.5px"></line></g></g><g><g><line x1="89.28567708333333" y1="0" x2="89.28567708333333" y2="377" fill="rgb(0, 0, 0)" stroke="rgb(153, 153, 153)" stroke-width="1.5px"></line></g></g><g><g><g><g><g><path stroke="rgb(255, 112, 67)" stroke-width="2px" d="M93.74996093749999,109.59428894519806L98.21424479166666,18.209286808967377L102.67852864583332,56.01048517906277L107.14281249999999,108.73276223579725L111.60709635416666,144.70529909851894L116.07138020833332,174.93604968422122L120.53566406249999,202.50444209978173L124.99994791666666,225.33774083519233L129.46423177083332,241.4993041348383L133.928515625,253.7466751326283L138.39279947916665,262.03425638060656L142.85708333333332,269.23242104910344L147.3213671875,271.682534890388L151.78565104166665,274.30486663078545L156.24993489583332,280.6857140336388L160.71421875,275.232447264188L165.17850260416665,281.67023745237213L169.64278645833332,287.7640618746695L174.10707031249999,293.07719020373736L178.57135416666665,296.435709571578L183.03563802083332,299.9610402770991L187.49992187499998,300.7697506496843L191.96420572916665,302.6113250271422L196.42848958333332,305.4803097194754L200.89277343749998,303.629473825334L205.35705729166665,304.96956740223123L209.82134114583332,307.2463458069919L214.28562499999998,308.8039571859557L218.74990885416665,311.5141927629163L223.21419270833331,312.8023268159297L227.67847656249998,315.687927869161L232.14276041666665,317.12069788582784L236.6070442708333,319.03485209842984L241.07132812499998,318.71025047969323L245.53561197916665,319.9608286162247L249.9998958333333,322.34886747906364L254.46417968749998,324.2612228524453L258.92846354166664,322.17576006853704L263.3927473958333,322.87820209804863L267.85703125,321.2160656974365L272.3213151041666,322.1369078763446L276.7855989583333,324.13646414425665L281.2498828125,325.144308073881L285.71416666666664,326.2662590521356L290.1784505208333,327.3840773714737L294.642734375,328.1303669331988L299.10701822916667,328.6433825729405L303.5713020833333,329.6486302797883L308.03558593749995,329.66749468437973L312.49986979166664,330.7464778913236L316.96415364583333,330.9348511391181L321.4284375,331.68906185637985L325.8927213541666,331.1462782678226L330.3570052083333,329.5508182430542L334.8212890625,331.07489288321887L339.28557291666664,331.7028448394377L343.74985677083333,332.8171559888649L348.21414062499997,334.1786616693222L352.6784244791666,334.38422128393285L357.1427083333333,334.6186147975383L361.6069921875,333.9045176595019L366.07127604166664,334.8158585528571L370.5355598958333,335.3827622263456L374.99984374999997,335.8461546208981L379.46412760416666,336.58649456322127L383.9284114583333,336.63320687274086L388.39269531249994,337.8040427708251L392.85697916666663,338.00051979458595L397.3212630208333,338.56571284367817L401.78554687499997,339.649333289021L406.2498307291666,338.96861020302947L410.7141145833333,339.3331492681878L415.1783984375,339.4815031585528L419.64268229166663,338.73355240735236L424.10696614583327,337.9910440518073L428.57124999999996,338.84161065940725L433.03553385416666,339.6480858064226L437.4998177083333,339.49953770168037L441.96410156249993,339.298536402138L446.42838541666663,339.5810413232088L450.8926692708333,338.0116575279488L455.35695312499996,336.138743609351L459.8212369791666,337.33258055338575L464.2855208333333,337.54561852572994L468.74980468749993,336.33392848514L473.2140885416666,336.6474989817369L477.6783723958333,336.2954856218463L482.14265624999996,336.5552677030659L486.6069401041666,336.88221420807656L491.0712239583333,336.7536838353945L495.5355078125,334.783130599533L499.9997916666666,334.42144494174704L504.46407552083326,331.9366480096224L508.92835937499996,332.55417486295084L513.3926432291667,333.9020478610367L517.8569270833333,334.4083787337566L522.3212109374999,335.7807323205621L526.7854947916666,336.1861818985679L531.2497786458333,333.3441635344336L535.7140625,334.2488997956702L540.1783463541666,335.2306148647291L544.6426302083332,333.7218858557596L549.1069140624999,334.38199967629635L553.5711979166666,335.10225948333834L558.0354817708334,334.66872158456505L562.499765625,334.21908695062706L566.9640494791666,333.8675694656362L571.4283333333333,331.2123730086187L575.8926171874999,332.5607865390807L580.3569010416666,332.5038022974868L584.8211848958332,333.4186434206863L589.28546875,332.9911564974413L593.7497526041667,333.4155696234252L598.2140364583333,334.94380918885435L602.6783203125,335.9532047896901L607.1426041666666,336.320863715861L611.6068880208333,335.67287183525923L616.0711718749999,336.1052129435625L620.5354557291666,337.07691629042256L624.9997395833333,337.62346487380074L629.4640234374999,338.265541949488L633.9283072916667,338.91514898472707L638.3925911458333,337.5579634605555L642.856875,337.05640770145163L647.3211588541666,334.7205707830442L651.7854427083332,334.9792119087931L656.2497265625,336.1148918669549L660.7140104166666,336.0054136854042L665.1782942708332,336.2911451765917L669.642578125,335.6343906663975L674.1068619791666,332.36310131675646L678.5711458333333,331.77862137528285L683.0354296874999,331.1985345702631L687.4997135416667,332.06785679482715L691.9639973958333,332.60564099300007L696.4282812499999,332.533153943743L700.8925651041666,330.3131839887894L705.3568489583332,331.4410552715007L709.8211328125,331.9855763808483L714.2854166666666,333.4374599076918L718.7497005208332,333.0811757408115L723.213984375,333.64809994541264L727.6782682291666,334.3062059752602L732.1425520833333,335.1054990158856L736.6068359374999,336.0104183026335L741.0711197916665,337.07363318046305L745.5354036458332,335.3620345660376L749.9996874999999,334.09047341163824L754.4639713541667,334.290737224171L758.9282552083333,334.60690097708243L763.3925390625,334.079815205555L767.8568229166666,331.5944634411395L772.3211067708332,331.3972047674949L776.7853906249999,332.53332757383595L781.2496744791665,333.10844747936574L785.7139583333333,332.22895221907424L790.1782421875,333.03510676534853L794.6425260416667,334.02646253226294L799.1068098958333,335.1475686423893L803.5710937499999,336.1763729101576L808.0353776041666,336.98832822458877L812.4996614583332,338.0753080682169L816.9639453124998,335.6474241888248L821.4282291666666,336.5837781830922L825.8925130208333,337.67709360617886L830.356796875,338.01843345431143L834.8210807291666,337.9857923884565L839.2853645833333,338.0126057419469L843.7496484374999,337.28012101211976L848.2139322916665,337.8136150641917L852.6782161458332,336.97206204481523L857.1424999999999,337.08553264623885L861.6067838541667,336.11666372811425L866.0710677083333,333.87836444372005L870.5353515625,332.27542627695703L874.9996354166666,332.389531984202L879.4639192708332,333.9704790757965L883.9282031249999,334.83993915332684L888.3924869791666,330.7952165510425L892.8567708333333,331.4188339108713L897.3210546874999,331.1961867291991L901.7853385416666,331.1033995584653L906.2496223958333,332.0045828710174L910.7139062499999,332.73618465506803L915.1781901041666,332.0628813777536L919.6424739583332,328.36425890467393L924.1067578125,329.4144786047719L928.5710416666666,329.63239420134704L933.0353255208332,329.90409364070445L937.4996093749999,329.19969934839696L941.9638932291666,330.43622761016024L946.4281770833333,331.60062742387805L950.8924609374999,332.50531279519606L955.3567447916666,332.02561610647086L959.8210286458333,331.9826707677313L964.2853124999999,332.8113212310823L968.7495963541666,333.779127786015L973.2138802083332,334.7970239064935L977.6781640625,335.56939201354004L982.1424479166666,336.980883558339" style="fill: none;" fill="none"></path></g><g><path stroke="rgb(0, 119, 187)" stroke-width="2px" d="M89.28567708333333,71.48762315511703L133.928515625,181.93131059408174L178.57135416666665,221.7967917580128L223.21419270833331,242.46472914191224L267.85703125,252.69233999784106L312.49986979166664,261.23966657450416L357.1427083333333,266.4038222526518L401.78554687499997,271.0924351468075L446.42838541666663,274.49462370796573L491.0712239583333,276.44861979657065L535.7140625,279.4170818903304L580.3569010416666,281.4094454952062L624.9997395833333,283.5186722322162L669.642578125,285.168764829476L714.2854166666666,286.9861996842912L758.9282552083333,287.6143478075069L803.5710937499999,288.5967159138254L848.2139322916665,289.4976075228774L892.8567708333333,290.3024827435199L937.4996093749999,290.2531649470182L982.1424479166666,290.6030743725237" style="fill: none;" fill="none"></path></g></g></g></g><g opacity="0.2"><g><g><g><path stroke="rgb(255, 112, 67)" stroke-width="2px" d="M93.74996093749999,109.59428894519806L98.21424479166666,-68.60646522045135L102.67852864583332,126.03720515966415L107.14281249999999,251.6035427749157L111.60709635416666,271.48623353242874L116.07138020833332,304.8727187514305L120.53566406249999,341.2631656527519L124.99994791666666,356.20887891203165L129.46423177083332,344.8526922315359L133.928515625,339.7876555919647L138.39279947916665,325.2187605202198L142.85708333333332,328.205531924963L147.3213671875,293.07976700365543L151.78565104166665,298.55225816369057L156.24993489583332,342.79800183326006L160.71421875,219.62294137477875L165.17850260416665,350.152831196785L169.64278645833332,355.13563960418105L174.10707031249999,353.9280661419034L178.57135416666665,336.1679392904043L183.03563802083332,342.9304765164852L187.49992187499998,310.9023490548134L191.96420572916665,326.28082755208015L196.42848958333332,343.2367780506611L200.89277343749998,278.7316434085369L205.35705729166665,323.3685136437416L209.82134114583332,339.1055751517415L214.28562499999998,330.98973613232374L218.74990885416665,350.76189789921045L223.21419270833331,331.74720380455256L227.67847656249998,358.7464728578925L232.14276041666665,338.792448066175L236.6070442708333,348.358702711761L241.07132812499998,313.6777867823839L245.53561197916665,339.5678082332015L249.9998958333333,360.18594793975353L254.46417968749998,354.86310629174113L258.92846354166664,288.4911875575781L263.3927473958333,334.32413034141064L267.85703125,293.90756875276566L272.3213151041666,337.38446040451527L276.7855989583333,357.48977368324995L281.2498828125,342.07239516079426L285.71416666666664,345.2345467209816L290.1784505208333,346.399502620101L294.642734375,340.8998553156853L299.10701822916667,337.4698696807027L303.5713020833333,347.03423676639795L308.03558593749995,329.995360031724L312.49986979166664,349.58671209961176L316.96415364583333,334.23854972422123L321.4284375,344.97157479822636L325.8927213541666,321.5495463311672L330.3570052083333,301.2368963956833L334.8212890625,358.21748700737953L339.28557291666664,342.9235723167658L343.74985677083333,352.79155004024506L348.21414062499997,358.65725756436586L352.6784244791666,338.09048364311457L357.1427083333333,338.85612231492996L361.6069921875,320.9617399573326L366.07127604166664,351.3735010102391L370.5355598958333,345.7060883939266L374.99984374999997,344.30284210294485L379.46412760416666,350.12512170523405L383.9284114583333,337.48910200595856L388.39269531249994,359.29655612260103L392.85697916666663,341.6134821623564L397.3212630208333,348.97616793215275L401.78554687499997,359.6403167322278L406.2498307291666,326.3916318118572L410.7141145833333,346.07789275050163L415.1783984375,342.23005697131157L419.64268229166663,324.8585736453533L424.10696614583327,324.200343310833L428.57124999999996,354.6574451252818L433.03553385416666,354.66041550412774L437.4998177083333,336.7314910814166L441.96410156249993,335.5493982732296L446.42838541666663,344.8553213328123L450.8926692708333,308.68582567572594L455.35695312499996,301.1116994917393L459.8212369791666,359.67739099264145L464.2855208333333,341.5360247939825L468.74980468749993,313.62150828540325L473.2140885416666,342.52920150756836L477.6783723958333,329.68842931091785L482.14265624999996,341.4342004880309L486.6069401041666,343.02613535523415L491.0712239583333,334.33702585846186L495.5355078125,297.7128445506096L499.9997916666666,327.613972902298L504.46407552083326,285.14683029055595L508.92835937499996,344.1877121850848L513.3926432291667,359.30537175759673L517.8569270833333,343.9550563842058L522.3212109374999,361.66591707989573L526.7854947916666,343.8365277349949L531.2497786458333,279.7000515162945L535.7140625,351.33175840973854L540.1783463541666,353.77276799455285L544.6426302083332,305.2172658443451L549.1069140624999,346.8571460098028L553.5711979166666,348.71772952377796L558.0354817708334,326.4712239205837L562.499765625,325.7151663005352L566.9640494791666,327.2178044170141L571.4283333333333,280.97222194075584L575.8926171874999,358.08001394197345L580.3569010416666,331.4251417070627L584.8211848958332,350.73900842666626L589.28546875,324.896257430315L593.7497526041667,341.4536210075021L598.2140364583333,363.8921113945544L602.6783203125,355.07634719088674L607.1426041666666,343.2872225269675L611.6068880208333,323.393108099699L616.0711718749999,344.2993591055274L620.5354557291666,355.4958615899086L624.9997395833333,347.98468777537346L629.4640234374999,350.43911392241716L633.9283072916667,351.2327963411808L638.3925911458333,311.82083232700825L642.856875,327.54418936371803L647.3211588541666,290.41639190912247L651.7854427083332,339.88532277196646L656.2497265625,357.659145668149L660.7140104166666,333.9284112751484L665.1782942708332,341.71239928901196L669.642578125,323.17274671792984L674.1068619791666,270.2875880599022L678.5711458333333,320.68690899014473L683.0354296874999,320.18952572345734L687.4997135416667,348.5669831484556L691.9639973958333,342.81296467781067L696.4282812499999,331.15725426375866L700.8925651041666,288.1731561869383L705.3568489583332,352.8515924215317L709.8211328125,342.32275526225567L714.2854166666666,361.0011533163488L718.7497005208332,326.3169271349907L723.213984375,344.41187396645546L727.6782682291666,346.80163433402777L732.1425520833333,350.2821599468589L736.6068359374999,353.19322952628136L741.0711197916665,357.26282269507647L745.5354036458332,302.859849601984L749.9996874999999,309.9436483979225L754.4639713541667,338.09382900595665L758.9282552083333,340.611131682992L763.3925390625,324.0697477608919L767.8568229166666,284.3932163864374L772.3211067708332,327.6508308798075L776.7853906249999,354.111229673028L781.2496744791665,344.0316710919142L785.7139583333333,315.5244326889515L790.1782421875,348.3469138890505L794.6425260416667,352.8562298640609L799.1068098958333,356.4421470463276L803.5710937499999,355.71804171428084L808.0353776041666,352.4112713262439L812.4996614583332,358.72257359698415L816.9639453124998,289.5289859622717L821.4282291666666,354.37034361436963L825.8925130208333,358.4454716593027L830.356796875,344.5025217831135L834.8210807291666,337.3657364845276L839.2853645833333,338.52196241915226L843.7496484374999,323.36542950570583L848.2139322916665,347.94825955480337L852.6782161458332,320.98516592383385L857.1424999999999,339.2411395907402L861.6067838541667,317.7108674645424L866.0710677083333,291.35663267970085L870.5353515625,301.8236522525549L874.9996354166666,334.557266458869L879.4639192708332,364.00486781820655L883.9282031249999,351.35779662430286L888.3924869791666,253.95381325483322L892.8567708333333,343.266344204545L897.3210546874999,326.9663039147854L901.7853385416666,329.3406070768833L906.2496223958333,349.12555481493473L910.7139062499999,346.63545322418213L915.1781901041666,319.27113795280457L919.6424739583332,258.09574884176254L924.1067578125,349.36721865832806L928.5710416666666,333.7725078165531L933.0353255208332,335.06604811549187L937.4996093749999,315.81703256070614L941.9638932291666,353.9288891404867L946.4281770833333,353.7229934334755L950.8924609374999,349.6934266462922L955.3567447916666,322.9118365049362L959.8210286458333,331.1667482405901L964.2853124999999,348.5549668073654L968.7495963541666,352.16666097939014L973.2138802083332,354.1362595036626L977.6781640625,350.2438160777092L982.1424479166666,363.79823337867856" style="fill: none;" fill="none"></path></g><g><path stroke="rgb(0, 119, 187)" stroke-width="2px" d="M89.28567708333333,71.48762315511703L133.928515625,286.8528136610985L178.57135416666665,295.64759561419487L223.21419270833331,298.47225596010685L267.85703125,288.7383399307728L312.49986979166664,297.97746247053146L357.1427083333333,292.39632987976074L401.78554687499997,297.965648368001L446.42838541666663,296.2516597211361L491.0712239583333,290.175952732563L535.7140625,302.0486314147711L580.3569010416666,297.732478544116L624.9997395833333,301.9388832896948L669.642578125,300.426346719265L714.2854166666666,304.6774293333292L758.9282552083333,294.01986733078957L803.5710937499999,299.04674829542637L848.2139322916665,299.457607164979L892.8567708333333,299.52066065371037L937.4996093749999,289.66972152888775L982.1424479166666,294.8680389970541" style="fill: none;" fill="none"></path></g></g></g></g></g></g><g transform="translate(41, 377)" clip-path="url(#clip_1)"><clipPath id="clip_1"><rect width="1071" height="23"></rect></clipPath><g><g><line x1="0" y1="0" x2="0" y2="5" style="visibility: inherit;" fill="rgb(0, 0, 0)" stroke="rgb(204, 204, 204)" stroke-width="1px"></line><line x1="89.28567708333333" y1="0" x2="89.28567708333333" y2="5" style="visibility: inherit;" fill="rgb(0, 0, 0)" stroke="rgb(204, 204, 204)" stroke-width="1px"></line><line x1="178.57135416666665" y1="0" x2="178.57135416666665" y2="5" style="visibility: inherit;" fill="rgb(0, 0, 0)" stroke="rgb(204, 204, 204)" stroke-width="1px"></line><line x1="267.85703125" y1="0" x2="267.85703125" y2="5" style="visibility: inherit;" fill="rgb(0, 0, 0)" stroke="rgb(204, 204, 204)" stroke-width="1px"></line><line x1="357.1427083333333" y1="0" x2="357.1427083333333" y2="5" style="visibility: inherit;" fill="rgb(0, 0, 0)" stroke="rgb(204, 204, 204)" stroke-width="1px"></line><line x1="446.42838541666663" y1="0" x2="446.42838541666663" y2="5" style="visibility: inherit;" fill="rgb(0, 0, 0)" stroke="rgb(204, 204, 204)" stroke-width="1px"></line><line x1="535.7140625" y1="0" x2="535.7140625" y2="5" style="visibility: inherit;" fill="rgb(0, 0, 0)" stroke="rgb(204, 204, 204)" stroke-width="1px"></line><line x1="624.9997395833333" y1="0" x2="624.9997395833333" y2="5" style="visibility: inherit;" fill="rgb(0, 0, 0)" stroke="rgb(204, 204, 204)" stroke-width="1px"></line><line x1="714.2854166666666" y1="0" x2="714.2854166666666" y2="5" style="visibility: inherit;" fill="rgb(0, 0, 0)" stroke="rgb(204, 204, 204)" stroke-width="1px"></line><line x1="803.5710937499999" y1="0" x2="803.5710937499999" y2="5" style="visibility: inherit;" fill="rgb(0, 0, 0)" stroke="rgb(204, 204, 204)" stroke-width="1px"></line><line x1="892.8567708333333" y1="0" x2="892.8567708333333" y2="5" style="visibility: inherit;" fill="rgb(0, 0, 0)" stroke="rgb(204, 204, 204)" stroke-width="1px"></line><line x1="982.1424479166666" y1="0" x2="982.1424479166666" y2="5" style="visibility: inherit;" fill="rgb(0, 0, 0)" stroke="rgb(204, 204, 204)" stroke-width="1px"></line><line x1="1071.428125" y1="0" x2="1071.428125" y2="5" style="visibility: inherit;" fill="rgb(0, 0, 0)" stroke="rgb(204, 204, 204)" stroke-width="1px"></line></g><g transform="translate(0, 8)"><text x="0" y="0" dx="0em" dy="0.95em" style="text-anchor: middle; visibility: hidden; font-family: Roboto, sans-serif; font-size: 12px; font-weight: 200;" fill="rgb(33, 33, 33)" stroke="none" stroke-width="1px">-2k</text><text x="89.28567708333333" y="0" dx="0em" dy="0.95em" style="text-anchor: middle; visibility: inherit; font-family: Roboto, sans-serif; font-size: 12px; font-weight: 200;" fill="rgb(33, 33, 33)" stroke="none" stroke-width="1px">0</text><text x="178.57135416666665" y="0" dx="0em" dy="0.95em" style="text-anchor: middle; visibility: inherit; font-family: Roboto, sans-serif; font-size: 12px; font-weight: 200;" fill="rgb(33, 33, 33)" stroke="none" stroke-width="1px">2k</text><text x="267.85703125" y="0" dx="0em" dy="0.95em" style="text-anchor: middle; visibility: inherit; font-family: Roboto, sans-serif; font-size: 12px; font-weight: 200;" fill="rgb(33, 33, 33)" stroke="none" stroke-width="1px">4k</text><text x="357.1427083333333" y="0" dx="0em" dy="0.95em" style="text-anchor: middle; visibility: inherit; font-family: Roboto, sans-serif; font-size: 12px; font-weight: 200;" fill="rgb(33, 33, 33)" stroke="none" stroke-width="1px">6k</text><text x="446.42838541666663" y="0" dx="0em" dy="0.95em" style="text-anchor: middle; visibility: inherit; font-family: Roboto, sans-serif; font-size: 12px; font-weight: 200;" fill="rgb(33, 33, 33)" stroke="none" stroke-width="1px">8k</text><text x="535.7140625" y="0" dx="0em" dy="0.95em" style="text-anchor: middle; visibility: inherit; font-family: Roboto, sans-serif; font-size: 12px; font-weight: 200;" fill="rgb(33, 33, 33)" stroke="none" stroke-width="1px">10k</text><text x="624.9997395833333" y="0" dx="0em" dy="0.95em" style="text-anchor: middle; visibility: inherit; font-family: Roboto, sans-serif; font-size: 12px; font-weight: 200;" fill="rgb(33, 33, 33)" stroke="none" stroke-width="1px">12k</text><text x="714.2854166666666" y="0" dx="0em" dy="0.95em" style="text-anchor: middle; visibility: inherit; font-family: Roboto, sans-serif; font-size: 12px; font-weight: 200;" fill="rgb(33, 33, 33)" stroke="none" stroke-width="1px">14k</text><text x="803.5710937499999" y="0" dx="0em" dy="0.95em" style="text-anchor: middle; visibility: inherit; font-family: Roboto, sans-serif; font-size: 12px; font-weight: 200;" fill="rgb(33, 33, 33)" stroke="none" stroke-width="1px">16k</text><text x="892.8567708333333" y="0" dx="0em" dy="0.95em" style="text-anchor: middle; visibility: inherit; font-family: Roboto, sans-serif; font-size: 12px; font-weight: 200;" fill="rgb(33, 33, 33)" stroke="none" stroke-width="1px">18k</text><text x="982.1424479166666" y="0" dx="0em" dy="0.95em" style="text-anchor: middle; visibility: inherit; font-family: Roboto, sans-serif; font-size: 12px; font-weight: 200;" fill="rgb(33, 33, 33)" stroke="none" stroke-width="1px">20k</text><text x="1071.428125" y="0" dx="0em" dy="0.95em" style="text-anchor: middle; visibility: hidden; font-family: Roboto, sans-serif; font-size: 12px; font-weight: 200;" fill="rgb(33, 33, 33)" stroke="none" stroke-width="1px">22k</text></g><line x1="0" y1="0" x2="1071.428125" y2="0" fill="rgb(0, 0, 0)" stroke="rgb(204, 204, 204)" stroke-width="1px"></line></g></g></g></g></svg>