<svg viewBox="0 0 1112.5999755859375 400" xmlns="http://www.w3.org/2000/svg"><g><g><g><g><g><line x1="51.5625" y1="377" x2="46.5625" y2="377" style="visibility: inherit;" fill="rgb(0, 0, 0)" stroke="rgb(204, 204, 204)" stroke-width="1px"></line><line x1="51.5625" y1="335.1111111111111" x2="46.5625" y2="335.1111111111111" style="visibility: inherit;" fill="rgb(0, 0, 0)" stroke="rgb(204, 204, 204)" stroke-width="1px"></line><line x1="51.5625" y1="293.22222222222223" x2="46.5625" y2="293.22222222222223" style="visibility: inherit;" fill="rgb(0, 0, 0)" stroke="rgb(204, 204, 204)" stroke-width="1px"></line><line x1="51.5625" y1="251.33333333333331" x2="46.5625" y2="251.33333333333331" style="visibility: inherit;" fill="rgb(0, 0, 0)" stroke="rgb(204, 204, 204)" stroke-width="1px"></line><line x1="51.5625" y1="209.44444444444446" x2="46.5625" y2="209.44444444444446" style="visibility: inherit;" fill="rgb(0, 0, 0)" stroke="rgb(204, 204, 204)" stroke-width="1px"></line><line x1="51.5625" y1="167.55555555555554" x2="46.5625" y2="167.55555555555554" style="visibility: inherit;" fill="rgb(0, 0, 0)" stroke="rgb(204, 204, 204)" stroke-width="1px"></line><line x1="51.5625" y1="125.66666666666669" x2="46.5625" y2="125.66666666666669" style="visibility: inherit;" fill="rgb(0, 0, 0)" stroke="rgb(204, 204, 204)" stroke-width="1px"></line><line x1="51.5625" y1="83.77777777777781" x2="46.5625" y2="83.77777777777781" style="visibility: inherit;" fill="rgb(0, 0, 0)" stroke="rgb(204, 204, 204)" stroke-width="1px"></line><line x1="51.5625" y1="41.88888888888891" x2="46.5625" y2="41.88888888888891" style="visibility: inherit;" fill="rgb(0, 0, 0)" stroke="rgb(204, 204, 204)" stroke-width="1px"></line><line x1="51.5625" y1="0" x2="46.5625" y2="0" style="visibility: inherit;" fill="rgb(0, 0, 0)" stroke="rgb(204, 204, 204)" stroke-width="1px"></line></g><g transform="translate(41.5625, 0)"><text x="0" y="377" dx="0em" dy="0.3em" style="text-anchor: end; visibility: hidden; font-family: Roboto, sans-serif; font-size: 12px; font-weight: 200;" fill="rgb(33, 33, 33)" stroke="none" stroke-width="1px">-0.1</text><text x="0" y="335.1111111111111" dx="0em" dy="0.3em" style="text-anchor: end; visibility: inherit; font-family: Roboto, sans-serif; font-size: 12px; font-weight: 200;" fill="rgb(33, 33, 33)" stroke="none" stroke-width="1px">0</text><text x="0" y="293.22222222222223" dx="0em" dy="0.3em" style="text-anchor: end; visibility: inherit; font-family: Roboto, sans-serif; font-size: 12px; font-weight: 200;" fill="rgb(33, 33, 33)" stroke="none" stroke-width="1px">0.1</text><text x="0" y="251.33333333333331" dx="0em" dy="0.3em" style="text-anchor: end; visibility: inherit; font-family: Roboto, sans-serif; font-size: 12px; font-weight: 200;" fill="rgb(33, 33, 33)" stroke="none" stroke-width="1px">0.2</text><text x="0" y="209.44444444444446" dx="0em" dy="0.3em" style="text-anchor: end; visibility: inherit; font-family: Roboto, sans-serif; font-size: 12px; font-weight: 200;" fill="rgb(33, 33, 33)" stroke="none" stroke-width="1px">0.3</text><text x="0" y="167.55555555555554" dx="0em" dy="0.3em" style="text-anchor: end; visibility: inherit; font-family: Roboto, sans-serif; font-size: 12px; font-weight: 200;" fill="rgb(33, 33, 33)" stroke="none" stroke-width="1px">0.4</text><text x="0" y="125.66666666666669" dx="0em" dy="0.3em" style="text-anchor: end; visibility: inherit; font-family: Roboto, sans-serif; font-size: 12px; font-weight: 200;" fill="rgb(33, 33, 33)" stroke="none" stroke-width="1px">0.5</text><text x="0" y="83.77777777777781" dx="0em" dy="0.3em" style="text-anchor: end; visibility: inherit; font-family: Roboto, sans-serif; font-size: 12px; font-weight: 200;" fill="rgb(33, 33, 33)" stroke="none" stroke-width="1px">0.6</text><text x="0" y="41.88888888888891" dx="0em" dy="0.3em" style="text-anchor: end; visibility: inherit; font-family: Roboto, sans-serif; font-size: 12px; font-weight: 200;" fill="rgb(33, 33, 33)" stroke="none" stroke-width="1px">0.7</text><text x="0" y="0" dx="0em" dy="0.3em" style="text-anchor: end; visibility: hidden; font-family: Roboto, sans-serif; font-size: 12px; font-weight: 200;" fill="rgb(33, 33, 33)" stroke="none" stroke-width="1px">0.8</text></g><line x1="51.5625" y1="0" x2="51.5625" y2="377" fill="rgb(0, 0, 0)" stroke="rgb(204, 204, 204)" stroke-width="1px"></line></g></g><g transform="translate(51, 0)" clip-path="url(#clip_0)"><clipPath id="clip_0"><rect width="1061" height="377"></rect></clipPath><g><g><g><line x1="0" y1="0" x2="0" y2="377" fill="rgb(0, 0, 0)" stroke="rgb(66, 66, 66)" stroke-width="1px" opacity="0.25"></line><line x1="88.41979166666665" y1="0" x2="88.41979166666665" y2="377" fill="rgb(0, 0, 0)" stroke="rgb(66, 66, 66)" stroke-width="1px" opacity="0.25"></line><line x1="176.8395833333333" y1="0" x2="176.8395833333333" y2="377" fill="rgb(0, 0, 0)" stroke="rgb(66, 66, 66)" stroke-width="1px" opacity="0.25"></line><line x1="265.259375" y1="0" x2="265.259375" y2="377" fill="rgb(0, 0, 0)" stroke="rgb(66, 66, 66)" stroke-width="1px" opacity="0.25"></line><line x1="353.6791666666666" y1="0" x2="353.6791666666666" y2="377" fill="rgb(0, 0, 0)" stroke="rgb(66, 66, 66)" stroke-width="1px" opacity="0.25"></line><line x1="442.0989583333333" y1="0" x2="442.0989583333333" y2="377" fill="rgb(0, 0, 0)" stroke="rgb(66, 66, 66)" stroke-width="1px" opacity="0.25"></line><line x1="530.51875" y1="0" x2="530.51875" y2="377" fill="rgb(0, 0, 0)" stroke="rgb(66, 66, 66)" stroke-width="1px" opacity="0.25"></line><line x1="618.9385416666667" y1="0" x2="618.9385416666667" y2="377" fill="rgb(0, 0, 0)" stroke="rgb(66, 66, 66)" stroke-width="1px" opacity="0.25"></line><line x1="707.3583333333332" y1="0" x2="707.3583333333332" y2="377" fill="rgb(0, 0, 0)" stroke="rgb(66, 66, 66)" stroke-width="1px" opacity="0.25"></line><line x1="795.7781249999999" y1="0" x2="795.7781249999999" y2="377" fill="rgb(0, 0, 0)" stroke="rgb(66, 66, 66)" stroke-width="1px" opacity="0.25"></line><line x1="884.1979166666666" y1="0" x2="884.1979166666666" y2="377" fill="rgb(0, 0, 0)" stroke="rgb(66, 66, 66)" stroke-width="1px" opacity="0.25"></line><line x1="972.6177083333332" y1="0" x2="972.6177083333332" y2="377" fill="rgb(0, 0, 0)" stroke="rgb(66, 66, 66)" stroke-width="1px" opacity="0.25"></line><line x1="1061.0375" y1="0" x2="1061.0375" y2="377" fill="rgb(0, 0, 0)" stroke="rgb(66, 66, 66)" stroke-width="1px" opacity="0.25"></line></g><g><line x1="0" y1="377" x2="1061.0375" y2="377" fill="rgb(0, 0, 0)" stroke="rgb(66, 66, 66)" stroke-width="1px" opacity="0.25"></line><line x1="0" y1="335.1111111111111" x2="1061.0375" y2="335.1111111111111" fill="rgb(0, 0, 0)" stroke="rgb(66, 66, 66)" stroke-width="1px" opacity="0.25"></line><line x1="0" y1="293.22222222222223" x2="1061.0375" y2="293.22222222222223" fill="rgb(0, 0, 0)" stroke="rgb(66, 66, 66)" stroke-width="1px" opacity="0.25"></line><line x1="0" y1="251.33333333333331" x2="1061.0375" y2="251.33333333333331" fill="rgb(0, 0, 0)" stroke="rgb(66, 66, 66)" stroke-width="1px" opacity="0.25"></line><line x1="0" y1="209.44444444444446" x2="1061.0375" y2="209.44444444444446" fill="rgb(0, 0, 0)" stroke="rgb(66, 66, 66)" stroke-width="1px" opacity="0.25"></line><line x1="0" y1="167.55555555555554" x2="1061.0375" y2="167.55555555555554" fill="rgb(0, 0, 0)" stroke="rgb(66, 66, 66)" stroke-width="1px" opacity="0.25"></line><line x1="0" y1="125.66666666666669" x2="1061.0375" y2="125.66666666666669" fill="rgb(0, 0, 0)" stroke="rgb(66, 66, 66)" stroke-width="1px" opacity="0.25"></line><line x1="0" y1="83.77777777777781" x2="1061.0375" y2="83.77777777777781" fill="rgb(0, 0, 0)" stroke="rgb(66, 66, 66)" stroke-width="1px" opacity="0.25"></line><line x1="0" y1="41.88888888888891" x2="1061.0375" y2="41.88888888888891" fill="rgb(0, 0, 0)" stroke="rgb(66, 66, 66)" stroke-width="1px" opacity="0.25"></line><line x1="0" y1="0" x2="1061.0375" y2="0" fill="rgb(0, 0, 0)" stroke="rgb(66, 66, 66)" stroke-width="1px" opacity="0.25"></line></g></g></g><g><g><line x1="0" y1="335.1111111111111" x2="1061.0375" y2="335.1111111111111" fill="rgb(0, 0, 0)" stroke="rgb(153, 153, 153)" stroke-width="1.5px"></line></g></g><g><g><line x1="88.41979166666665" y1="0" x2="88.41979166666665" y2="377" fill="rgb(0, 0, 0)" stroke="rgb(153, 153, 153)" stroke-width="1.5px"></line></g></g><g><g><g><g><g><path stroke="rgb(255, 112, 67)" stroke-width="2px" d="M92.84078124999999,128.3197244736883L97.26177083333332,177.9004824006998L101.68276041666667,219.15029852128978L106.10374999999999,239.71691537256416L110.52473958333333,253.48196599072523L114.94572916666667,264.688574627549L119.36671874999999,275.64934628706857L123.78770833333333,284.1352793230355L128.20869791666667,288.4270709546227L132.6296875,294.0391560815211L137.05067708333334,298.0936873654466L141.47166666666666,301.0656674762954L145.89265625,304.174718757996L150.3136458333333,305.82818468326695L154.73463541666666,308.1288935088427L159.155625,307.07770782485926L163.57661458333334,307.43666699273524L167.99760416666663,309.6148815968166L172.41859374999999,311.51079750669106L176.8395833333333,312.8320033071163L181.26057291666666,314.12565928387403L185.68156249999998,315.145633110231L190.1025520833333,316.4472521278536L194.52354166666663,317.5431692308668L198.94453124999998,317.56539354582503L203.36552083333333,318.5083520148229L207.78651041666666,319.2630783054073L212.20749999999998,319.8464548343189L216.6284895833333,320.7516989058659L221.04947916666666,320.77418118403006L225.47046874999998,321.5977194150008L229.89145833333333,322.21109479272474L234.31244791666663,322.3961288105579L238.73343749999998,322.94255243829923L243.1544270833333,323.39523892861115L247.57541666666665,323.52715995118945L251.99640624999998,323.7123880718281L256.41739583333333,324.28505480812464L260.83838541666665,324.2362506973875L265.259375,324.64716921622784L269.6803645833333,325.10810335691775L274.1013541666667,325.5013356303403L278.52234375,325.8007041582623L282.9433333333333,326.2037520111299L287.3643229166666,326.5458809012488L291.7853125,326.7494235043386L296.2063020833333,327.02479143211855L300.6272916666666,326.977901015263L305.04828124999995,326.7692152004327L309.4692708333333,326.88688870407833L313.89026041666665,327.2691363914782L318.31125,326.9730741447914L322.7322395833333,327.0826074393842L327.1532291666667,326.88268310298514L331.57421875,327.23982986789383L335.99520833333327,327.0711151433802L340.41619791666665,327.45456749967053L344.83718749999997,327.6010163779969L349.2581770833333,327.9115427357896L353.6791666666666,327.8694132703873L358.10015625,327.64500999117513L362.5211458333333,327.8290260265108L366.94213541666664,327.6048478499171L371.36312499999997,327.34844233758184L375.78411458333335,327.6767953697146L380.2051041666666,327.94525660663624L384.62609374999994,328.20055461575515L389.04708333333326,327.17030100740703L393.46807291666664,327.51923815116345L397.88906249999997,327.8822161634978L402.3100520833333,327.7961790991772L406.73104166666667,327.95936398837443L411.15203125,327.76848680937377L415.5730208333333,327.8149473976447L419.9940104166666,327.90033277267776L424.41499999999996,328.2175874520225L428.8359895833333,328.5135599771383L433.2569791666666,328.4831338913774L437.67796874999993,328.77099808923225L442.0989583333333,328.48912229535256L446.51994791666664,328.16634291710596L450.94093749999996,327.8982869459996L455.3619270833333,328.1699933733316L459.78291666666667,328.4209985213119L464.20390624999993,328.163154169091L468.62489583333326,327.57192324529944L473.04588541666664,327.7619495577854L477.46687499999996,328.1013206275721L481.8878645833333,328.36589238673224L486.3088541666666,327.7900983396438L490.72984375,327.6669157670994L495.1508333333333,327.67269253363673L499.57182291666663,327.1346138186664L503.99281249999996,327.4693012843965L508.41380208333334,327.6073316891141L512.8347916666667,327.75358449629994L517.2557812499999,328.10694075407633L521.6767708333333,327.1696755254797L526.0977604166667,326.99564695648957L530.51875,327.22033203768655L534.9397395833332,327.12344206019185L539.3607291666666,326.9893612977851L543.7817187499999,327.23819668617796L548.2027083333334,327.32252094433665L552.6236979166666,327.6968218050052L557.0446875,327.6209685202398L561.4656770833333,327.33775688173836L565.8866666666667,326.4479763237545L570.3076562499999,326.8705085286454L574.7286458333332,327.07775773000503L579.1496354166666,327.45336396248314L583.570625,326.8403900515399L587.9916145833333,327.12855251322435L592.4126041666666,327.3279952940643L596.83359375,327.5075717209852L601.2545833333332,327.7417176886044L605.6755729166666,327.7803862705076L610.0965624999999,327.9798873227738L614.5175520833334,328.00867077080466L618.9385416666667,327.88750873994405L623.3595312499999,327.6005646994397L627.7805208333333,327.56467605306904L632.2015104166666,326.483782957939L636.6225,326.8472642843146L641.0434895833332,327.11489590027827L645.4644791666666,326.9183660983446L649.88546875,327.3004407869052L654.3064583333334,327.62897071662513L658.7274479166666,327.97438662230877L663.1484375,327.58833377963805L667.5694270833333,326.5937719029395L671.9904166666665,326.99318704217944L676.4114062499999,327.3640781126285L680.8323958333333,327.73949760446334L685.2533854166667,327.54660521309734L689.6743749999999,327.6893562469616L694.0953645833333,327.84983521597337L698.5163541666666,327.9496656233983L702.93734375,328.22613910237845L707.3583333333332,328.54003756331247L711.7793229166665,328.63989524923943L716.2003125,328.82481620052414L720.6213020833333,329.1203589703692L725.0422916666666,329.382993563395L729.4632812499999,329.1033204244703L733.8842708333333,329.02917229835066L738.3052604166666,327.85385642742494L742.7262499999999,328.19569484081785L747.1472395833333,328.5129932112862L751.5682291666667,328.8078101518943L755.98921875,329.01242349880795L760.4102083333332,328.5941485728768L764.8311979166666,328.6901430998149L769.2521874999999,328.96650886562213L773.6731770833333,329.2078725485913L778.0941666666665,328.57984803115244L782.51515625,328.82967314057345L786.9361458333333,329.10846424265145L791.3571354166667,329.395401819489L795.7781249999999,329.65658358064826L800.1991145833332,329.7624225138015L804.6201041666666,329.64718791645214L809.0410937499998,329.79951549752843L813.4620833333333,330.0124400678188L817.8830729166666,330.2549798900008L822.3040625,330.4775795830365L826.7250520833333,330.68465523914006L831.1460416666666,330.8103365137107L835.5670312499999,330.7247154869551L839.9880208333332,330.7046685169847L844.4090104166665,330.4452877461193L848.8299999999999,329.83322117360984L853.2509895833333,329.2378661068152L857.6719791666666,328.6838025535843L862.09296875,327.73968429771975L866.5139583333332,327.981800001812L870.9349479166666,328.27500644634455L875.3559374999999,328.58160370668884L879.7769270833334,327.23817623646147L884.1979166666666,327.1531081109515L888.6189062499999,327.36953527214746L893.0398958333333,327.2909623655153L897.4608854166665,327.65755826364693L901.8818749999999,327.9792463031116L906.3028645833332,328.066913853425L910.7238541666666,327.78798387238237L915.14484375,327.6349462231013L919.5658333333333,327.10060664303666L923.9868229166666,327.1029447287555L928.4078124999999,327.17391776737577L932.8288020833332,327.52762950781664L937.2497916666665,327.89179194005715L941.6707812499999,328.22889427928874L946.0917708333333,328.4924157117162L950.5127604166667,328.6019036724802L954.9337499999999,328.3210145380546L959.3547395833333,328.6431043056843L963.7757291666666,328.9397205227724L968.19671875,328.9418297582048L972.6177083333332,329.23508037462653" style="fill: none;" fill="none"></path></g><g><path stroke="rgb(0, 119, 187)" stroke-width="2px" d="M88.41979166666665,43.71890317069163L132.6296875,187.8216509780397L176.8395833333333,236.50265200371976L221.04947916666666,260.9365858720883L265.259375,275.489104367569L309.4692708333333,285.3591839409383L353.6791666666666,292.42356260674944L397.88906249999997,297.7035337843425L442.0989583333333,301.8295521874303L486.3088541666666,305.17096843315704L530.51875,307.8205023127994L574.7286458333332,310.02390320069776L618.9385416666667,312.0109093962596L663.1484375,313.7592038991102L707.3583333333332,315.27400637786684L751.5682291666667,316.499678859635L795.7781249999999,317.4447187607761L839.9880208333332,318.31854121844157L884.1979166666666,319.2332369981307L928.4078124999999,320.0667868192684L972.6177083333332,320.73921130831053" style="fill: none;" fill="none"></path></g></g></g></g><g opacity="0.2"><g><g><g><path stroke="rgb(255, 112, 67)" stroke-width="2px" d="M92.84078124999999,128.31972447368838L97.26177083333332,225.0022024313609L101.68276041666667,295.56558288468256L106.10374999999999,295.4498762124115L110.52473958333333,301.99525229467287L114.94572916666667,312.85639612045554L119.36671874999999,330.81769494174256L123.78770833333333,332.7731799141814L128.20869791666667,315.87312910540237L132.6296875,333.4655200601038L137.05067708333334,329.0054263913383L141.47166666666666,325.4145009178254L145.89265625,331.3265558708873L150.3136458333333,321.11695805191994L154.73463541666666,330.5243967539734L159.155625,296.3582768936952L163.57661458333334,311.2551286303335L167.99760416666663,333.6965984860435L172.41859374999999,333.2245858204034L176.8395833333333,328.46223991405634L181.26057291666666,329.8937311762323L185.68156249999998,327.9252208545804L190.1025520833333,333.17678257812645L194.52354166666663,331.9656788748172L198.94453124999998,317.8643596652481L203.36552083333333,331.4547928292304L207.78651041666666,329.82405250209075L212.20749999999998,328.15575642759603L216.6284895833333,333.8608000845545L221.04947916666666,321.1048331012328L225.47046874999998,333.8864444722939L229.89145833333333,331.4888698704955L234.31244791666663,325.2307540782624L238.73343749999998,331.41403536146714L243.1544270833333,330.49260816060837L247.57541666666665,325.61737147304746L251.99640624999998,326.67644456277293L256.41739583333333,333.534816708571L260.83838541666665,323.44101304643686L265.259375,331.39846057362024L269.6803645833333,332.74037486138855L274.1013541666667,332.06058977420133L278.52234375,330.82899907852214L282.9433333333333,333.0178889615668L287.3643229166666,332.36590211838484L291.7853125,330.232166716622L296.2063020833333,331.7625250919825L300.6272916666666,326.16693837402596L305.04828124999995,323.14223366313513L309.4692708333333,328.9415975767705L313.89026041666665,333.97301371380064L318.31125,321.75907952338457L322.7322395833333,329.01922027828795L327.1532291666667,323.3347145244479L331.57421875,333.60033835429283L335.99520833333327,324.05639096515046L340.41619791666665,334.3280771728088L344.83718749999997,330.23402993298237L349.2581770833333,333.51036696787924L353.6791666666666,327.10777134779426L358.10015625,323.577773751484L362.5211458333333,331.17231034715144L366.94213541666664,323.5225591916177L371.36312499999997,322.66916552599935L375.78411458333335,333.68140084736257L380.2051041666666,332.8641884364188L384.62609374999994,332.88694651631846L389.04708333333326,308.2252485785219L393.46807291666664,333.9464128476878L397.88906249999997,334.5785529352983L402.3100520833333,326.20656605230437L406.73104166666667,330.9786294746316L411.15203125,324.23210365946096L415.5730208333333,328.6768218920463L419.9940104166666,329.48620604392556L424.41499999999996,334.1167697702638L428.8359895833333,334.02301323796723L433.2569791666666,327.9161739560465L437.67796874999993,334.1403297432181L442.0989583333333,323.22658789695964L446.51994791666664,322.1348203536537L450.94093749999996,322.88513165215653L455.3619270833333,333.2554689436737L459.78291666666667,333.12256653213666L464.20390624999993,323.3300127900309L468.62489583333326,316.4820903191964L473.04588541666664,331.3286168784317L477.46687499999996,334.4750036424957L481.8878645833333,333.33767829400796L486.3088541666666,316.96388467566834L490.72984375,325.34959029861625L495.1508333333333,327.7814200317694L499.57182291666663,317.0023552560144L503.99281249999996,333.7744507735802L508.41380208333334,330.2087867843608L512.8347916666667,330.51112601885364L517.2557812499999,334.7719082277294L521.6767708333333,309.4846080640952L526.0977604166667,323.71079553994866L530.51875,331.4627434886578L534.9397395833332,325.293431646708L539.3607291666666,324.45615542680025L543.7817187499999,331.9408067309608L548.2027083333334,328.9165490983675L552.6236979166666,334.7742432706679L557.0446875,326.18635858140055L561.4656770833333,321.98015466994707L565.8866666666667,309.612043324444L570.3076562499999,334.867087603288L574.7286458333332,331.0007992525482L579.1496354166666,334.5645845668753L583.570625,315.23310648318795L587.9916145833333,332.58612329078215L592.4126041666666,331.10589113127855L596.83359375,330.90967252374526L601.2545833333332,332.17828840265673L605.6755729166666,328.51317485007974L610.0965624999999,331.7610239076118L614.5175520833334,328.5542701623506L618.9385416666667,325.59057330340147L623.3595312499999,322.1601992642714L627.7805208333333,326.8841666587525L632.2015104166666,305.9861525048812L636.6225,333.74084226725L641.0434895833332,332.19110601260843L645.4644791666666,323.19043229271966L649.88546875,334.54853388056574L654.3064583333334,333.8617875775219L658.7274479166666,334.5280478634975L663.1484375,320.2631414954861L667.5694270833333,307.7211096700695L671.9904166666665,334.57291310694484L676.4114062499999,334.4029265064229L680.8323958333333,334.86469635858924L685.2533854166667,323.8854432048069L689.6743749999999,330.39895891149837L694.0953645833333,330.8960873513586L698.5163541666666,329.84476010770436L702.93734375,333.4747066218406L707.3583333333332,334.49933166553575L711.7793229166665,330.5357477052344L716.2003125,332.33577465886873L720.6213020833333,334.73181569628L725.0422916666666,334.3697956053333L729.4632812499999,323.79282387428816L733.8842708333333,327.62118732598094L738.3052604166666,305.5353446536594L742.7262499999999,334.687173699391L747.1472395833333,334.53861915858255L751.5682291666667,334.40664591697146L755.98921875,332.8983060502344L760.4102083333332,320.6503643575642L764.8311979166666,330.51328923801583L769.2521874999999,334.2154074924895L773.6731770833333,333.79208091222165L778.0941666666665,316.6515883910987L782.51515625,333.5747606771895L786.9361458333333,334.40381003222944L791.3571354166667,334.84556810777735L795.7781249999999,334.61761225651327L800.1991145833332,331.77281374463604L804.6201041666666,327.458297898372L809.0410937499998,332.69302708500373L813.4620833333333,334.0570608251211L817.8830729166666,334.8622127284373L822.3040625,334.7060811175163L826.7250520833333,334.61830384294603L831.1460416666666,333.19782588258386L835.5670312499999,329.0982103527834L839.9880208333332,330.3238415649782L844.4090104166665,325.51785792989864L848.8299999999999,318.20576051291494L853.2509895833333,317.9277870456378L857.6719791666666,318.15806904021235L862.09296875,309.8038235290183L866.5139583333332,332.58141706997736L870.9349479166666,333.84526011497815L875.3559374999999,334.4062872985378L879.7769270833334,301.7158197760582L884.1979166666666,325.5369800850749L888.6189062499999,331.4812492531621L893.0398958333333,325.79821581476267L897.4608854166665,334.62226566473123L901.8818749999999,334.0908066539301L906.3028645833332,329.73246465064585L910.7238541666666,322.48871520616945L915.14484375,324.72743988492425L919.5658333333333,316.9488478642371L923.9868229166666,327.14736547569436L928.4078124999999,328.5223223997487L932.8288020833332,334.24775912752375L937.2497916666665,334.8104933328771L941.6707812499999,334.633500311265L946.0917708333333,333.4990716088149L950.5127604166667,330.6820757298006L954.9337499999999,322.98436274793414L959.3547395833333,334.76254652619053L963.7757291666666,334.575198238819L968.19671875,328.98190367490884L972.6177083333332,334.8066365023195" style="fill: none;" fill="none"></path></g><g><path stroke="rgb(0, 119, 187)" stroke-width="2px" d="M88.41979166666665,43.71890317069163L132.6296875,324.7192613950206L176.8395833333333,326.6842064037919L221.04947916666666,327.1494924136334L265.259375,326.7777276933193L309.4692708333333,327.7823867508107L353.6791666666666,327.9803753358622L397.88906249999997,327.9661710419589L442.0989583333333,328.2154885849191L486.3088541666666,328.6452903882083L530.51875,328.02054372140105L574.7286458333332,328.0759221319523L618.9385416666667,329.3637491135548L663.1484375,329.92480974996255L707.3583333333332,330.01935939759846L751.5682291666667,328.9984330880559L795.7781249999999,327.497668877244L839.9880208333332,327.9792720745835L884.1979166666666,329.7091818584336L928.4078124999999,329.92791589080457L972.6177083333332,328.9352370492286" style="fill: none;" fill="none"></path></g></g></g></g></g><g><g opacity="0.631471"><span fill="rgb(0, 0, 0)" stroke="none" stroke-width="1px">Alt + Scroll to Zoom</span></g></g></g><g transform="translate(51, 377)" clip-path="url(#clip_1)"><clipPath id="clip_1"><rect width="1061" height="23"></rect></clipPath><g><g><line x1="0" y1="0" x2="0" y2="5" style="visibility: inherit;" fill="rgb(0, 0, 0)" stroke="rgb(204, 204, 204)" stroke-width="1px"></line><line x1="88.41979166666665" y1="0" x2="88.41979166666665" y2="5" style="visibility: inherit;" fill="rgb(0, 0, 0)" stroke="rgb(204, 204, 204)" stroke-width="1px"></line><line x1="176.8395833333333" y1="0" x2="176.8395833333333" y2="5" style="visibility: inherit;" fill="rgb(0, 0, 0)" stroke="rgb(204, 204, 204)" stroke-width="1px"></line><line x1="265.259375" y1="0" x2="265.259375" y2="5" style="visibility: inherit;" fill="rgb(0, 0, 0)" stroke="rgb(204, 204, 204)" stroke-width="1px"></line><line x1="353.6791666666666" y1="0" x2="353.6791666666666" y2="5" style="visibility: inherit;" fill="rgb(0, 0, 0)" stroke="rgb(204, 204, 204)" stroke-width="1px"></line><line x1="442.0989583333333" y1="0" x2="442.0989583333333" y2="5" style="visibility: inherit;" fill="rgb(0, 0, 0)" stroke="rgb(204, 204, 204)" stroke-width="1px"></line><line x1="530.51875" y1="0" x2="530.51875" y2="5" style="visibility: inherit;" fill="rgb(0, 0, 0)" stroke="rgb(204, 204, 204)" stroke-width="1px"></line><line x1="618.9385416666667" y1="0" x2="618.9385416666667" y2="5" style="visibility: inherit;" fill="rgb(0, 0, 0)" stroke="rgb(204, 204, 204)" stroke-width="1px"></line><line x1="707.3583333333332" y1="0" x2="707.3583333333332" y2="5" style="visibility: inherit;" fill="rgb(0, 0, 0)" stroke="rgb(204, 204, 204)" stroke-width="1px"></line><line x1="795.7781249999999" y1="0" x2="795.7781249999999" y2="5" style="visibility: inherit;" fill="rgb(0, 0, 0)" stroke="rgb(204, 204, 204)" stroke-width="1px"></line><line x1="884.1979166666666" y1="0" x2="884.1979166666666" y2="5" style="visibility: inherit;" fill="rgb(0, 0, 0)" stroke="rgb(204, 204, 204)" stroke-width="1px"></line><line x1="972.6177083333332" y1="0" x2="972.6177083333332" y2="5" style="visibility: inherit;" fill="rgb(0, 0, 0)" stroke="rgb(204, 204, 204)" stroke-width="1px"></line><line x1="1061.0375" y1="0" x2="1061.0375" y2="5" style="visibility: inherit;" fill="rgb(0, 0, 0)" stroke="rgb(204, 204, 204)" stroke-width="1px"></line></g><g transform="translate(0, 8)"><text x="0" y="0" dx="0em" dy="0.95em" style="text-anchor: middle; visibility: hidden; font-family: Roboto, sans-serif; font-size: 12px; font-weight: 200;" fill="rgb(33, 33, 33)" stroke="none" stroke-width="1px">-2k</text><text x="88.41979166666665" y="0" dx="0em" dy="0.95em" style="text-anchor: middle; visibility: inherit; font-family: Roboto, sans-serif; font-size: 12px; font-weight: 200;" fill="rgb(33, 33, 33)" stroke="none" stroke-width="1px">0</text><text x="176.8395833333333" y="0" dx="0em" dy="0.95em" style="text-anchor: middle; visibility: inherit; font-family: Roboto, sans-serif; font-size: 12px; font-weight: 200;" fill="rgb(33, 33, 33)" stroke="none" stroke-width="1px">2k</text><text x="265.259375" y="0" dx="0em" dy="0.95em" style="text-anchor: middle; visibility: inherit; font-family: Roboto, sans-serif; font-size: 12px; font-weight: 200;" fill="rgb(33, 33, 33)" stroke="none" stroke-width="1px">4k</text><text x="353.6791666666666" y="0" dx="0em" dy="0.95em" style="text-anchor: middle; visibility: inherit; font-family: Roboto, sans-serif; font-size: 12px; font-weight: 200;" fill="rgb(33, 33, 33)" stroke="none" stroke-width="1px">6k</text><text x="442.0989583333333" y="0" dx="0em" dy="0.95em" style="text-anchor: middle; visibility: inherit; font-family: Roboto, sans-serif; font-size: 12px; font-weight: 200;" fill="rgb(33, 33, 33)" stroke="none" stroke-width="1px">8k</text><text x="530.51875" y="0" dx="0em" dy="0.95em" style="text-anchor: middle; visibility: inherit; font-family: Roboto, sans-serif; font-size: 12px; font-weight: 200;" fill="rgb(33, 33, 33)" stroke="none" stroke-width="1px">10k</text><text x="618.9385416666667" y="0" dx="0em" dy="0.95em" style="text-anchor: middle; visibility: inherit; font-family: Roboto, sans-serif; font-size: 12px; font-weight: 200;" fill="rgb(33, 33, 33)" stroke="none" stroke-width="1px">12k</text><text x="707.3583333333332" y="0" dx="0em" dy="0.95em" style="text-anchor: middle; visibility: inherit; font-family: Roboto, sans-serif; font-size: 12px; font-weight: 200;" fill="rgb(33, 33, 33)" stroke="none" stroke-width="1px">14k</text><text x="795.7781249999999" y="0" dx="0em" dy="0.95em" style="text-anchor: middle; visibility: inherit; font-family: Roboto, sans-serif; font-size: 12px; font-weight: 200;" fill="rgb(33, 33, 33)" stroke="none" stroke-width="1px">16k</text><text x="884.1979166666666" y="0" dx="0em" dy="0.95em" style="text-anchor: middle; visibility: inherit; font-family: Roboto, sans-serif; font-size: 12px; font-weight: 200;" fill="rgb(33, 33, 33)" stroke="none" stroke-width="1px">18k</text><text x="972.6177083333332" y="0" dx="0em" dy="0.95em" style="text-anchor: middle; visibility: inherit; font-family: Roboto, sans-serif; font-size: 12px; font-weight: 200;" fill="rgb(33, 33, 33)" stroke="none" stroke-width="1px">20k</text><text x="1061.0375" y="0" dx="0em" dy="0.95em" style="text-anchor: middle; visibility: hidden; font-family: Roboto, sans-serif; font-size: 12px; font-weight: 200;" fill="rgb(33, 33, 33)" stroke="none" stroke-width="1px">22k</text></g><line x1="0" y1="0" x2="1061.0375" y2="0" fill="rgb(0, 0, 0)" stroke="rgb(204, 204, 204)" stroke-width="1px"></line></g></g></g></g></svg>