<svg viewBox="0 0 330 200" xmlns="http://www.w3.org/2000/svg"><g><g><g><g><g><line x1="51.5625" y1="177" x2="46.5625" y2="177" style="visibility: inherit;" fill="rgb(0, 0, 0)" stroke="rgb(204, 204, 204)" stroke-width="1px"></line><line x1="51.5625" y1="164.35714285714286" x2="46.5625" y2="164.35714285714286" style="visibility: inherit;" fill="rgb(0, 0, 0)" stroke="rgb(204, 204, 204)" stroke-width="1px"></line><line x1="51.5625" y1="151.71428571428572" x2="46.5625" y2="151.71428571428572" style="visibility: inherit;" fill="rgb(0, 0, 0)" stroke="rgb(204, 204, 204)" stroke-width="1px"></line><line x1="51.5625" y1="139.07142857142856" x2="46.5625" y2="139.07142857142856" style="visibility: inherit;" fill="rgb(0, 0, 0)" stroke="rgb(204, 204, 204)" stroke-width="1px"></line><line x1="51.5625" y1="126.42857142857143" x2="46.5625" y2="126.42857142857143" style="visibility: inherit;" fill="rgb(0, 0, 0)" stroke="rgb(204, 204, 204)" stroke-width="1px"></line><line x1="51.5625" y1="113.78571428571429" x2="46.5625" y2="113.78571428571429" style="visibility: inherit;" fill="rgb(0, 0, 0)" stroke="rgb(204, 204, 204)" stroke-width="1px"></line><line x1="51.5625" y1="101.14285714285715" x2="46.5625" y2="101.14285714285715" style="visibility: inherit;" fill="rgb(0, 0, 0)" stroke="rgb(204, 204, 204)" stroke-width="1px"></line><line x1="51.5625" y1="88.5" x2="46.5625" y2="88.5" style="visibility: inherit;" fill="rgb(0, 0, 0)" stroke="rgb(204, 204, 204)" stroke-width="1px"></line><line x1="51.5625" y1="75.85714285714288" x2="46.5625" y2="75.85714285714288" style="visibility: inherit;" fill="rgb(0, 0, 0)" stroke="rgb(204, 204, 204)" stroke-width="1px"></line><line x1="51.5625" y1="63.21428571428572" x2="46.5625" y2="63.21428571428572" style="visibility: inherit;" fill="rgb(0, 0, 0)" stroke="rgb(204, 204, 204)" stroke-width="1px"></line><line x1="51.5625" y1="50.57142857142859" x2="46.5625" y2="50.57142857142859" style="visibility: inherit;" fill="rgb(0, 0, 0)" stroke="rgb(204, 204, 204)" stroke-width="1px"></line><line x1="51.5625" y1="37.92857142857143" x2="46.5625" y2="37.92857142857143" style="visibility: inherit;" fill="rgb(0, 0, 0)" stroke="rgb(204, 204, 204)" stroke-width="1px"></line><line x1="51.5625" y1="25.285714285714274" x2="46.5625" y2="25.285714285714274" style="visibility: inherit;" fill="rgb(0, 0, 0)" stroke="rgb(204, 204, 204)" stroke-width="1px"></line><line x1="51.5625" y1="12.642857142857157" x2="46.5625" y2="12.642857142857157" style="visibility: inherit;" fill="rgb(0, 0, 0)" stroke="rgb(204, 204, 204)" stroke-width="1px"></line><line x1="51.5625" y1="0" x2="46.5625" y2="0" style="visibility: inherit;" fill="rgb(0, 0, 0)" stroke="rgb(204, 204, 204)" stroke-width="1px"></line></g><g transform="translate(41.5625, 0)"><text x="0" y="177" dx="0em" dy="0.3em" style="text-anchor: end; visibility: hidden; font-family: Roboto, sans-serif; font-size: 12px; font-weight: 200;" fill="rgb(33, 33, 33)" stroke="none" stroke-width="1px">-0.1</text><text x="0" y="164.35714285714286" dx="0em" dy="0.3em" style="text-anchor: end; visibility: inherit; font-family: Roboto, sans-serif; font-size: 12px; font-weight: 200;" fill="rgb(33, 33, 33)" stroke="none" stroke-width="1px">0</text><text x="0" y="151.71428571428572" dx="0em" dy="0.3em" style="text-anchor: end; visibility: hidden; font-family: Roboto, sans-serif; font-size: 12px; font-weight: 200;" fill="rgb(33, 33, 33)" stroke="none" stroke-width="1px">0.1</text><text x="0" y="139.07142857142856" dx="0em" dy="0.3em" style="text-anchor: end; visibility: inherit; font-family: Roboto, sans-serif; font-size: 12px; font-weight: 200;" fill="rgb(33, 33, 33)" stroke="none" stroke-width="1px">0.2</text><text x="0" y="126.42857142857143" dx="0em" dy="0.3em" style="text-anchor: end; visibility: hidden; font-family: Roboto, sans-serif; font-size: 12px; font-weight: 200;" fill="rgb(33, 33, 33)" stroke="none" stroke-width="1px">0.3</text><text x="0" y="113.78571428571429" dx="0em" dy="0.3em" style="text-anchor: end; visibility: inherit; font-family: Roboto, sans-serif; font-size: 12px; font-weight: 200;" fill="rgb(33, 33, 33)" stroke="none" stroke-width="1px">0.4</text><text x="0" y="101.14285714285715" dx="0em" dy="0.3em" style="text-anchor: end; visibility: hidden; font-family: Roboto, sans-serif; font-size: 12px; font-weight: 200;" fill="rgb(33, 33, 33)" stroke="none" stroke-width="1px">0.5</text><text x="0" y="88.5" dx="0em" dy="0.3em" style="text-anchor: end; visibility: inherit; font-family: Roboto, sans-serif; font-size: 12px; font-weight: 200;" fill="rgb(33, 33, 33)" stroke="none" stroke-width="1px">0.6</text><text x="0" y="75.85714285714288" dx="0em" dy="0.3em" style="text-anchor: end; visibility: hidden; font-family: Roboto, sans-serif; font-size: 12px; font-weight: 200;" fill="rgb(33, 33, 33)" stroke="none" stroke-width="1px">0.7</text><text x="0" y="63.21428571428572" dx="0em" dy="0.3em" style="text-anchor: end; visibility: inherit; font-family: Roboto, sans-serif; font-size: 12px; font-weight: 200;" fill="rgb(33, 33, 33)" stroke="none" stroke-width="1px">0.8</text><text x="0" y="50.57142857142859" dx="0em" dy="0.3em" style="text-anchor: end; visibility: hidden; font-family: Roboto, sans-serif; font-size: 12px; font-weight: 200;" fill="rgb(33, 33, 33)" stroke="none" stroke-width="1px">0.9</text><text x="0" y="37.92857142857143" dx="0em" dy="0.3em" style="text-anchor: end; visibility: inherit; font-family: Roboto, sans-serif; font-size: 12px; font-weight: 200;" fill="rgb(33, 33, 33)" stroke="none" stroke-width="1px">1</text><text x="0" y="25.285714285714274" dx="0em" dy="0.3em" style="text-anchor: end; visibility: hidden; font-family: Roboto, sans-serif; font-size: 12px; font-weight: 200;" fill="rgb(33, 33, 33)" stroke="none" stroke-width="1px">1.1</text><text x="0" y="12.642857142857157" dx="0em" dy="0.3em" style="text-anchor: end; visibility: inherit; font-family: Roboto, sans-serif; font-size: 12px; font-weight: 200;" fill="rgb(33, 33, 33)" stroke="none" stroke-width="1px">1.2</text><text x="0" y="0" dx="0em" dy="0.3em" style="text-anchor: end; visibility: hidden; font-family: Roboto, sans-serif; font-size: 12px; font-weight: 200;" fill="rgb(33, 33, 33)" stroke="none" stroke-width="1px">1.3</text></g><line x1="51.5625" y1="0" x2="51.5625" y2="177" fill="rgb(0, 0, 0)" stroke="rgb(204, 204, 204)" stroke-width="1px"></line></g></g><g transform="translate(51, 0)" clip-path="url(#clip_0)"><clipPath id="clip_0"><rect width="278" height="177"></rect></clipPath><g><g><g><line x1="0" y1="0" x2="0" y2="177" fill="rgb(0, 0, 0)" stroke="rgb(66, 66, 66)" stroke-width="1px" opacity="0.25"></line><line x1="23.203125" y1="0" x2="23.203125" y2="177" fill="rgb(0, 0, 0)" stroke="rgb(66, 66, 66)" stroke-width="1px" opacity="0.25"></line><line x1="46.40625" y1="0" x2="46.40625" y2="177" fill="rgb(0, 0, 0)" stroke="rgb(66, 66, 66)" stroke-width="1px" opacity="0.25"></line><line x1="69.609375" y1="0" x2="69.609375" y2="177" fill="rgb(0, 0, 0)" stroke="rgb(66, 66, 66)" stroke-width="1px" opacity="0.25"></line><line x1="92.8125" y1="0" x2="92.8125" y2="177" fill="rgb(0, 0, 0)" stroke="rgb(66, 66, 66)" stroke-width="1px" opacity="0.25"></line><line x1="116.015625" y1="0" x2="116.015625" y2="177" fill="rgb(0, 0, 0)" stroke="rgb(66, 66, 66)" stroke-width="1px" opacity="0.25"></line><line x1="139.21875" y1="0" x2="139.21875" y2="177" fill="rgb(0, 0, 0)" stroke="rgb(66, 66, 66)" stroke-width="1px" opacity="0.25"></line><line x1="162.421875" y1="0" x2="162.421875" y2="177" fill="rgb(0, 0, 0)" stroke="rgb(66, 66, 66)" stroke-width="1px" opacity="0.25"></line><line x1="185.625" y1="0" x2="185.625" y2="177" fill="rgb(0, 0, 0)" stroke="rgb(66, 66, 66)" stroke-width="1px" opacity="0.25"></line><line x1="208.828125" y1="0" x2="208.828125" y2="177" fill="rgb(0, 0, 0)" stroke="rgb(66, 66, 66)" stroke-width="1px" opacity="0.25"></line><line x1="232.03125" y1="0" x2="232.03125" y2="177" fill="rgb(0, 0, 0)" stroke="rgb(66, 66, 66)" stroke-width="1px" opacity="0.25"></line><line x1="255.234375" y1="0" x2="255.234375" y2="177" fill="rgb(0, 0, 0)" stroke="rgb(66, 66, 66)" stroke-width="1px" opacity="0.25"></line><line x1="278.4375" y1="0" x2="278.4375" y2="177" fill="rgb(0, 0, 0)" stroke="rgb(66, 66, 66)" stroke-width="1px" opacity="0.25"></line></g><g><line x1="0" y1="177" x2="278.4375" y2="177" fill="rgb(0, 0, 0)" stroke="rgb(66, 66, 66)" stroke-width="1px" opacity="0.25"></line><line x1="0" y1="164.35714285714286" x2="278.4375" y2="164.35714285714286" fill="rgb(0, 0, 0)" stroke="rgb(66, 66, 66)" stroke-width="1px" opacity="0.25"></line><line x1="0" y1="151.71428571428572" x2="278.4375" y2="151.71428571428572" fill="rgb(0, 0, 0)" stroke="rgb(66, 66, 66)" stroke-width="1px" opacity="0.25"></line><line x1="0" y1="139.07142857142856" x2="278.4375" y2="139.07142857142856" fill="rgb(0, 0, 0)" stroke="rgb(66, 66, 66)" stroke-width="1px" opacity="0.25"></line><line x1="0" y1="126.42857142857143" x2="278.4375" y2="126.42857142857143" fill="rgb(0, 0, 0)" stroke="rgb(66, 66, 66)" stroke-width="1px" opacity="0.25"></line><line x1="0" y1="113.78571428571429" x2="278.4375" y2="113.78571428571429" fill="rgb(0, 0, 0)" stroke="rgb(66, 66, 66)" stroke-width="1px" opacity="0.25"></line><line x1="0" y1="101.14285714285715" x2="278.4375" y2="101.14285714285715" fill="rgb(0, 0, 0)" stroke="rgb(66, 66, 66)" stroke-width="1px" opacity="0.25"></line><line x1="0" y1="88.5" x2="278.4375" y2="88.5" fill="rgb(0, 0, 0)" stroke="rgb(66, 66, 66)" stroke-width="1px" opacity="0.25"></line><line x1="0" y1="75.85714285714288" x2="278.4375" y2="75.85714285714288" fill="rgb(0, 0, 0)" stroke="rgb(66, 66, 66)" stroke-width="1px" opacity="0.25"></line><line x1="0" y1="63.21428571428572" x2="278.4375" y2="63.21428571428572" fill="rgb(0, 0, 0)" stroke="rgb(66, 66, 66)" stroke-width="1px" opacity="0.25"></line><line x1="0" y1="50.57142857142859" x2="278.4375" y2="50.57142857142859" fill="rgb(0, 0, 0)" stroke="rgb(66, 66, 66)" stroke-width="1px" opacity="0.25"></line><line x1="0" y1="37.92857142857143" x2="278.4375" y2="37.92857142857143" fill="rgb(0, 0, 0)" stroke="rgb(66, 66, 66)" stroke-width="1px" opacity="0.25"></line><line x1="0" y1="25.285714285714274" x2="278.4375" y2="25.285714285714274" fill="rgb(0, 0, 0)" stroke="rgb(66, 66, 66)" stroke-width="1px" opacity="0.25"></line><line x1="0" y1="12.642857142857157" x2="278.4375" y2="12.642857142857157" fill="rgb(0, 0, 0)" stroke="rgb(66, 66, 66)" stroke-width="1px" opacity="0.25"></line><line x1="0" y1="0" x2="278.4375" y2="0" fill="rgb(0, 0, 0)" stroke="rgb(66, 66, 66)" stroke-width="1px" opacity="0.25"></line></g></g></g><g><g><line x1="0" y1="164.35714285714286" x2="278.4375" y2="164.35714285714286" fill="rgb(0, 0, 0)" stroke="rgb(153, 153, 153)" stroke-width="1.5px"></line></g></g><g><g><line x1="23.203125" y1="0" x2="23.203125" y2="177" fill="rgb(0, 0, 0)" stroke="rgb(153, 153, 153)" stroke-width="1.5px"></line></g></g><g><g><g><g><g><path stroke="rgb(255, 112, 67)" stroke-width="2px" d="M24.36328125,78.04182033879417L25.523437499999996,91.62901993243247L26.683593750000004,94.09459478178715L27.84375,105.92849411379791L29.00390625,101.52765630890214L30.1640625,112.03327975402776L31.32421875,120.38484416780513L32.484375,118.4219883977272L33.64453125,117.37124896259363L34.8046875,121.66436123423566L35.96484375000001,123.20625498791547L37.125,123.12876705981783L38.28515625,125.54910103298974L39.4453125,126.96824871151323L40.60546875,128.96161121917103L41.765625,131.10383548204257L42.92578125,132.3594707976309L44.0859375,132.23693206004128L45.24609375,131.64645351259477L46.40625,133.834965569035L47.56640625,133.1652524336245L48.7265625,133.23960268503313L49.88671875,133.78090752672082L51.04687499999999,135.28726166113407L52.20703125,134.88171621960979L53.36718750000001,136.53513130778097L54.52734375,138.0181078072357L55.6875,139.11848528907814L56.84765625,137.5916708796257L58.0078125,134.30925357652322L59.16796875,135.53416312554916L60.328125,136.03510033375423L61.48828125,136.6476030665263L62.6484375,137.45396821359506L63.80859375,138.72696115901243L64.96875,139.2184758682434L66.12890625,139.71941605155612L67.2890625,139.51265999623647L68.44921875,138.42918350884617L69.609375,138.91961780606002L70.76953125,137.3714567944897L71.92968750000001,138.49149119613244L73.08984375,134.77420488403573L74.25,135.59560679414008L75.41015625,135.69716775371143L76.5703125,133.80807930347953L77.73046875,134.12624970886577L78.890625,134.81518399654564L80.05078125,135.6418100737494L81.2109375,135.02460913542825L82.37109375,135.6495730062959L83.53125,128.85223372811652L84.69140624999999,129.19595119036273L85.8515625,129.59138190428598L87.01171875,128.10316292795608L88.171875,128.1604214811409L89.33203125000001,129.82233170685728L90.4921875,131.2918382708338L91.65234375,132.18765787218047L92.8125,132.53111331238836L93.97265625,133.71667217879457L95.1328125,134.84242643497137L96.29296875,134.04886189397735L97.453125,134.6674778743409L98.61328125,135.65983361043325L99.7734375,136.8577566769931L100.93359375,137.85817792471238L102.09374999999999,138.77054868979022L103.25390625,138.68668135357305L104.4140625,135.41378151542742L105.57421875,136.55042104176596L106.73437500000001,137.30629165560651L107.89453125,138.22892209507802L109.0546875,137.74277816900613L110.21484375,138.87950163532992L111.375,139.80644385748818L112.53515625,140.10916806201087L113.6953125,140.31638164242128L114.85546875,139.91099125510115L116.015625,140.49806527748964L117.17578125,140.99235596910523L118.3359375,140.85245271681654L119.49609374999999,137.59660989093263L120.65625,137.81135314215535L121.81640625,138.64517068507413L122.9765625,138.01509496922702L124.13671875000001,137.96486169987065L125.296875,137.75027753198185L126.45703125,135.17433915069145L127.6171875,136.02088526884972L128.77734375,136.78182296262875L129.9375,136.40994428168918L131.09765625,137.5505742086116L132.2578125,138.4551854429481L133.41796875,137.99866669860947L134.578125,138.9858589237908L135.73828125,139.093182916238L136.8984375,135.14536342988484L138.05859375,136.35312734071357L139.21875,136.64979584650115L140.37890625,136.73185204615066L141.5390625,137.5275460886877L142.69921875,136.95073069129268L143.85937500000003,137.7473497783365L145.01953125,138.94323231055483L146.1796875,139.23383441704135L147.33984375,138.7852706906949L148.5,139.6791349701485L149.66015625,140.59084504200104L150.8203125,141.12479573493178L151.98046874999997,141.7640447225794L153.140625,142.50996275652042L154.30078125,143.24791784885957L155.4609375,141.01829570059454L156.62109375,141.39266050607907L157.78125,141.16733804352293L158.94140625,141.80923525966438L160.1015625,141.2304203300085L161.26171875000003,141.99096804221654L162.421875,142.92786411516175L163.58203125,143.07379115298406L164.7421875,143.58497607429138L165.90234375,144.20727335347934L167.0625,144.99125256329071L168.22265625,143.41742096832215L169.38281249999997,144.31593819218037L170.54296875,143.8268337144232L171.703125,142.86960319299246L172.86328125,142.80638421857782L174.0234375,143.7668367585429L175.18359375,144.68696311915247L176.34375,144.27678460023202L177.50390625,144.7037210300992L178.66406250000003,145.5676744480919L179.82421875,145.86315016041786L180.984375,145.70360252441196L182.14453125,146.07006903714745L183.3046875,146.09591628628544L184.46484375,146.66549193091274L185.625,146.7813214555936L186.78515624999997,147.3344514225693L187.9453125,147.63415812614173L189.10546875,147.09062179824195L190.265625,146.31484405103924L191.42578125,146.86363469991633L192.5859375,147.16471423012683L193.74609375,144.49088623821893L194.90625,145.29871061729736L196.06640625000003,144.80364166691552L197.2265625,145.05074470079282L198.38671875,140.53971188413752L199.546875,140.92220413813476L200.70703125,141.0822836201358L201.8671875,140.74811670100962L203.02734375,141.59514152638627L204.18749999999997,141.43045624183506L205.34765625,142.3607045470486L206.5078125,143.18737073529695L207.66796875,143.3222025465952L208.828125,143.38463751336593L209.98828125,143.88513268678008L211.1484375,143.71291926807336L212.30859375,141.86864255017673L213.46875000000003,140.21930887960374L214.62890625,141.16271573274346L215.7890625,140.77581217783037L216.94921875,141.45339336193356L218.109375,140.56202035871175L219.26953125,140.86100134397606L220.4296875,141.30460424399857L221.58984374999997,141.35080816363535L222.75,141.32861063021494L223.91015625,140.913684333298L225.0703125,141.11754739330277L226.23046875,141.63319143469622L227.390625,142.18599703954706L228.55078125,142.88511785652778L229.7109375,141.79899702062477L230.87109375000003,142.5925602036068L232.03125,143.20342792648262L233.19140625,144.04320820696094L234.3515625,141.386376582651L235.51171875,140.79154244804624L236.671875,141.07708933871763L237.83203125,141.65221059195918L238.99218749999997,142.56869887741627L240.15234375,143.04466936674717L241.3125,143.9596092256654L242.47265625,144.1812672782922L243.6328125,145.037274107882L244.79296875,145.7864520240928L245.953125,146.60009880401265L247.11328125,146.73844297958638L248.27343750000003,146.9211045038098L249.43359375,147.4878477799707L250.59375,147.84831096726901L251.75390625,147.90479211139655L252.9140625,147.69560220105583L254.07421875,146.96668774647625L255.234375,147.65903252492035" style="fill: none;" fill="none"></path></g></g></g></g><g opacity="0.2"><g><g><g><path stroke="rgb(255, 112, 67)" stroke-width="2px" d="M24.36328125,78.04182033879417L25.523437499999996,104.53685954638891L26.683593750000004,98.66207219021662L27.84375,137.99688206613064L29.00390625,86.01742606503623L30.1640625,157.18815320198027L31.32421875,162.4203898121736L32.484375,107.17170119711332L33.64453125,110.65175787040167L34.8046875,151.82459636884076L35.96484375000001,134.96165012036053L37.125,122.49392409835544L38.28515625,146.68626084285123L39.4453125,140.09039831374375L40.60546875,148.36535149812698L41.765625,152.94909591014897L42.92578125,145.7164086124727L44.0859375,130.88217886856626L45.24609375,124.88374525308609L46.40625,159.72567937629563L47.56640625,125.00227475166321L48.7265625,134.17116145363877L49.88671875,140.73822430627686L51.04687499999999,155.11121273466517L52.20703125,129.42623436876707L53.36718750000001,159.23585597851445L54.52734375,158.76957325956653L55.6875,154.79167046185052L56.84765625,115.48142989192691L58.0078125,86.03400467123305L59.16796875,153.81209619769027L60.328125,143.6121614852122L61.48828125,146.03082753079278L62.6484375,149.95545648464133L63.80859375,158.6853675985975L64.96875,147.00623924604486L66.12890625,147.73555850769793L67.2890625,136.17311858066492L68.44921875,120.77449656384331L69.609375,146.9773340693542L70.76953125,111.73659027048521L71.92968750000001,157.1740632706455L73.08984375,72.33740830421449L74.25,149.48265535916602L75.41015625,137.4248410271747L76.5703125,101.48457612735885L77.73046875,139.60040442006928L78.890625,146.73019791713784L80.05078125,150.00865873907296L81.2109375,124.24760152612414L82.37109375,146.6102177905185L83.53125,9.143318346568522L84.69140624999999,135.2730773538351L85.8515625,136.60891550353597L87.01171875,101.59913052831378L88.171875,129.1835612526962L89.33203125000001,159.61261940481407L90.4921875,157.71218881436755L91.65234375,148.3393833722387L92.8125,138.7403082145112L93.97265625,155.20453992592437L95.1328125,155.29562523748194L96.29296875,119.59803722160203L97.453125,145.95692085794042L98.61328125,153.80708399521453L99.7734375,158.80692881558625L100.93359375,156.22246540444237L102.09374999999999,155.54788568615913L103.25390625,137.14190450523583L104.4140625,75.03425770998003L105.57421875,157.55087049837624L106.73437500000001,151.2914962151221L107.89453125,155.32250424474478L109.0546875,128.72448834351133L110.21484375,159.99200903304984L111.375,157.04244232497047L112.53515625,145.7443021173988L113.6953125,144.1776012246098L114.85546875,132.34952492799079L116.015625,151.45855675744158L117.17578125,150.22877458908727L118.3359375,138.23599643366677L119.49609374999999,76.65764236450197L120.65625,141.83370092511177L121.81640625,154.2745922122683L122.9765625,126.1966427564621L124.13671875000001,137.02201669131009L125.296875,133.7202007578952L126.45703125,86.76775871004378L127.6171875,151.93784237865893L128.77734375,151.09667498511928L129.9375,129.41062410388676L131.09765625,159.02913677266667L132.2578125,155.49708167782853L133.41796875,129.39467096328735L134.578125,157.59899602564317L135.73828125,141.11751644100462L136.8984375,60.6547584107944L138.05859375,159.15010266697834L139.21875,142.2513687653201L140.37890625,138.28168933306424L141.5390625,152.56070061347316L142.69921875,126.04979775207383L143.85937500000003,152.8062815793923L145.01953125,161.55542905735118L146.1796875,144.72997965982984L147.33984375,130.2996518611908L148.5,156.5923378765583L149.66015625,157.845297124769L150.8203125,151.23200350999832L151.98046874999997,153.86672082117627L153.140625,156.6346783180322L154.30078125,157.2242079025933L155.4609375,98.78422637496676L156.62109375,148.48505468666553L157.78125,136.89795408291477L158.94140625,153.97350211654393L160.1015625,130.260160867657L161.26171875000003,156.40739127887147L162.421875,160.68911964233433L163.58203125,145.84052020311356L164.7421875,153.27790618900744L165.90234375,156.0082735802446L167.0625,159.85975178916541L168.22265625,113.56631451845169L169.38281249999997,161.35972850184356L170.54296875,134.5483473518065L171.703125,124.70918006556374L172.86328125,141.606915012002L174.0234375,161.9910246349339L175.18359375,162.14714777150323L176.34375,136.49280120645253L177.50390625,152.80620998995644L178.66406250000003,161.96490461698602L179.82421875,151.47137786022256L180.984375,142.67517822555135L182.14453125,153.02642851429326L183.3046875,146.58657820522785L184.46484375,157.4783056564629L185.625,148.98031982353757L186.78515624999997,157.83592456047026L187.9453125,153.3244694652302L189.10546875,136.77052300316947L190.265625,131.58468223469598L191.42578125,157.28419514000416L192.5859375,152.8818574164595L193.74609375,93.71656846148628L194.90625,160.63921850866507L196.06640625000003,135.40207963330406L197.2265625,149.7434509641358L198.38671875,54.869133813040605L199.546875,148.1864118192877L200.70703125,144.12254329664367L201.8671875,134.40142510618483L203.02734375,157.68264168766993L204.18749999999997,138.30253881428925L205.34765625,160.0295035290931L206.5078125,158.88903153687716L207.66796875,145.8832327212606L208.828125,144.5705612897873L209.98828125,153.39194721835L211.1484375,140.44171216658185L212.30859375,106.83601079668318L213.46875000000003,108.8892975492137L214.62890625,159.0834637348141L215.7890625,133.42619613238745L216.94921875,154.32485458999872L218.109375,123.62915922914233L219.26953125,146.54061213561465L220.4296875,149.73161044823271L221.58984374999997,142.22853927101409L222.75,140.90692292792457L223.91015625,133.03124663446633L225.0703125,144.99040318812644L226.23046875,151.42912502161096L227.390625,152.68797626878535L228.55078125,156.16681874756304L229.7109375,121.16505461505483L230.87109375000003,157.66862711363603L232.03125,154.80872005117791L233.19140625,159.99747337933098L234.3515625,90.91126482827323L235.51171875,129.49069123608726L236.671875,146.50202542969157L237.83203125,152.57864412878243L238.99218749999997,159.98065881058574L240.15234375,152.08745864778757L241.3125,161.3422795188214L242.47265625,148.39249708184173L243.6328125,161.30040158278177L244.79296875,160.01999908951777L245.953125,162.05852782114277L247.11328125,149.3668434332524L248.27343750000003,150.39149926070658L249.43359375,158.25545655190945L250.59375,154.69680127182176L251.75390625,148.97788766665118L252.9140625,143.72115640129363L254.07421875,133.11785101251945L255.234375,160.81309794474927" style="fill: none;" fill="none"></path></g></g></g></g></g></g><g transform="translate(51, 177)" clip-path="url(#clip_1)"><clipPath id="clip_1"><rect width="278" height="23"></rect></clipPath><g><g><line x1="0" y1="0" x2="0" y2="5" style="visibility: inherit;" fill="rgb(0, 0, 0)" stroke="rgb(204, 204, 204)" stroke-width="1px"></line><line x1="23.203125" y1="0" x2="23.203125" y2="5" style="visibility: inherit;" fill="rgb(0, 0, 0)" stroke="rgb(204, 204, 204)" stroke-width="1px"></line><line x1="46.40625" y1="0" x2="46.40625" y2="5" style="visibility: inherit;" fill="rgb(0, 0, 0)" stroke="rgb(204, 204, 204)" stroke-width="1px"></line><line x1="69.609375" y1="0" x2="69.609375" y2="5" style="visibility: inherit;" fill="rgb(0, 0, 0)" stroke="rgb(204, 204, 204)" stroke-width="1px"></line><line x1="92.8125" y1="0" x2="92.8125" y2="5" style="visibility: inherit;" fill="rgb(0, 0, 0)" stroke="rgb(204, 204, 204)" stroke-width="1px"></line><line x1="116.015625" y1="0" x2="116.015625" y2="5" style="visibility: inherit;" fill="rgb(0, 0, 0)" stroke="rgb(204, 204, 204)" stroke-width="1px"></line><line x1="139.21875" y1="0" x2="139.21875" y2="5" style="visibility: inherit;" fill="rgb(0, 0, 0)" stroke="rgb(204, 204, 204)" stroke-width="1px"></line><line x1="162.421875" y1="0" x2="162.421875" y2="5" style="visibility: inherit;" fill="rgb(0, 0, 0)" stroke="rgb(204, 204, 204)" stroke-width="1px"></line><line x1="185.625" y1="0" x2="185.625" y2="5" style="visibility: inherit;" fill="rgb(0, 0, 0)" stroke="rgb(204, 204, 204)" stroke-width="1px"></line><line x1="208.828125" y1="0" x2="208.828125" y2="5" style="visibility: inherit;" fill="rgb(0, 0, 0)" stroke="rgb(204, 204, 204)" stroke-width="1px"></line><line x1="232.03125" y1="0" x2="232.03125" y2="5" style="visibility: inherit;" fill="rgb(0, 0, 0)" stroke="rgb(204, 204, 204)" stroke-width="1px"></line><line x1="255.234375" y1="0" x2="255.234375" y2="5" style="visibility: inherit;" fill="rgb(0, 0, 0)" stroke="rgb(204, 204, 204)" stroke-width="1px"></line><line x1="278.4375" y1="0" x2="278.4375" y2="5" style="visibility: inherit;" fill="rgb(0, 0, 0)" stroke="rgb(204, 204, 204)" stroke-width="1px"></line></g><g transform="translate(0, 8)"><text x="0" y="0" dx="0em" dy="0.95em" style="text-anchor: middle; visibility: hidden; font-family: Roboto, sans-serif; font-size: 12px; font-weight: 200;" fill="rgb(33, 33, 33)" stroke="none" stroke-width="1px">-2k</text><text x="23.203125" y="0" dx="0em" dy="0.95em" style="text-anchor: middle; visibility: inherit; font-family: Roboto, sans-serif; font-size: 12px; font-weight: 200;" fill="rgb(33, 33, 33)" stroke="none" stroke-width="1px">0</text><text x="46.40625" y="0" dx="0em" dy="0.95em" style="text-anchor: middle; visibility: hidden; font-family: Roboto, sans-serif; font-size: 12px; font-weight: 200;" fill="rgb(33, 33, 33)" stroke="none" stroke-width="1px">2k</text><text x="69.609375" y="0" dx="0em" dy="0.95em" style="text-anchor: middle; visibility: inherit; font-family: Roboto, sans-serif; font-size: 12px; font-weight: 200;" fill="rgb(33, 33, 33)" stroke="none" stroke-width="1px">4k</text><text x="92.8125" y="0" dx="0em" dy="0.95em" style="text-anchor: middle; visibility: hidden; font-family: Roboto, sans-serif; font-size: 12px; font-weight: 200;" fill="rgb(33, 33, 33)" stroke="none" stroke-width="1px">6k</text><text x="116.015625" y="0" dx="0em" dy="0.95em" style="text-anchor: middle; visibility: inherit; font-family: Roboto, sans-serif; font-size: 12px; font-weight: 200;" fill="rgb(33, 33, 33)" stroke="none" stroke-width="1px">8k</text><text x="139.21875" y="0" dx="0em" dy="0.95em" style="text-anchor: middle; visibility: hidden; font-family: Roboto, sans-serif; font-size: 12px; font-weight: 200;" fill="rgb(33, 33, 33)" stroke="none" stroke-width="1px">10k</text><text x="162.421875" y="0" dx="0em" dy="0.95em" style="text-anchor: middle; visibility: inherit; font-family: Roboto, sans-serif; font-size: 12px; font-weight: 200;" fill="rgb(33, 33, 33)" stroke="none" stroke-width="1px">12k</text><text x="185.625" y="0" dx="0em" dy="0.95em" style="text-anchor: middle; visibility: hidden; font-family: Roboto, sans-serif; font-size: 12px; font-weight: 200;" fill="rgb(33, 33, 33)" stroke="none" stroke-width="1px">14k</text><text x="208.828125" y="0" dx="0em" dy="0.95em" style="text-anchor: middle; visibility: inherit; font-family: Roboto, sans-serif; font-size: 12px; font-weight: 200;" fill="rgb(33, 33, 33)" stroke="none" stroke-width="1px">16k</text><text x="232.03125" y="0" dx="0em" dy="0.95em" style="text-anchor: middle; visibility: hidden; font-family: Roboto, sans-serif; font-size: 12px; font-weight: 200;" fill="rgb(33, 33, 33)" stroke="none" stroke-width="1px">18k</text><text x="255.234375" y="0" dx="0em" dy="0.95em" style="text-anchor: middle; visibility: inherit; font-family: Roboto, sans-serif; font-size: 12px; font-weight: 200;" fill="rgb(33, 33, 33)" stroke="none" stroke-width="1px">20k</text><text x="278.4375" y="0" dx="0em" dy="0.95em" style="text-anchor: middle; visibility: hidden; font-family: Roboto, sans-serif; font-size: 12px; font-weight: 200;" fill="rgb(33, 33, 33)" stroke="none" stroke-width="1px">22k</text></g><line x1="0" y1="0" x2="278.4375" y2="0" fill="rgb(0, 0, 0)" stroke="rgb(204, 204, 204)" stroke-width="1px"></line></g></g></g></g></svg>