<svg viewBox="0 0 1112.5999755859375 400" xmlns="http://www.w3.org/2000/svg"><g><g><g><g><g><line x1="41.171875" y1="377" x2="36.171875" y2="377" style="visibility: inherit;" fill="rgb(0, 0, 0)" stroke="rgb(204, 204, 204)" stroke-width="1px"></line><line x1="41.171875" y1="335.1111111111111" x2="36.171875" y2="335.1111111111111" style="visibility: inherit;" fill="rgb(0, 0, 0)" stroke="rgb(204, 204, 204)" stroke-width="1px"></line><line x1="41.171875" y1="293.22222222222223" x2="36.171875" y2="293.22222222222223" style="visibility: inherit;" fill="rgb(0, 0, 0)" stroke="rgb(204, 204, 204)" stroke-width="1px"></line><line x1="41.171875" y1="251.33333333333337" x2="36.171875" y2="251.33333333333337" style="visibility: inherit;" fill="rgb(0, 0, 0)" stroke="rgb(204, 204, 204)" stroke-width="1px"></line><line x1="41.171875" y1="209.44444444444446" x2="36.171875" y2="209.44444444444446" style="visibility: inherit;" fill="rgb(0, 0, 0)" stroke="rgb(204, 204, 204)" stroke-width="1px"></line><line x1="41.171875" y1="167.55555555555554" x2="36.171875" y2="167.55555555555554" style="visibility: inherit;" fill="rgb(0, 0, 0)" stroke="rgb(204, 204, 204)" stroke-width="1px"></line><line x1="41.171875" y1="125.66666666666669" x2="36.171875" y2="125.66666666666669" style="visibility: inherit;" fill="rgb(0, 0, 0)" stroke="rgb(204, 204, 204)" stroke-width="1px"></line><line x1="41.171875" y1="83.77777777777781" x2="36.171875" y2="83.77777777777781" style="visibility: inherit;" fill="rgb(0, 0, 0)" stroke="rgb(204, 204, 204)" stroke-width="1px"></line><line x1="41.171875" y1="41.888888888888864" x2="36.171875" y2="41.888888888888864" style="visibility: inherit;" fill="rgb(0, 0, 0)" stroke="rgb(204, 204, 204)" stroke-width="1px"></line><line x1="41.171875" y1="0" x2="36.171875" y2="0" style="visibility: inherit;" fill="rgb(0, 0, 0)" stroke="rgb(204, 204, 204)" stroke-width="1px"></line></g><g transform="translate(31.171875, 0)"><text x="0" y="377" dx="0em" dy="0.3em" style="text-anchor: end; visibility: hidden; font-family: Roboto, sans-serif; font-size: 12px; font-weight: 200;" fill="rgb(33, 33, 33)" stroke="none" stroke-width="1px">0</text><text x="0" y="335.1111111111111" dx="0em" dy="0.3em" style="text-anchor: end; visibility: inherit; font-family: Roboto, sans-serif; font-size: 12px; font-weight: 200;" fill="rgb(33, 33, 33)" stroke="none" stroke-width="1px">0.2</text><text x="0" y="293.22222222222223" dx="0em" dy="0.3em" style="text-anchor: end; visibility: inherit; font-family: Roboto, sans-serif; font-size: 12px; font-weight: 200;" fill="rgb(33, 33, 33)" stroke="none" stroke-width="1px">0.4</text><text x="0" y="251.33333333333337" dx="0em" dy="0.3em" style="text-anchor: end; visibility: inherit; font-family: Roboto, sans-serif; font-size: 12px; font-weight: 200;" fill="rgb(33, 33, 33)" stroke="none" stroke-width="1px">0.6</text><text x="0" y="209.44444444444446" dx="0em" dy="0.3em" style="text-anchor: end; visibility: inherit; font-family: Roboto, sans-serif; font-size: 12px; font-weight: 200;" fill="rgb(33, 33, 33)" stroke="none" stroke-width="1px">0.8</text><text x="0" y="167.55555555555554" dx="0em" dy="0.3em" style="text-anchor: end; visibility: inherit; font-family: Roboto, sans-serif; font-size: 12px; font-weight: 200;" fill="rgb(33, 33, 33)" stroke="none" stroke-width="1px">1</text><text x="0" y="125.66666666666669" dx="0em" dy="0.3em" style="text-anchor: end; visibility: inherit; font-family: Roboto, sans-serif; font-size: 12px; font-weight: 200;" fill="rgb(33, 33, 33)" stroke="none" stroke-width="1px">1.2</text><text x="0" y="83.77777777777781" dx="0em" dy="0.3em" style="text-anchor: end; visibility: inherit; font-family: Roboto, sans-serif; font-size: 12px; font-weight: 200;" fill="rgb(33, 33, 33)" stroke="none" stroke-width="1px">1.4</text><text x="0" y="41.888888888888864" dx="0em" dy="0.3em" style="text-anchor: end; visibility: inherit; font-family: Roboto, sans-serif; font-size: 12px; font-weight: 200;" fill="rgb(33, 33, 33)" stroke="none" stroke-width="1px">1.6</text><text x="0" y="0" dx="0em" dy="0.3em" style="text-anchor: end; visibility: hidden; font-family: Roboto, sans-serif; font-size: 12px; font-weight: 200;" fill="rgb(33, 33, 33)" stroke="none" stroke-width="1px">1.8</text></g><line x1="41.171875" y1="0" x2="41.171875" y2="377" fill="rgb(0, 0, 0)" stroke="rgb(204, 204, 204)" stroke-width="1px"></line></g></g><g transform="translate(41, 0)" clip-path="url(#clip_0)"><clipPath id="clip_0"><rect width="1071" height="377"></rect></clipPath><g><g><g><line x1="0" y1="0" x2="0" y2="377" fill="rgb(0, 0, 0)" stroke="rgb(66, 66, 66)" stroke-width="1px" opacity="0.25"></line><line x1="89.28567708333333" y1="0" x2="89.28567708333333" y2="377" fill="rgb(0, 0, 0)" stroke="rgb(66, 66, 66)" stroke-width="1px" opacity="0.25"></line><line x1="178.57135416666665" y1="0" x2="178.57135416666665" y2="377" fill="rgb(0, 0, 0)" stroke="rgb(66, 66, 66)" stroke-width="1px" opacity="0.25"></line><line x1="267.85703125" y1="0" x2="267.85703125" y2="377" fill="rgb(0, 0, 0)" stroke="rgb(66, 66, 66)" stroke-width="1px" opacity="0.25"></line><line x1="357.1427083333333" y1="0" x2="357.1427083333333" y2="377" fill="rgb(0, 0, 0)" stroke="rgb(66, 66, 66)" stroke-width="1px" opacity="0.25"></line><line x1="446.42838541666663" y1="0" x2="446.42838541666663" y2="377" fill="rgb(0, 0, 0)" stroke="rgb(66, 66, 66)" stroke-width="1px" opacity="0.25"></line><line x1="535.7140625" y1="0" x2="535.7140625" y2="377" fill="rgb(0, 0, 0)" stroke="rgb(66, 66, 66)" stroke-width="1px" opacity="0.25"></line><line x1="624.9997395833333" y1="0" x2="624.9997395833333" y2="377" fill="rgb(0, 0, 0)" stroke="rgb(66, 66, 66)" stroke-width="1px" opacity="0.25"></line><line x1="714.2854166666666" y1="0" x2="714.2854166666666" y2="377" fill="rgb(0, 0, 0)" stroke="rgb(66, 66, 66)" stroke-width="1px" opacity="0.25"></line><line x1="803.5710937499999" y1="0" x2="803.5710937499999" y2="377" fill="rgb(0, 0, 0)" stroke="rgb(66, 66, 66)" stroke-width="1px" opacity="0.25"></line><line x1="892.8567708333333" y1="0" x2="892.8567708333333" y2="377" fill="rgb(0, 0, 0)" stroke="rgb(66, 66, 66)" stroke-width="1px" opacity="0.25"></line><line x1="982.1424479166666" y1="0" x2="982.1424479166666" y2="377" fill="rgb(0, 0, 0)" stroke="rgb(66, 66, 66)" stroke-width="1px" opacity="0.25"></line><line x1="1071.428125" y1="0" x2="1071.428125" y2="377" fill="rgb(0, 0, 0)" stroke="rgb(66, 66, 66)" stroke-width="1px" opacity="0.25"></line></g><g><line x1="0" y1="377" x2="1071.428125" y2="377" fill="rgb(0, 0, 0)" stroke="rgb(66, 66, 66)" stroke-width="1px" opacity="0.25"></line><line x1="0" y1="335.1111111111111" x2="1071.428125" y2="335.1111111111111" fill="rgb(0, 0, 0)" stroke="rgb(66, 66, 66)" stroke-width="1px" opacity="0.25"></line><line x1="0" y1="293.22222222222223" x2="1071.428125" y2="293.22222222222223" fill="rgb(0, 0, 0)" stroke="rgb(66, 66, 66)" stroke-width="1px" opacity="0.25"></line><line x1="0" y1="251.33333333333337" x2="1071.428125" y2="251.33333333333337" fill="rgb(0, 0, 0)" stroke="rgb(66, 66, 66)" stroke-width="1px" opacity="0.25"></line><line x1="0" y1="209.44444444444446" x2="1071.428125" y2="209.44444444444446" fill="rgb(0, 0, 0)" stroke="rgb(66, 66, 66)" stroke-width="1px" opacity="0.25"></line><line x1="0" y1="167.55555555555554" x2="1071.428125" y2="167.55555555555554" fill="rgb(0, 0, 0)" stroke="rgb(66, 66, 66)" stroke-width="1px" opacity="0.25"></line><line x1="0" y1="125.66666666666669" x2="1071.428125" y2="125.66666666666669" fill="rgb(0, 0, 0)" stroke="rgb(66, 66, 66)" stroke-width="1px" opacity="0.25"></line><line x1="0" y1="83.77777777777781" x2="1071.428125" y2="83.77777777777781" fill="rgb(0, 0, 0)" stroke="rgb(66, 66, 66)" stroke-width="1px" opacity="0.25"></line><line x1="0" y1="41.888888888888864" x2="1071.428125" y2="41.888888888888864" fill="rgb(0, 0, 0)" stroke="rgb(66, 66, 66)" stroke-width="1px" opacity="0.25"></line><line x1="0" y1="0" x2="1071.428125" y2="0" fill="rgb(0, 0, 0)" stroke="rgb(66, 66, 66)" stroke-width="1px" opacity="0.25"></line></g></g></g><g><g><line x1="0" y1="377" x2="1071.428125" y2="377" fill="rgb(0, 0, 0)" stroke="rgb(153, 153, 153)" stroke-width="1.5px"></line></g></g><g><g><line x1="89.28567708333333" y1="0" x2="89.28567708333333" y2="377" fill="rgb(0, 0, 0)" stroke="rgb(153, 153, 153)" stroke-width="1.5px"></line></g></g><g><g><g><g><g><path stroke="rgb(255, 112, 67)" stroke-width="2px" d="M93.74996093749999,292.88237280646956L98.21424479166666,290.4990083453831L102.67852864583332,293.1821223614319L107.14281249999999,301.93055568089585L111.60709635416666,307.9587059889977L116.07138020833332,316.03381585706614L120.53566406249999,319.98322277700294L124.99994791666666,324.4197474341379L129.46423177083332,328.8940246643724L133.928515625,332.11032620059524L138.39279947916665,334.66823198450203L142.85708333333332,334.1816193492964L147.3213671875,332.16812009282773L151.78565104166665,331.71593096914387L156.24993489583332,332.7416447468905L160.71421875,330.15891258720546L165.17850260416665,332.14267642129954L169.64278645833332,333.6290805390178L174.10707031249999,335.51167107551476L178.57135416666665,335.34574806913565L183.03563802083332,336.6168413076169L187.49992187499998,335.7000786310562L191.96420572916665,336.4485476662753L196.42848958333332,337.8833630148307L200.89277343749998,336.8424340011203L205.35705729166665,337.3511328852147L209.82134114583332,337.2832880057841L214.28562499999998,337.1603547335763L218.74990885416665,338.2409183017286L223.21419270833331,338.78597007285106L227.67847656249998,340.5392416304251L232.14276041666665,341.8113338963239L236.6070442708333,342.56776525059155L241.07132812499998,343.7241595770715L245.53561197916665,343.682843124756L249.9998958333333,345.03918354186453L254.46417968749998,346.03298847069874L258.92846354166664,343.6138734277713L263.3927473958333,343.18006073685757L267.85703125,342.21226021011546L272.3213151041666,342.1773224858903L276.7855989583333,343.67167322178796L281.2498828125,344.1999749181613L285.71416666666664,344.6504662793768L290.1784505208333,345.5101493472903L294.642734375,345.7640770357955L299.10701822916667,345.43582616978074L303.5713020833333,345.45071803443545L308.03558593749995,345.0595942681839L312.49986979166664,346.0147936235264L316.96415364583333,345.6993372900854L321.4284375,346.83639108579786L325.8927213541666,345.07724440083206L330.3570052083333,343.864226030017L334.8212890625,344.6704399716888L339.28557291666664,344.7019757098715L343.74985677083333,344.56326223871974L348.21414062499997,345.49894639610534L352.6784244791666,346.0719951279558L357.1427083333333,347.2193661148087L361.6069921875,346.60021155103044L366.07127604166664,346.4369549920094L370.5355598958333,346.66819549342614L374.99984374999997,347.3858703209096L379.46412760416666,346.879088258312L383.9284114583333,346.53768003303134L388.39269531249994,347.2433822054153L392.85697916666663,346.9861541869948L397.3212630208333,347.3998265235277L401.78554687499997,348.1303240427269L406.2498307291666,347.9567720103022L410.7141145833333,347.669371122916L415.1783984375,348.0310549368003L419.64268229166663,346.6756986705358L424.10696614583327,346.88833670708334L428.57124999999996,347.55293816992014L433.03553385416666,348.2658601337956L437.4998177083333,348.52023425934635L441.96410156249993,347.74421839345524L446.42838541666663,347.0851443612402L450.8926692708333,347.2178156683134L455.35695312499996,346.31589111130694L459.8212369791666,347.0664817203202L464.2855208333333,347.10731780220294L468.74980468749993,347.4554221706083L473.2140885416666,348.2434544636191L477.6783723958333,348.48346114634L482.14265624999996,348.38811288929253L486.6069401041666,348.44890348454845L491.0712239583333,348.05325598313095L495.5355078125,347.13045311044067L499.9997916666666,346.6101154019582L504.46407552083326,345.19060406437694L508.92835937499996,345.00343871345507L513.3926432291667,345.6665100985986L517.8569270833333,345.68331484423453L522.3212109374999,346.6405229886005L526.7854947916666,346.87562799873353L531.2497786458333,344.7359069256303L535.7140625,344.84341662670926L540.1783463541666,345.57246751364966L544.6426302083332,345.60055399780157L549.1069140624999,345.87824610143156L553.5711979166666,346.3175433599668L558.0354817708334,346.55260550523246L562.499765625,345.6771148436025L566.9640494791666,345.55591065242805L571.4283333333333,343.5599184741219L575.8926171874999,344.6698796331886L580.3569010416666,344.24933131356414L584.8211848958332,343.8974943125312L589.28546875,344.25529832721224L593.7497526041667,344.7736002275221L598.2140364583333,345.75849686815064L602.6783203125,345.96381860447934L607.1426041666666,345.3359274921762L611.6068880208333,345.69097056194624L616.0711718749999,345.42712318641696L620.5354557291666,346.0835959719826L624.9997395833333,346.6417282559255L629.4640234374999,346.4559260479859L633.9283072916667,346.45489461593655L638.3925911458333,345.21579175325553L642.856875,344.34476315733724L647.3211588541666,342.31162413809926L651.7854427083332,342.9727944029765L656.2497265625,343.6599180693523L660.7140104166666,343.324650535519L665.1782942708332,343.7061301232193L669.642578125,344.1885705068524L674.1068619791666,341.92010382998336L678.5711458333333,341.40376422414386L683.0354296874999,341.5312073656458L687.4997135416667,341.91703911315886L691.9639973958333,343.13639240514726L696.4282812499999,342.03991629347604L700.8925651041666,339.09588814936916L705.3568489583332,340.48058086511253L709.8211328125,340.7576113489116L714.2854166666666,341.7973129632564L718.7497005208332,340.8797304090335L723.213984375,341.6014394809862L727.6782682291666,341.7583884547909L732.1425520833333,341.69266938815286L736.6068359374999,342.67359504321905L741.0711197916665,343.49876692405917L745.5354036458332,343.9392875479895L749.9996874999999,343.9191231659041L754.4639713541667,343.9247978195567L758.9282552083333,343.03467655605505L763.3925390625,342.6686002357472L767.8568229166666,341.4035769783017L772.3211067708332,341.51556205294827L776.7853906249999,342.4994809234042L781.2496744791665,342.98241450831716L785.7139583333333,341.768141701074L790.1782421875,341.8022947059614L794.6425260416667,342.41429337746314L799.1068098958333,343.60691977943964L803.5710937499999,344.14565009207007L808.0353776041666,344.693682177547L812.4996614583332,345.764577884889L816.9639453124998,344.47240892405864L821.4282291666666,344.7290512711849L825.8925130208333,345.4419513930641L830.356796875,345.4429213193947L834.8210807291666,344.4812613163848L839.2853645833333,343.7404857444665L843.7496484374999,343.52569521581637L848.2139322916665,344.314860876566L852.6782161458332,343.257506547717L857.1424999999999,343.182633586634L861.6067838541667,343.8497382618038L866.0710677083333,343.0513746498373L870.5353515625,342.7823073094901L874.9996354166666,343.0685372653159L879.4639192708332,344.22635505953684L883.9282031249999,344.54711301396725L888.3924869791666,342.7243631714358L892.8567708333333,343.15744098979553L897.3210546874999,341.82989908863794L901.7853385416666,341.37849169744464L906.2496223958333,342.396321411248L910.7139062499999,343.0879179511778L915.1781901041666,342.8731447638859L919.6424739583332,340.3044634934144L924.1067578125,341.44962229384913L928.5710416666666,341.44862166966556L933.0353255208332,340.8973421464379L937.4996093749999,341.34518278181343L941.9638932291666,341.49693926974095L946.4281770833333,341.9214123926017L950.8924609374999,342.01845980501014L955.3567447916666,341.9060311560591L959.8210286458333,342.24198592358385L964.2853124999999,342.6581709979975L968.7495963541666,342.88391038901335L973.2138802083332,343.25541467869544L977.6781640625,343.4421739878002L982.1424479166666,344.4837545422953" style="fill: none;" fill="none"></path></g><g><path stroke="rgb(0, 119, 187)" stroke-width="2px" d="M89.28567708333333,20.92059028148651L133.928515625,163.77021245161677L178.57135416666665,211.8859714512723L223.21419270833331,238.98962313531754L267.85703125,251.730333652788L312.49986979166664,261.7647915996926L357.1427083333333,267.9430375635989L401.78554687499997,273.4705120007347L446.42838541666663,277.60810522034285L491.0712239583333,280.55643612085595L535.7140625,284.46154301641917L580.3569010416666,286.9952715563447L624.9997395833333,289.276232658002L669.642578125,291.26588789706943L714.2854166666666,293.63627266930825L758.9282552083333,294.5666016294267L803.5710937499999,295.99079368877204L848.2139322916665,296.7654632124925L892.8567708333333,298.06357398515684L937.4996093749999,298.4925871935464L982.1424479166666,299.3722711686875" style="fill: none;" fill="none"></path></g></g></g></g><g opacity="0.2"><g><g><g><path stroke="rgb(255, 112, 67)" stroke-width="2px" d="M93.74996093749999,292.8823728064696L98.21424479166666,288.2348121073511L102.67852864583332,298.15259107616214L107.14281249999999,325.6377164224784L111.60709635416666,329.2042059070534L116.07138020833332,350.7419477519062L120.53566406249999,339.86159126294984L124.99994791666666,349.84809389048155L129.46423177083332,357.50708037283687L133.928515625,354.7056846395135L138.39279947916665,354.16970096031827L142.85708333333332,330.19490020473796L147.3213671875,314.5839122798708L151.78565104166665,327.534764048126L156.24993489583332,342.72612256639536L160.71421875,303.8215875824293L165.17850260416665,353.24514928294553L169.64278645833332,350.06233880420524L174.10707031249999,357.07284484803677L178.57135416666665,333.3828321877453L183.03563802083332,352.1099012295405L187.49992187499998,324.21365734934807L191.96420572916665,346.06851737035646L196.42848958333332,356.7658479627636L200.89277343749998,322.8396398358875L205.35705729166665,344.33536412318546L209.82134114583332,336.3339265882969L214.28562499999998,335.40935930609703L218.74990885416665,353.88887180967464L223.21419270833331,346.80216895540553L227.67847656249998,366.70132046482627L232.14276041666665,361.05270932449235L236.6070442708333,354.15590161167916L241.07132812499998,361.65232792827817L245.53561197916665,343.03507005506094L249.9998958333333,366.5296049469875L254.46417968749998,361.9360486533907L258.92846354166664,304.540121210946L263.3927473958333,336.1113081243303L267.85703125,326.31153285834523L272.3213151041666,341.5988142490387L276.7855989583333,368.59797484883006L281.2498828125,353.073508668277L285.71416666666664,352.2667078955306L290.1784505208333,360.13438553363085L294.642734375,350.1089410599735L299.10701822916667,339.7882360915343L303.5713020833333,345.7082705729538L308.03558593749995,338.26182183623314L312.49986979166664,362.69362555940944L316.96415364583333,340.16684977047976L321.4284375,366.861208303935L325.8927213541666,313.97450008657245L330.3570052083333,322.3373266922103L334.8212890625,359.0284885995918L339.28557291666664,345.26548048191603L343.74985677083333,342.076777620448L348.21414062499997,362.3216704602043L352.6784244791666,356.4041265091962L357.1427083333333,367.9622318504585L361.6069921875,335.3782370388508L366.07127604166664,343.4708379738861L370.5355598958333,350.8790892147356L374.99984374999997,360.48308944039877L379.46412760416666,337.61154372162287L383.9284114583333,340.2821632011069L388.39269531249994,360.19764282140466L392.85697916666663,342.25605835848387L397.3212630208333,355.0193775561121L401.78554687499997,361.60678055882454L406.2498307291666,344.75024029943677L410.7141145833333,342.35184702939455L415.1783984375,354.73197409179477L419.64268229166663,321.5329477886359L424.10696614583327,350.8376896083355L428.57124999999996,359.9108495058285L433.03553385416666,361.5367211269008L437.4998177083333,353.26024383223717L441.96410156249993,333.26973152160645L446.42838541666663,334.7804348369439L450.8926692708333,349.6969392928812L455.35695312499996,329.44819050033885L459.8212369791666,361.1151379959451L464.2855208333333,347.87221692005795L468.74980468749993,353.9804346933961L473.2140885416666,363.0247287816471L477.6783723958333,352.98822672747906L482.14265624999996,346.59738992982443L486.6069401041666,349.591269645426L491.0712239583333,340.61419959200754L495.5355078125,329.77057374517125L499.9997916666666,336.81657140784796L504.46407552083326,318.4605820344554L508.92835937499996,341.4774461454815L513.3926432291667,358.1633975555499L517.8569270833333,346.0001619855563L522.3212109374999,364.6952793635428L526.7854947916666,351.31177674068346L531.2497786458333,304.3479071921772L535.7140625,346.8733706606759L540.1783463541666,359.34242339101104L544.6426302083332,346.13119571904343L549.1069140624999,351.1262041363451L553.5711979166666,354.6218227379852L558.0354817708334,350.9972489658329L562.499765625,329.118997308943L566.9640494791666,343.26305345859794L571.4283333333333,305.7928642498122L575.8926171874999,365.676307251056L580.3569010416666,336.2887287669712L584.8211848958332,337.2362882014778L589.28546875,351.03068074749575L593.7497526041667,354.5898312818673L598.2140364583333,364.41465931758285L602.6783203125,349.8536679347356L607.1426041666666,333.43871931566133L611.6068880208333,352.4192107501957L616.0711718749999,340.42643294897346L620.5354557291666,358.5272459470564L624.9997395833333,357.22254975719585L629.4640234374999,342.93317677577335L633.9283072916667,346.43533692095014L638.3925911458333,321.7179336514738L642.856875,327.8253352923526L647.3211588541666,303.74876297513646L651.7854427083332,355.51439856406716L656.2497265625,356.6948990556929L660.7140104166666,336.9640089356237L665.1782942708332,350.9440365052885L669.642578125,353.34267633159953L674.1068619791666,298.87400847673416L678.5711458333333,331.605155247781L683.0354296874999,343.94984998967914L687.4997135416667,349.23985518018407L691.9639973958333,366.280125113825L696.4282812499999,321.2273553378052L700.8925651041666,283.211605767409L705.3568489583332,366.76639493472044L709.8211328125,346.01675303777057L714.2854166666666,361.53582228885756L718.7497005208332,323.45892676379947L723.213984375,355.3040002402332L727.6782682291666,344.7383712679148L732.1425520833333,340.44482167727415L736.6068359374999,361.2996323067281L741.0711197916665,359.16780225435895L745.5354036458332,352.30449810541336L749.9996874999999,343.5362034738064L754.4639713541667,344.03256181544725L758.9282552083333,326.13048253291186L763.3925390625,335.7163187397851L767.8568229166666,317.37853707869846L772.3211067708332,343.64240368538435L776.7853906249999,361.1866377534138L781.2496744791665,352.1547479422556L785.7139583333333,318.70509094993275L790.1782421875,342.45098449620934L794.6425260416667,354.03856891642016L799.1068098958333,366.25997304005756L803.5710937499999,354.3785871764024L808.0353776041666,355.10345168328945L812.4996614583332,366.10632401083905L816.9639453124998,319.92724228567545L821.4282291666666,349.60411553912695L825.8925130208333,358.98404449141685L830.356796875,345.4613460302353L834.8210807291666,326.21338473757106L839.2853645833333,329.66843078864946L843.7496484374999,339.44541364411515L848.2139322916665,359.30643085721465L852.6782161458332,323.17105515466795L857.1424999999999,341.7602680325508L861.6067838541667,356.5228589574496L866.0710677083333,327.8845899419652L870.5353515625,337.67070786323814L874.9996354166666,348.50621919996206L879.4639192708332,366.2222522716555L883.9282031249999,350.6408191091484L888.3924869791666,308.0958683325185L892.8567708333333,351.3850726137559L897.3210546874999,316.60906929439966L901.7853385416666,332.8025479647848L906.2496223958333,361.7333794004387L910.7139062499999,356.22715060412884L915.1781901041666,338.7927792006069L919.6424739583332,291.503211941984L924.1067578125,363.2060755987962L928.5710416666666,341.4296111083693L933.0353255208332,330.42371066411334L937.4996093749999,349.8536304831505L941.9638932291666,344.38014373514386L946.4281770833333,349.9859531753593L950.8924609374999,343.8622632159127L955.3567447916666,339.7699940486087L959.8210286458333,348.6248221281502L964.2853124999999,350.56532919738027L968.7495963541666,347.1727742370632L973.2138802083332,350.31370760169295L977.6781640625,346.99046304159697L982.1424479166666,364.2730548741917" style="fill: none;" fill="none"></path></g><g><path stroke="rgb(0, 119, 187)" stroke-width="2px" d="M89.28567708333333,20.92059028148651L133.928515625,299.4773535132408L178.57135416666665,301.020414998134L223.21419270833331,312.4371312426196L267.85703125,296.6334549122387L312.49986979166664,304.894519319137L357.1427083333333,299.0397192570898L401.78554687499997,305.1517368058364L446.42838541666663,304.0680627061261L491.0712239583333,301.2692308459017L535.7140625,314.2340707812044L580.3569010416666,307.75359829598005L624.9997395833333,309.1962271134059L669.642578125,309.66323589616354L714.2854166666666,316.7100138001972L758.9282552083333,304.0536001523336L803.5710937499999,311.1407695909341L848.2139322916665,305.32998762528103L892.8567708333333,312.930743134684L937.4996093749999,303.5679342382484L982.1424479166666,310.094534592496" style="fill: none;" fill="none"></path></g></g></g></g></g></g><g transform="translate(41, 377)" clip-path="url(#clip_1)"><clipPath id="clip_1"><rect width="1071" height="23"></rect></clipPath><g><g><line x1="0" y1="0" x2="0" y2="5" style="visibility: inherit;" fill="rgb(0, 0, 0)" stroke="rgb(204, 204, 204)" stroke-width="1px"></line><line x1="89.28567708333333" y1="0" x2="89.28567708333333" y2="5" style="visibility: inherit;" fill="rgb(0, 0, 0)" stroke="rgb(204, 204, 204)" stroke-width="1px"></line><line x1="178.57135416666665" y1="0" x2="178.57135416666665" y2="5" style="visibility: inherit;" fill="rgb(0, 0, 0)" stroke="rgb(204, 204, 204)" stroke-width="1px"></line><line x1="267.85703125" y1="0" x2="267.85703125" y2="5" style="visibility: inherit;" fill="rgb(0, 0, 0)" stroke="rgb(204, 204, 204)" stroke-width="1px"></line><line x1="357.1427083333333" y1="0" x2="357.1427083333333" y2="5" style="visibility: inherit;" fill="rgb(0, 0, 0)" stroke="rgb(204, 204, 204)" stroke-width="1px"></line><line x1="446.42838541666663" y1="0" x2="446.42838541666663" y2="5" style="visibility: inherit;" fill="rgb(0, 0, 0)" stroke="rgb(204, 204, 204)" stroke-width="1px"></line><line x1="535.7140625" y1="0" x2="535.7140625" y2="5" style="visibility: inherit;" fill="rgb(0, 0, 0)" stroke="rgb(204, 204, 204)" stroke-width="1px"></line><line x1="624.9997395833333" y1="0" x2="624.9997395833333" y2="5" style="visibility: inherit;" fill="rgb(0, 0, 0)" stroke="rgb(204, 204, 204)" stroke-width="1px"></line><line x1="714.2854166666666" y1="0" x2="714.2854166666666" y2="5" style="visibility: inherit;" fill="rgb(0, 0, 0)" stroke="rgb(204, 204, 204)" stroke-width="1px"></line><line x1="803.5710937499999" y1="0" x2="803.5710937499999" y2="5" style="visibility: inherit;" fill="rgb(0, 0, 0)" stroke="rgb(204, 204, 204)" stroke-width="1px"></line><line x1="892.8567708333333" y1="0" x2="892.8567708333333" y2="5" style="visibility: inherit;" fill="rgb(0, 0, 0)" stroke="rgb(204, 204, 204)" stroke-width="1px"></line><line x1="982.1424479166666" y1="0" x2="982.1424479166666" y2="5" style="visibility: inherit;" fill="rgb(0, 0, 0)" stroke="rgb(204, 204, 204)" stroke-width="1px"></line><line x1="1071.428125" y1="0" x2="1071.428125" y2="5" style="visibility: inherit;" fill="rgb(0, 0, 0)" stroke="rgb(204, 204, 204)" stroke-width="1px"></line></g><g transform="translate(0, 8)"><text x="0" y="0" dx="0em" dy="0.95em" style="text-anchor: middle; visibility: hidden; font-family: Roboto, sans-serif; font-size: 12px; font-weight: 200;" fill="rgb(33, 33, 33)" stroke="none" stroke-width="1px">-2k</text><text x="89.28567708333333" y="0" dx="0em" dy="0.95em" style="text-anchor: middle; visibility: inherit; font-family: Roboto, sans-serif; font-size: 12px; font-weight: 200;" fill="rgb(33, 33, 33)" stroke="none" stroke-width="1px">0</text><text x="178.57135416666665" y="0" dx="0em" dy="0.95em" style="text-anchor: middle; visibility: inherit; font-family: Roboto, sans-serif; font-size: 12px; font-weight: 200;" fill="rgb(33, 33, 33)" stroke="none" stroke-width="1px">2k</text><text x="267.85703125" y="0" dx="0em" dy="0.95em" style="text-anchor: middle; visibility: inherit; font-family: Roboto, sans-serif; font-size: 12px; font-weight: 200;" fill="rgb(33, 33, 33)" stroke="none" stroke-width="1px">4k</text><text x="357.1427083333333" y="0" dx="0em" dy="0.95em" style="text-anchor: middle; visibility: inherit; font-family: Roboto, sans-serif; font-size: 12px; font-weight: 200;" fill="rgb(33, 33, 33)" stroke="none" stroke-width="1px">6k</text><text x="446.42838541666663" y="0" dx="0em" dy="0.95em" style="text-anchor: middle; visibility: inherit; font-family: Roboto, sans-serif; font-size: 12px; font-weight: 200;" fill="rgb(33, 33, 33)" stroke="none" stroke-width="1px">8k</text><text x="535.7140625" y="0" dx="0em" dy="0.95em" style="text-anchor: middle; visibility: inherit; font-family: Roboto, sans-serif; font-size: 12px; font-weight: 200;" fill="rgb(33, 33, 33)" stroke="none" stroke-width="1px">10k</text><text x="624.9997395833333" y="0" dx="0em" dy="0.95em" style="text-anchor: middle; visibility: inherit; font-family: Roboto, sans-serif; font-size: 12px; font-weight: 200;" fill="rgb(33, 33, 33)" stroke="none" stroke-width="1px">12k</text><text x="714.2854166666666" y="0" dx="0em" dy="0.95em" style="text-anchor: middle; visibility: inherit; font-family: Roboto, sans-serif; font-size: 12px; font-weight: 200;" fill="rgb(33, 33, 33)" stroke="none" stroke-width="1px">14k</text><text x="803.5710937499999" y="0" dx="0em" dy="0.95em" style="text-anchor: middle; visibility: inherit; font-family: Roboto, sans-serif; font-size: 12px; font-weight: 200;" fill="rgb(33, 33, 33)" stroke="none" stroke-width="1px">16k</text><text x="892.8567708333333" y="0" dx="0em" dy="0.95em" style="text-anchor: middle; visibility: inherit; font-family: Roboto, sans-serif; font-size: 12px; font-weight: 200;" fill="rgb(33, 33, 33)" stroke="none" stroke-width="1px">18k</text><text x="982.1424479166666" y="0" dx="0em" dy="0.95em" style="text-anchor: middle; visibility: inherit; font-family: Roboto, sans-serif; font-size: 12px; font-weight: 200;" fill="rgb(33, 33, 33)" stroke="none" stroke-width="1px">20k</text><text x="1071.428125" y="0" dx="0em" dy="0.95em" style="text-anchor: middle; visibility: hidden; font-family: Roboto, sans-serif; font-size: 12px; font-weight: 200;" fill="rgb(33, 33, 33)" stroke="none" stroke-width="1px">22k</text></g><line x1="0" y1="0" x2="1071.428125" y2="0" fill="rgb(0, 0, 0)" stroke="rgb(204, 204, 204)" stroke-width="1px"></line></g></g></g></g></svg>