<svg viewBox="0 0 330 200" xmlns="http://www.w3.org/2000/svg"><g><g><g><g><g><line x1="61.953125" y1="177" x2="56.953125" y2="177" style="visibility: inherit;" fill="rgb(0, 0, 0)" stroke="rgb(204, 204, 204)" stroke-width="1px"></line><line x1="61.953125" y1="159.3" x2="56.953125" y2="159.3" style="visibility: inherit;" fill="rgb(0, 0, 0)" stroke="rgb(204, 204, 204)" stroke-width="1px"></line><line x1="61.953125" y1="141.6" x2="56.953125" y2="141.6" style="visibility: inherit;" fill="rgb(0, 0, 0)" stroke="rgb(204, 204, 204)" stroke-width="1px"></line><line x1="61.953125" y1="123.89999999999999" x2="56.953125" y2="123.89999999999999" style="visibility: inherit;" fill="rgb(0, 0, 0)" stroke="rgb(204, 204, 204)" stroke-width="1px"></line><line x1="61.953125" y1="106.2" x2="56.953125" y2="106.2" style="visibility: inherit;" fill="rgb(0, 0, 0)" stroke="rgb(204, 204, 204)" stroke-width="1px"></line><line x1="61.953125" y1="88.5" x2="56.953125" y2="88.5" style="visibility: inherit;" fill="rgb(0, 0, 0)" stroke="rgb(204, 204, 204)" stroke-width="1px"></line><line x1="61.953125" y1="70.8" x2="56.953125" y2="70.8" style="visibility: inherit;" fill="rgb(0, 0, 0)" stroke="rgb(204, 204, 204)" stroke-width="1px"></line><line x1="61.953125" y1="53.10000000000001" x2="56.953125" y2="53.10000000000001" style="visibility: inherit;" fill="rgb(0, 0, 0)" stroke="rgb(204, 204, 204)" stroke-width="1px"></line><line x1="61.953125" y1="35.40000000000001" x2="56.953125" y2="35.40000000000001" style="visibility: inherit;" fill="rgb(0, 0, 0)" stroke="rgb(204, 204, 204)" stroke-width="1px"></line><line x1="61.953125" y1="17.699999999999996" x2="56.953125" y2="17.699999999999996" style="visibility: inherit;" fill="rgb(0, 0, 0)" stroke="rgb(204, 204, 204)" stroke-width="1px"></line><line x1="61.953125" y1="0" x2="56.953125" y2="0" style="visibility: inherit;" fill="rgb(0, 0, 0)" stroke="rgb(204, 204, 204)" stroke-width="1px"></line></g><g transform="translate(51.953125, 0)"><text x="0" y="177" dx="0em" dy="0.3em" style="text-anchor: end; visibility: hidden; font-family: Roboto, sans-serif; font-size: 12px; font-weight: 200;" fill="rgb(33, 33, 33)" stroke="none" stroke-width="1px">-0.05</text><text x="0" y="159.3" dx="0em" dy="0.3em" style="text-anchor: end; visibility: inherit; font-family: Roboto, sans-serif; font-size: 12px; font-weight: 200;" fill="rgb(33, 33, 33)" stroke="none" stroke-width="1px">0</text><text x="0" y="141.6" dx="0em" dy="0.3em" style="text-anchor: end; visibility: hidden; font-family: Roboto, sans-serif; font-size: 12px; font-weight: 200;" fill="rgb(33, 33, 33)" stroke="none" stroke-width="1px">0.05</text><text x="0" y="123.89999999999999" dx="0em" dy="0.3em" style="text-anchor: end; visibility: inherit; font-family: Roboto, sans-serif; font-size: 12px; font-weight: 200;" fill="rgb(33, 33, 33)" stroke="none" stroke-width="1px">0.1</text><text x="0" y="106.2" dx="0em" dy="0.3em" style="text-anchor: end; visibility: hidden; font-family: Roboto, sans-serif; font-size: 12px; font-weight: 200;" fill="rgb(33, 33, 33)" stroke="none" stroke-width="1px">0.15</text><text x="0" y="88.5" dx="0em" dy="0.3em" style="text-anchor: end; visibility: inherit; font-family: Roboto, sans-serif; font-size: 12px; font-weight: 200;" fill="rgb(33, 33, 33)" stroke="none" stroke-width="1px">0.2</text><text x="0" y="70.8" dx="0em" dy="0.3em" style="text-anchor: end; visibility: hidden; font-family: Roboto, sans-serif; font-size: 12px; font-weight: 200;" fill="rgb(33, 33, 33)" stroke="none" stroke-width="1px">0.25</text><text x="0" y="53.10000000000001" dx="0em" dy="0.3em" style="text-anchor: end; visibility: inherit; font-family: Roboto, sans-serif; font-size: 12px; font-weight: 200;" fill="rgb(33, 33, 33)" stroke="none" stroke-width="1px">0.3</text><text x="0" y="35.40000000000001" dx="0em" dy="0.3em" style="text-anchor: end; visibility: hidden; font-family: Roboto, sans-serif; font-size: 12px; font-weight: 200;" fill="rgb(33, 33, 33)" stroke="none" stroke-width="1px">0.35</text><text x="0" y="17.699999999999996" dx="0em" dy="0.3em" style="text-anchor: end; visibility: inherit; font-family: Roboto, sans-serif; font-size: 12px; font-weight: 200;" fill="rgb(33, 33, 33)" stroke="none" stroke-width="1px">0.4</text><text x="0" y="0" dx="0em" dy="0.3em" style="text-anchor: end; visibility: hidden; font-family: Roboto, sans-serif; font-size: 12px; font-weight: 200;" fill="rgb(33, 33, 33)" stroke="none" stroke-width="1px">0.45</text></g><line x1="61.953125" y1="0" x2="61.953125" y2="177" fill="rgb(0, 0, 0)" stroke="rgb(204, 204, 204)" stroke-width="1px"></line></g></g><g transform="translate(61, 0)" clip-path="url(#clip_0)"><clipPath id="clip_0"><rect width="268" height="177"></rect></clipPath><g><g><g><line x1="0" y1="0" x2="0" y2="177" fill="rgb(0, 0, 0)" stroke="rgb(66, 66, 66)" stroke-width="1px" opacity="0.25"></line><line x1="22.337239583333332" y1="0" x2="22.337239583333332" y2="177" fill="rgb(0, 0, 0)" stroke="rgb(66, 66, 66)" stroke-width="1px" opacity="0.25"></line><line x1="44.674479166666664" y1="0" x2="44.674479166666664" y2="177" fill="rgb(0, 0, 0)" stroke="rgb(66, 66, 66)" stroke-width="1px" opacity="0.25"></line><line x1="67.01171875" y1="0" x2="67.01171875" y2="177" fill="rgb(0, 0, 0)" stroke="rgb(66, 66, 66)" stroke-width="1px" opacity="0.25"></line><line x1="89.34895833333333" y1="0" x2="89.34895833333333" y2="177" fill="rgb(0, 0, 0)" stroke="rgb(66, 66, 66)" stroke-width="1px" opacity="0.25"></line><line x1="111.68619791666667" y1="0" x2="111.68619791666667" y2="177" fill="rgb(0, 0, 0)" stroke="rgb(66, 66, 66)" stroke-width="1px" opacity="0.25"></line><line x1="134.0234375" y1="0" x2="134.0234375" y2="177" fill="rgb(0, 0, 0)" stroke="rgb(66, 66, 66)" stroke-width="1px" opacity="0.25"></line><line x1="156.36067708333334" y1="0" x2="156.36067708333334" y2="177" fill="rgb(0, 0, 0)" stroke="rgb(66, 66, 66)" stroke-width="1px" opacity="0.25"></line><line x1="178.69791666666666" y1="0" x2="178.69791666666666" y2="177" fill="rgb(0, 0, 0)" stroke="rgb(66, 66, 66)" stroke-width="1px" opacity="0.25"></line><line x1="201.03515625" y1="0" x2="201.03515625" y2="177" fill="rgb(0, 0, 0)" stroke="rgb(66, 66, 66)" stroke-width="1px" opacity="0.25"></line><line x1="223.37239583333334" y1="0" x2="223.37239583333334" y2="177" fill="rgb(0, 0, 0)" stroke="rgb(66, 66, 66)" stroke-width="1px" opacity="0.25"></line><line x1="245.70963541666666" y1="0" x2="245.70963541666666" y2="177" fill="rgb(0, 0, 0)" stroke="rgb(66, 66, 66)" stroke-width="1px" opacity="0.25"></line><line x1="268.046875" y1="0" x2="268.046875" y2="177" fill="rgb(0, 0, 0)" stroke="rgb(66, 66, 66)" stroke-width="1px" opacity="0.25"></line></g><g><line x1="0" y1="177" x2="268.046875" y2="177" fill="rgb(0, 0, 0)" stroke="rgb(66, 66, 66)" stroke-width="1px" opacity="0.25"></line><line x1="0" y1="159.3" x2="268.046875" y2="159.3" fill="rgb(0, 0, 0)" stroke="rgb(66, 66, 66)" stroke-width="1px" opacity="0.25"></line><line x1="0" y1="141.6" x2="268.046875" y2="141.6" fill="rgb(0, 0, 0)" stroke="rgb(66, 66, 66)" stroke-width="1px" opacity="0.25"></line><line x1="0" y1="123.89999999999999" x2="268.046875" y2="123.89999999999999" fill="rgb(0, 0, 0)" stroke="rgb(66, 66, 66)" stroke-width="1px" opacity="0.25"></line><line x1="0" y1="106.2" x2="268.046875" y2="106.2" fill="rgb(0, 0, 0)" stroke="rgb(66, 66, 66)" stroke-width="1px" opacity="0.25"></line><line x1="0" y1="88.5" x2="268.046875" y2="88.5" fill="rgb(0, 0, 0)" stroke="rgb(66, 66, 66)" stroke-width="1px" opacity="0.25"></line><line x1="0" y1="70.8" x2="268.046875" y2="70.8" fill="rgb(0, 0, 0)" stroke="rgb(66, 66, 66)" stroke-width="1px" opacity="0.25"></line><line x1="0" y1="53.10000000000001" x2="268.046875" y2="53.10000000000001" fill="rgb(0, 0, 0)" stroke="rgb(66, 66, 66)" stroke-width="1px" opacity="0.25"></line><line x1="0" y1="35.40000000000001" x2="268.046875" y2="35.40000000000001" fill="rgb(0, 0, 0)" stroke="rgb(66, 66, 66)" stroke-width="1px" opacity="0.25"></line><line x1="0" y1="17.699999999999996" x2="268.046875" y2="17.699999999999996" fill="rgb(0, 0, 0)" stroke="rgb(66, 66, 66)" stroke-width="1px" opacity="0.25"></line><line x1="0" y1="0" x2="268.046875" y2="0" fill="rgb(0, 0, 0)" stroke="rgb(66, 66, 66)" stroke-width="1px" opacity="0.25"></line></g></g></g><g><g><line x1="0" y1="159.3" x2="268.046875" y2="159.3" fill="rgb(0, 0, 0)" stroke="rgb(153, 153, 153)" stroke-width="1.5px"></line></g></g><g><g><line x1="22.337239583333332" y1="0" x2="22.337239583333332" y2="177" fill="rgb(0, 0, 0)" stroke="rgb(153, 153, 153)" stroke-width="1.5px"></line></g></g><g><g><g><g><g><path stroke="rgb(255, 112, 67)" stroke-width="2px" d="M23.4541015625,16.609505403041844L24.570963541666664,62.66754222558089L25.687825520833336,77.53328145395548L26.8046875,92.10589839404891L27.921549479166668,102.09874178521883L29.038411458333336,111.8328280921938L30.1552734375,119.31232476254915L31.272135416666668,122.81447633143344L32.388997395833336,125.21248839207263L33.505859375,128.9289938488859L34.62272135416667,131.34614295396838L35.739583333333336,133.7580950853742L36.8564453125,135.71188224085185L37.973307291666664,137.4631966346896L39.090169270833336,139.04043501057964L40.20703125,140.36506264320002L41.32389322916667,140.07872807154618L42.44075520833333,141.1889013809715L43.5576171875,142.10353877773707L44.674479166666664,142.7295664514046L45.791341145833336,141.66569280242564L46.908203125,142.77628481377727L48.025065104166664,142.5240983008489L49.14192708333333,142.7825998447557L50.2587890625,142.41727277728407L51.37565104166667,142.9251874930472L52.492513020833336,143.95459550758898L53.609375,144.90611090742766L54.726236979166664,144.87145253487918L55.843098958333336,145.52231292431242L56.9599609375,146.26826685352376L58.07682291666667,146.86525621347587L59.19368489583333,147.30965936705192L60.310546875,147.74760822694694L61.427408854166664,148.3224305128897L62.544270833333336,148.51001387250818L63.6611328125,148.97723507722444L64.77799479166667,149.5340229284765L65.89485677083333,148.59427893087044L67.01171875,148.58721872355412L68.12858072916666,148.9725158118178L69.24544270833334,149.31505008357928L70.3623046875,149.49246536118017L71.47916666666667,149.8488140507227L72.59602864583333,149.52100023549755L73.712890625,149.25054479471493L74.82975260416667,149.66714904039742L75.94661458333333,149.6679574699038L77.0634765625,149.8666387132371L78.18033854166667,150.31401023237024L79.29720052083333,150.7345283483841L80.4140625,149.9630939430656L81.53092447916666,150.05823787516667L82.64778645833334,150.5061466040947L83.7646484375,150.1279543724659L84.88151041666666,149.2480084952564L85.99837239583334,149.70537720472444L87.115234375,150.1809722853883L88.23209635416667,150.59791647855053L89.34895833333333,150.22537325412554L90.4658203125,150.6398210433414L91.58268229166667,151.06401714425795L92.69954427083333,151.32801053265362L93.81640625,151.26215261615317L94.93326822916667,151.3069744812143L96.05013020833333,151.37150706723446L97.1669921875,151.71638793887132L98.28385416666666,151.96995892277286L99.40071614583334,152.05672565640953L100.517578125,151.7209152360606L101.63444010416666,151.90772007571832L102.75130208333334,152.02617069605958L103.8681640625,152.2191573087469L104.98502604166667,152.30992150144291L106.10188802083333,152.47095864695018L107.21875,152.66531456350828L108.33561197916667,152.86955346088484L109.45247395833333,153.10780889482106L110.5693359375,153.2660955010868L111.68619791666667,153.521721770433L112.80305989583333,153.77566522598138L113.919921875,154.0034560424265L115.03678385416666,153.46017925759963L116.15364583333334,153.4768053122886L117.2705078125,153.7167128050895L118.38736979166666,153.58397499550617L119.50423177083334,153.67988575250192L120.62109375,153.91238016814404L121.73795572916667,153.26149288583548L122.85481770833333,153.5411961135505L123.9716796875,153.20553387388193L125.08854166666667,153.00094365178143L126.20540364583333,153.31588835164894L127.322265625,153.52929090207095L128.43912760416669,153.73826904574682L129.55598958333334,153.98431356983244L130.6728515625,154.02755473511405L131.78971354166666,153.68194183313085L132.90657552083334,153.87401163270383L134.0234375,153.76988475301172L135.14029947916666,153.6127761384504L136.25716145833331,153.86752957188276L137.3740234375,153.54642351559733L138.49088541666669,153.75470333749587L139.60774739583334,154.0241404529377L140.724609375,154.23624716782743L141.84147135416666,153.69775260760116L142.95833333333334,153.84670315392705L144.0751953125,154.02200468137977L145.19205729166666,153.89295921026866L146.30891927083331,154.10430423244625L147.42578125,154.29126558241174L148.54264322916669,154.53041549936069L149.65950520833334,154.08660080081495L150.7763671875,154.29203672300707L151.89322916666666,154.41965363241025L153.01009114583331,154.63978940661096L154.126953125,153.8948902017586L155.24381510416669,154.1247432898993L156.36067708333334,154.36189840361524L157.4775390625,153.62135510326024L158.59440104166666,153.71280208144975L159.71126302083334,153.90457842526286L160.828125,154.0578863589916L161.94498697916666,153.7112633302761L163.06184895833331,153.74864541881473L164.1787109375,154.00035350123758L165.29557291666669,153.69200961020596L166.41243489583334,153.37993683767078L167.529296875,153.67382612603055L168.64615885416666,153.94240774939075L169.76302083333331,153.4530678817833L170.8798828125,153.4255963411094L171.99674479166669,153.0847599736403L173.11360677083334,153.373820248676L174.23046875,153.37866803973586L175.34733072916666,153.47674428279757L176.46419270833334,153.3174033679978L177.5810546875,153.48464600623961L178.69791666666666,153.66629052541037L179.81477864583331,153.935303029038L180.931640625,154.18095408999244L182.04850260416669,154.3292737986952L183.16536458333334,154.36913160148964L184.2822265625,154.5858854776811L185.39908854166666,154.5898122657687L186.51595052083331,154.51049325516993L187.6328125,154.69403509495262L188.74967447916669,154.30302772755425L189.86653645833334,154.5003535497117L190.9833984375,154.25485030530638L192.10026041666666,154.49510707813045L193.21712239583334,154.39259955889895L194.333984375,154.5447030292181L195.45084635416666,154.64337676556312L196.56770833333331,154.82363094083743L197.6845703125,154.76584360024881L198.80143229166669,154.97680007099336L199.91829427083334,155.01881492030373L201.03515625,154.77407049915064L202.15201822916666,154.29972404318812L203.26888020833331,154.4814740480712L204.3857421875,153.40289527734288L205.50260416666669,153.28646767433867L206.61946614583334,153.46739344474088L207.736328125,153.7516458029063L208.85319010416666,154.01287885736983L209.97005208333334,154.0129534779784L211.0869140625,154.2675984304122L212.20377604166666,154.4967766782923L213.32063802083331,154.26642647466204L214.4375,154.2015886997992L215.55436197916669,153.234648608668L216.67122395833334,153.49210409145473L217.7880859375,153.75779406246565L218.90494791666666,153.25586660410787L220.02180989583331,153.50548925582962L221.138671875,152.8852308664919L222.25553385416669,153.18425024449894L223.37239583333334,153.3327632762452L224.4892578125,153.59925213452163L225.60611979166666,153.11111274056233L226.72298177083334,153.05032941156418L227.83984375,153.06118191413475L228.95670572916666,153.2681464127843L230.07356770833331,153.43954913823876L231.1904296875,153.15518060943225L232.30729166666669,153.35728161299718L233.42415364583334,153.30792301518915L234.541015625,153.4127289187164L235.65787760416666,153.61987369072014L236.77473958333331,153.90185919579994L237.8916015625,153.8628356281154L239.00846354166669,154.11898060901672L240.12532552083334,154.27028409206173L241.2421875,154.384252682181L242.35904947916666,154.46200473281706L243.47591145833334,153.89455735668386L244.5927734375,153.63284367036036L245.70963541666666,153.90767958040138" style="fill: none;" fill="none"></path></g></g></g></g><g opacity="0.2"><g><g><g><path stroke="rgb(255, 112, 67)" stroke-width="2px" d="M23.4541015625,16.609505403041844L24.570963541666664,106.4226772069931L25.687825520833336,105.07206337451935L26.8046875,131.5958687245846L27.921549479166668,137.31733166724445L29.038411458333336,153.67150978669525L30.1552734375,156.95853188093753L31.272135416666668,142.88737805485727L32.388997395833336,140.54780382961036L33.505859375,155.03841549083592L34.62272135416667,149.77448327019812L35.739583333333336,153.51873227879406L36.8564453125,152.77461482137443L37.973307291666664,153.65672590881587L39.090169270833336,154.39355000406505L40.20703125,153.8729087200016L41.32389322916667,137.0328173518181L42.44075520833333,153.46265957057477L43.5576171875,152.57881498262287L44.674479166666664,150.1356500901282L45.791341145833336,128.69838427305223L46.908203125,156.6912576204166L48.025065104166664,139.28277968913318L49.14192708333333,146.18453690707685L50.2587890625,137.50281688123943L51.37565104166667,149.89865241497756L52.492513020833336,158.359223536402L53.609375,158.45898462804035L54.726236979166664,144.3695546194911L55.843098958333336,155.09466293379666L56.9599609375,157.3992895513773L58.07682291666667,155.89518015012146L59.19368489583333,154.11768538802863L60.310546875,154.537351750955L61.427408854166664,157.3346853369847L62.544270833333336,151.48216260150076L63.6611328125,156.45379986539484L64.77799479166667,158.5273077252321L65.89485677083333,133.28163829743863L67.01171875,148.47122123390437L68.12858072916666,155.35236865393819L69.24544270833334,155.0286435328424L70.3623046875,152.47239229381086L71.47916666666667,155.8734306201339L72.59602864583333,143.9444955468178L73.712890625,144.6228804320097L74.82975260416667,156.83486814815552L75.94661458333333,149.68193913549186L77.0634765625,153.31973973959686L78.18033854166667,158.12560928631575L79.29720052083333,158.10959418788553L80.4140625,136.37725216448308L81.53092447916666,151.74043835252525L82.64778645833334,158.4549842739478L83.7646484375,143.392642351985L84.88151041666666,133.52446024417878L85.99837239583334,157.90386183299125L87.115234375,158.73172602541746L88.23209635416667,158.11546593457462L89.34895833333333,143.49031181931497L90.4658203125,158.15155203798787L91.58268229166667,158.77099860641175L92.69954427083333,156.13533491939307L93.81640625,150.06027743518354L94.93326822916667,152.1266337811947L96.05013020833333,152.55391758978368L97.1669921875,158.04721256643535L98.28385416666666,156.63280654158444L99.40071614583334,153.65490734875203L100.517578125,145.52577506303788L101.63444010416666,155.35910945869983L102.75130208333334,154.21775762289764L103.8681640625,155.79462195485831L104.98502604166667,153.99365702010692L106.10188802083333,155.46192173212768L107.21875,156.27925963997842L108.33561197916667,156.67140857800842L109.45247395833333,157.5474626339972L110.5693359375,156.21850601881744L111.68619791666667,158.2941856171936L112.80305989583333,158.520905427821L113.919921875,158.26357654128225L115.03678385416666,143.2917749091983L116.15364583333334,153.78822731897236L117.2705078125,158.21363825881855L118.38736979166666,151.0941861972213L119.50423177083334,155.48006678111852L120.62109375,158.27882692795248L121.73795572916667,141.03013369739057L122.85481770833333,158.80024128961378L123.9716796875,146.89101518243552L125.08854166666667,149.15024571418763L126.20540364583333,159.2464353946969L127.322265625,157.5495639016852L128.43912760416669,157.67687415070833L129.55598958333334,158.62339027966374L130.6728515625,154.84316491261126L131.78971354166666,147.1606420978904L132.90657552083334,157.49939772225918L134.0234375,151.8038037635386L135.14029947916666,150.64538561850787L136.25716145833331,158.68062044070103L137.3740234375,147.47800786346198L138.49088541666669,157.69193216431887L139.60774739583334,159.11875877967105L140.724609375,158.24781241798775L141.84147135416666,143.5108843624592L142.95833333333334,156.665062574856L144.0751953125,157.33965126536788L145.19205729166666,151.45024416893722L146.30891927083331,158.10562515417115L147.42578125,157.8315686305985L148.54264322916669,159.05972716114485L149.65950520833334,145.6797499984503L150.7763671875,158.1840493205935L151.89322916666666,156.83772407211364L153.01009114583331,158.8114702221472L154.126953125,139.77684118151666L155.24381510416669,158.48168151704596L156.36067708333334,158.85777867883445L157.4775390625,139.5808956205845L158.59440104166666,155.44679135195912L159.71126302083334,157.54134939070792L160.828125,156.9654365407303L161.94498697916666,147.13681091666223L163.06184895833331,154.45773864649237L164.1787109375,158.77534558642657L165.29557291666669,147.84215902090074L166.41243489583334,147.45890309214593L167.529296875,159.25025326122415L168.64615885416666,159.03897376342212L169.76302083333331,144.16683462560178L170.8798828125,152.9042356900871L171.99674479166669,146.61592467427255L173.11360677083334,158.86028080615216L174.23046875,153.47068549990655L175.34733072916666,155.33845218569041L176.46419270833334,150.2926126599312L177.5810546875,156.65957722272725L178.69791666666666,157.11477226875724L179.81477864583331,159.04265166185797L180.931640625,158.84495059372858L182.04850260416669,157.14541315957905L183.16536458333334,155.1259358368814L184.2822265625,158.7016568963416L185.39908854166666,154.66437731422485L186.51595052083331,153.00427495613695L187.6328125,158.1794771223329L188.74967447916669,146.87763775438071L189.86653645833334,158.24774631550537L190.9833984375,149.5924136258662L192.10026041666666,159.058010186255L193.21712239583334,152.4457574442029L194.333984375,157.4335401982069L195.45084635416666,156.51748210676016L196.56770833333331,158.24725301954896L197.6845703125,153.6682518079877L198.80143229166669,158.98369789095597L199.91829427083334,155.81685579679908L201.03515625,150.12526161521674L202.15201822916666,145.28959963023664L203.26888020833331,157.9338293356821L204.3857421875,132.91494326591493L205.50260416666669,151.074860534817L206.61946614583334,156.9042193779722L207.736328125,159.15130074532937L208.85319010416666,158.97531171545853L209.97005208333334,154.01437099948527L211.0869140625,159.1049770302605L212.20377604166666,158.85041484581308L213.32063802083331,149.890487357229L214.4375,152.96986210271717L215.55436197916669,134.86549465656282L216.67122395833334,158.38307334501297L217.7880859375,158.80523202703336L218.90494791666666,143.72045000195504L220.02180989583331,158.24775027176366L221.138671875,141.10166548490525L222.25553385416669,158.86500288890676L223.37239583333334,156.15422044806184L224.4892578125,158.6620453546755L225.60611979166666,143.83732578456403L226.72298177083334,151.8955480746925L227.83984375,153.26736217662693L228.95670572916666,157.2001587079838L230.07356770833331,156.69595452323557L231.1904296875,147.7525669142604L232.30729166666669,157.19693847857417L233.42415364583334,152.37017049193383L234.541015625,155.40391836985947L235.65787760416666,157.55539394281806L236.77473958333331,159.25928581102636L237.8916015625,153.12142701745034L239.00846354166669,158.9854909620015L240.12532552083334,157.14491318743677L241.2421875,156.549557800591L242.35904947916666,155.93923011906446L243.47591145833334,143.1134979978204L244.5927734375,148.66047676205636L245.70963541666666,159.12936919655186" style="fill: none;" fill="none"></path></g></g></g></g></g></g><g transform="translate(61, 177)" clip-path="url(#clip_1)"><clipPath id="clip_1"><rect width="268" height="23"></rect></clipPath><g><g><line x1="0" y1="0" x2="0" y2="5" style="visibility: inherit;" fill="rgb(0, 0, 0)" stroke="rgb(204, 204, 204)" stroke-width="1px"></line><line x1="22.337239583333332" y1="0" x2="22.337239583333332" y2="5" style="visibility: inherit;" fill="rgb(0, 0, 0)" stroke="rgb(204, 204, 204)" stroke-width="1px"></line><line x1="44.674479166666664" y1="0" x2="44.674479166666664" y2="5" style="visibility: inherit;" fill="rgb(0, 0, 0)" stroke="rgb(204, 204, 204)" stroke-width="1px"></line><line x1="67.01171875" y1="0" x2="67.01171875" y2="5" style="visibility: inherit;" fill="rgb(0, 0, 0)" stroke="rgb(204, 204, 204)" stroke-width="1px"></line><line x1="89.34895833333333" y1="0" x2="89.34895833333333" y2="5" style="visibility: inherit;" fill="rgb(0, 0, 0)" stroke="rgb(204, 204, 204)" stroke-width="1px"></line><line x1="111.68619791666667" y1="0" x2="111.68619791666667" y2="5" style="visibility: inherit;" fill="rgb(0, 0, 0)" stroke="rgb(204, 204, 204)" stroke-width="1px"></line><line x1="134.0234375" y1="0" x2="134.0234375" y2="5" style="visibility: inherit;" fill="rgb(0, 0, 0)" stroke="rgb(204, 204, 204)" stroke-width="1px"></line><line x1="156.36067708333334" y1="0" x2="156.36067708333334" y2="5" style="visibility: inherit;" fill="rgb(0, 0, 0)" stroke="rgb(204, 204, 204)" stroke-width="1px"></line><line x1="178.69791666666666" y1="0" x2="178.69791666666666" y2="5" style="visibility: inherit;" fill="rgb(0, 0, 0)" stroke="rgb(204, 204, 204)" stroke-width="1px"></line><line x1="201.03515625" y1="0" x2="201.03515625" y2="5" style="visibility: inherit;" fill="rgb(0, 0, 0)" stroke="rgb(204, 204, 204)" stroke-width="1px"></line><line x1="223.37239583333334" y1="0" x2="223.37239583333334" y2="5" style="visibility: inherit;" fill="rgb(0, 0, 0)" stroke="rgb(204, 204, 204)" stroke-width="1px"></line><line x1="245.70963541666666" y1="0" x2="245.70963541666666" y2="5" style="visibility: inherit;" fill="rgb(0, 0, 0)" stroke="rgb(204, 204, 204)" stroke-width="1px"></line><line x1="268.046875" y1="0" x2="268.046875" y2="5" style="visibility: inherit;" fill="rgb(0, 0, 0)" stroke="rgb(204, 204, 204)" stroke-width="1px"></line></g><g transform="translate(0, 8)"><text x="0" y="0" dx="0em" dy="0.95em" style="text-anchor: middle; visibility: hidden; font-family: Roboto, sans-serif; font-size: 12px; font-weight: 200;" fill="rgb(33, 33, 33)" stroke="none" stroke-width="1px">-2k</text><text x="22.337239583333332" y="0" dx="0em" dy="0.95em" style="text-anchor: middle; visibility: inherit; font-family: Roboto, sans-serif; font-size: 12px; font-weight: 200;" fill="rgb(33, 33, 33)" stroke="none" stroke-width="1px">0</text><text x="44.674479166666664" y="0" dx="0em" dy="0.95em" style="text-anchor: middle; visibility: hidden; font-family: Roboto, sans-serif; font-size: 12px; font-weight: 200;" fill="rgb(33, 33, 33)" stroke="none" stroke-width="1px">2k</text><text x="67.01171875" y="0" dx="0em" dy="0.95em" style="text-anchor: middle; visibility: inherit; font-family: Roboto, sans-serif; font-size: 12px; font-weight: 200;" fill="rgb(33, 33, 33)" stroke="none" stroke-width="1px">4k</text><text x="89.34895833333333" y="0" dx="0em" dy="0.95em" style="text-anchor: middle; visibility: hidden; font-family: Roboto, sans-serif; font-size: 12px; font-weight: 200;" fill="rgb(33, 33, 33)" stroke="none" stroke-width="1px">6k</text><text x="111.68619791666667" y="0" dx="0em" dy="0.95em" style="text-anchor: middle; visibility: inherit; font-family: Roboto, sans-serif; font-size: 12px; font-weight: 200;" fill="rgb(33, 33, 33)" stroke="none" stroke-width="1px">8k</text><text x="134.0234375" y="0" dx="0em" dy="0.95em" style="text-anchor: middle; visibility: hidden; font-family: Roboto, sans-serif; font-size: 12px; font-weight: 200;" fill="rgb(33, 33, 33)" stroke="none" stroke-width="1px">10k</text><text x="156.36067708333334" y="0" dx="0em" dy="0.95em" style="text-anchor: middle; visibility: inherit; font-family: Roboto, sans-serif; font-size: 12px; font-weight: 200;" fill="rgb(33, 33, 33)" stroke="none" stroke-width="1px">12k</text><text x="178.69791666666666" y="0" dx="0em" dy="0.95em" style="text-anchor: middle; visibility: hidden; font-family: Roboto, sans-serif; font-size: 12px; font-weight: 200;" fill="rgb(33, 33, 33)" stroke="none" stroke-width="1px">14k</text><text x="201.03515625" y="0" dx="0em" dy="0.95em" style="text-anchor: middle; visibility: inherit; font-family: Roboto, sans-serif; font-size: 12px; font-weight: 200;" fill="rgb(33, 33, 33)" stroke="none" stroke-width="1px">16k</text><text x="223.37239583333334" y="0" dx="0em" dy="0.95em" style="text-anchor: middle; visibility: hidden; font-family: Roboto, sans-serif; font-size: 12px; font-weight: 200;" fill="rgb(33, 33, 33)" stroke="none" stroke-width="1px">18k</text><text x="245.70963541666666" y="0" dx="0em" dy="0.95em" style="text-anchor: middle; visibility: inherit; font-family: Roboto, sans-serif; font-size: 12px; font-weight: 200;" fill="rgb(33, 33, 33)" stroke="none" stroke-width="1px">20k</text><text x="268.046875" y="0" dx="0em" dy="0.95em" style="text-anchor: middle; visibility: hidden; font-family: Roboto, sans-serif; font-size: 12px; font-weight: 200;" fill="rgb(33, 33, 33)" stroke="none" stroke-width="1px">22k</text></g><line x1="0" y1="0" x2="268.046875" y2="0" fill="rgb(0, 0, 0)" stroke="rgb(204, 204, 204)" stroke-width="1px"></line></g></g></g></g></svg>