<svg viewBox="0 0 1112.5999755859375 400" xmlns="http://www.w3.org/2000/svg"><g><g><g><g><g><line x1="41.171875" y1="377" x2="36.171875" y2="377" style="visibility: inherit;" fill="rgb(0, 0, 0)" stroke="rgb(204, 204, 204)" stroke-width="1px"></line><line x1="41.171875" y1="329.875" x2="36.171875" y2="329.875" style="visibility: inherit;" fill="rgb(0, 0, 0)" stroke="rgb(204, 204, 204)" stroke-width="1px"></line><line x1="41.171875" y1="282.75" x2="36.171875" y2="282.75" style="visibility: inherit;" fill="rgb(0, 0, 0)" stroke="rgb(204, 204, 204)" stroke-width="1px"></line><line x1="41.171875" y1="235.625" x2="36.171875" y2="235.625" style="visibility: inherit;" fill="rgb(0, 0, 0)" stroke="rgb(204, 204, 204)" stroke-width="1px"></line><line x1="41.171875" y1="188.5" x2="36.171875" y2="188.5" style="visibility: inherit;" fill="rgb(0, 0, 0)" stroke="rgb(204, 204, 204)" stroke-width="1px"></line><line x1="41.171875" y1="141.375" x2="36.171875" y2="141.375" style="visibility: inherit;" fill="rgb(0, 0, 0)" stroke="rgb(204, 204, 204)" stroke-width="1px"></line><line x1="41.171875" y1="94.25000000000004" x2="36.171875" y2="94.25000000000004" style="visibility: inherit;" fill="rgb(0, 0, 0)" stroke="rgb(204, 204, 204)" stroke-width="1px"></line><line x1="41.171875" y1="47.12500000000004" x2="36.171875" y2="47.12500000000004" style="visibility: inherit;" fill="rgb(0, 0, 0)" stroke="rgb(204, 204, 204)" stroke-width="1px"></line><line x1="41.171875" y1="0" x2="36.171875" y2="0" style="visibility: inherit;" fill="rgb(0, 0, 0)" stroke="rgb(204, 204, 204)" stroke-width="1px"></line></g><g transform="translate(31.171875, 0)"><text x="0" y="377" dx="0em" dy="0.3em" style="text-anchor: end; visibility: hidden; font-family: Roboto, sans-serif; font-size: 12px; font-weight: 200;" fill="rgb(33, 33, 33)" stroke="none" stroke-width="1px">0</text><text x="0" y="329.875" dx="0em" dy="0.3em" style="text-anchor: end; visibility: inherit; font-family: Roboto, sans-serif; font-size: 12px; font-weight: 200;" fill="rgb(33, 33, 33)" stroke="none" stroke-width="1px">0.2</text><text x="0" y="282.75" dx="0em" dy="0.3em" style="text-anchor: end; visibility: inherit; font-family: Roboto, sans-serif; font-size: 12px; font-weight: 200;" fill="rgb(33, 33, 33)" stroke="none" stroke-width="1px">0.4</text><text x="0" y="235.625" dx="0em" dy="0.3em" style="text-anchor: end; visibility: inherit; font-family: Roboto, sans-serif; font-size: 12px; font-weight: 200;" fill="rgb(33, 33, 33)" stroke="none" stroke-width="1px">0.6</text><text x="0" y="188.5" dx="0em" dy="0.3em" style="text-anchor: end; visibility: inherit; font-family: Roboto, sans-serif; font-size: 12px; font-weight: 200;" fill="rgb(33, 33, 33)" stroke="none" stroke-width="1px">0.8</text><text x="0" y="141.375" dx="0em" dy="0.3em" style="text-anchor: end; visibility: inherit; font-family: Roboto, sans-serif; font-size: 12px; font-weight: 200;" fill="rgb(33, 33, 33)" stroke="none" stroke-width="1px">1</text><text x="0" y="94.25000000000004" dx="0em" dy="0.3em" style="text-anchor: end; visibility: inherit; font-family: Roboto, sans-serif; font-size: 12px; font-weight: 200;" fill="rgb(33, 33, 33)" stroke="none" stroke-width="1px">1.2</text><text x="0" y="47.12500000000004" dx="0em" dy="0.3em" style="text-anchor: end; visibility: inherit; font-family: Roboto, sans-serif; font-size: 12px; font-weight: 200;" fill="rgb(33, 33, 33)" stroke="none" stroke-width="1px">1.4</text><text x="0" y="0" dx="0em" dy="0.3em" style="text-anchor: end; visibility: hidden; font-family: Roboto, sans-serif; font-size: 12px; font-weight: 200;" fill="rgb(33, 33, 33)" stroke="none" stroke-width="1px">1.6</text></g><line x1="41.171875" y1="0" x2="41.171875" y2="377" fill="rgb(0, 0, 0)" stroke="rgb(204, 204, 204)" stroke-width="1px"></line></g></g><g transform="translate(41, 0)" clip-path="url(#clip_0)"><clipPath id="clip_0"><rect width="1071" height="377"></rect></clipPath><g><g><g><line x1="0" y1="0" x2="0" y2="377" fill="rgb(0, 0, 0)" stroke="rgb(66, 66, 66)" stroke-width="1px" opacity="0.25"></line><line x1="89.28567708333333" y1="0" x2="89.28567708333333" y2="377" fill="rgb(0, 0, 0)" stroke="rgb(66, 66, 66)" stroke-width="1px" opacity="0.25"></line><line x1="178.57135416666665" y1="0" x2="178.57135416666665" y2="377" fill="rgb(0, 0, 0)" stroke="rgb(66, 66, 66)" stroke-width="1px" opacity="0.25"></line><line x1="267.85703125" y1="0" x2="267.85703125" y2="377" fill="rgb(0, 0, 0)" stroke="rgb(66, 66, 66)" stroke-width="1px" opacity="0.25"></line><line x1="357.1427083333333" y1="0" x2="357.1427083333333" y2="377" fill="rgb(0, 0, 0)" stroke="rgb(66, 66, 66)" stroke-width="1px" opacity="0.25"></line><line x1="446.42838541666663" y1="0" x2="446.42838541666663" y2="377" fill="rgb(0, 0, 0)" stroke="rgb(66, 66, 66)" stroke-width="1px" opacity="0.25"></line><line x1="535.7140625" y1="0" x2="535.7140625" y2="377" fill="rgb(0, 0, 0)" stroke="rgb(66, 66, 66)" stroke-width="1px" opacity="0.25"></line><line x1="624.9997395833333" y1="0" x2="624.9997395833333" y2="377" fill="rgb(0, 0, 0)" stroke="rgb(66, 66, 66)" stroke-width="1px" opacity="0.25"></line><line x1="714.2854166666666" y1="0" x2="714.2854166666666" y2="377" fill="rgb(0, 0, 0)" stroke="rgb(66, 66, 66)" stroke-width="1px" opacity="0.25"></line><line x1="803.5710937499999" y1="0" x2="803.5710937499999" y2="377" fill="rgb(0, 0, 0)" stroke="rgb(66, 66, 66)" stroke-width="1px" opacity="0.25"></line><line x1="892.8567708333333" y1="0" x2="892.8567708333333" y2="377" fill="rgb(0, 0, 0)" stroke="rgb(66, 66, 66)" stroke-width="1px" opacity="0.25"></line><line x1="982.1424479166666" y1="0" x2="982.1424479166666" y2="377" fill="rgb(0, 0, 0)" stroke="rgb(66, 66, 66)" stroke-width="1px" opacity="0.25"></line><line x1="1071.428125" y1="0" x2="1071.428125" y2="377" fill="rgb(0, 0, 0)" stroke="rgb(66, 66, 66)" stroke-width="1px" opacity="0.25"></line></g><g><line x1="0" y1="377" x2="1071.428125" y2="377" fill="rgb(0, 0, 0)" stroke="rgb(66, 66, 66)" stroke-width="1px" opacity="0.25"></line><line x1="0" y1="329.875" x2="1071.428125" y2="329.875" fill="rgb(0, 0, 0)" stroke="rgb(66, 66, 66)" stroke-width="1px" opacity="0.25"></line><line x1="0" y1="282.75" x2="1071.428125" y2="282.75" fill="rgb(0, 0, 0)" stroke="rgb(66, 66, 66)" stroke-width="1px" opacity="0.25"></line><line x1="0" y1="235.625" x2="1071.428125" y2="235.625" fill="rgb(0, 0, 0)" stroke="rgb(66, 66, 66)" stroke-width="1px" opacity="0.25"></line><line x1="0" y1="188.5" x2="1071.428125" y2="188.5" fill="rgb(0, 0, 0)" stroke="rgb(66, 66, 66)" stroke-width="1px" opacity="0.25"></line><line x1="0" y1="141.375" x2="1071.428125" y2="141.375" fill="rgb(0, 0, 0)" stroke="rgb(66, 66, 66)" stroke-width="1px" opacity="0.25"></line><line x1="0" y1="94.25000000000004" x2="1071.428125" y2="94.25000000000004" fill="rgb(0, 0, 0)" stroke="rgb(66, 66, 66)" stroke-width="1px" opacity="0.25"></line><line x1="0" y1="47.12500000000004" x2="1071.428125" y2="47.12500000000004" fill="rgb(0, 0, 0)" stroke="rgb(66, 66, 66)" stroke-width="1px" opacity="0.25"></line><line x1="0" y1="0" x2="1071.428125" y2="0" fill="rgb(0, 0, 0)" stroke="rgb(66, 66, 66)" stroke-width="1px" opacity="0.25"></line></g></g></g><g><g><line x1="0" y1="377" x2="1071.428125" y2="377" fill="rgb(0, 0, 0)" stroke="rgb(153, 153, 153)" stroke-width="1.5px"></line></g></g><g><g><line x1="89.28567708333333" y1="0" x2="89.28567708333333" y2="377" fill="rgb(0, 0, 0)" stroke="rgb(153, 153, 153)" stroke-width="1.5px"></line></g></g><g><g><g><g><g><path stroke="rgb(255, 112, 67)" stroke-width="2px" d="M93.74996093749999,58.7711097002029L98.21424479166666,152.481457710266L102.67852864583332,191.8931473490964L107.14281249999999,215.88312078323793L111.60709635416666,237.6479246460426L116.07138020833332,259.06235239136686L120.53566406249999,274.4775615079435L124.99994791666666,287.3140461884991L129.46423177083332,297.2024010886186L133.928515625,302.250703048476L138.39279947916665,308.0867489932856L142.85708333333332,313.5379791509517L147.3213671875,309.83488389377334L151.78565104166665,310.4568357570502L156.24993489583332,314.7837289192783L160.71421875,311.8814049873792L165.17850260416665,315.9093057236404L169.64278645833332,319.24537728606964L174.10707031249999,322.4944323373275L178.57135416666665,324.88193154474624L183.03563802083332,326.88843945891847L187.49992187499998,327.39321504677906L191.96420572916665,327.9246738309263L196.42848958333332,328.283549718325L200.89277343749998,328.3068683151634L205.35705729166665,327.9368163836389L209.82134114583332,329.67918048586404L214.28562499999998,329.94191466631037L218.74990885416665,331.71783066485847L223.21419270833331,332.3207051038914L227.67847656249998,333.3364383114945L232.14276041666665,334.8085531296836L236.6070442708333,336.68308076275304L241.07132812499998,336.4981013082209L245.53561197916665,337.7415916412948L249.9998958333333,339.1994181950493L254.46417968749998,340.1123905130544L258.92846354166664,340.62977162898284L263.3927473958333,341.0138635188549L267.85703125,340.3960590717523L272.3213151041666,341.1147075340492L276.7855989583333,342.30531373505016L281.2498828125,343.0050276680698L285.71416666666664,343.6490939761383L290.1784505208333,344.3803071097815L294.642734375,344.6597724004763L299.10701822916667,345.1626473192157L303.5713020833333,345.9557700651574L308.03558593749995,345.7641382709101L312.49986979166664,346.6659344775221L316.96415364583333,347.7863550585417L321.4284375,348.4461074490033L325.8927213541666,348.8909825301461L330.3570052083333,348.759997180867L334.8212890625,349.5343078842639L339.28557291666664,349.8319652696618L343.74985677083333,350.711495044498L348.21414062499997,351.22086682986105L352.6784244791666,351.31425748731556L357.1427083333333,351.0672307660256L361.6069921875,351.1845256030482L366.07127604166664,351.75588256264126L370.5355598958333,351.5045604051668L374.99984374999997,350.74172162823425L379.46412760416666,351.10979029608006L383.9284114583333,351.06198691896395L388.39269531249994,351.81750477320475L392.85697916666663,352.1624974676776L397.3212630208333,352.2738177194312L401.78554687499997,352.7555805998889L406.2498307291666,352.6424161149917L410.7141145833333,353.14314802373457L415.1783984375,353.2164962684393L419.64268229166663,352.9413611908187L424.10696614583327,352.9292327044014L428.57124999999996,353.4426108291653L433.03553385416666,353.10872857219056L437.4998177083333,352.0895675921974L441.96410156249993,351.82042950245733L446.42838541666663,352.15997919092666L450.8926692708333,349.87866480301057L455.35695312499996,347.9262209461434L459.8212369791666,348.60033257221465L464.2855208333333,349.1074633072604L468.74980468749993,348.6136573851328L473.2140885416666,348.16247283189387L477.6783723958333,345.78729495328315L482.14265624999996,346.3192318458445L486.6069401041666,346.1678063404339L491.0712239583333,346.1900381438948L495.5355078125,344.9106099829283L499.9997916666666,345.5155801773048L504.46407552083326,344.4586419260505L508.92835937499996,345.02212206159567L513.3926432291667,345.88199023689214L517.8569270833333,345.7367159436069L522.3212109374999,346.4652906648077L526.7854947916666,347.3966237358572L531.2497786458333,344.05306521551915L535.7140625,344.5395953838482L540.1783463541666,345.59401665718497L544.6426302083332,344.75058259079077L549.1069140624999,345.12459349099413L553.5711979166666,345.67284064001217L558.0354817708334,346.3178458638202L562.499765625,346.4713202989627L566.9640494791666,346.43338011918667L571.4283333333333,345.4543847039641L575.8926171874999,345.5646400316546L580.3569010416666,345.75726614539894L584.8211848958332,346.54955599309204L589.28546875,345.3176029625837L593.7497526041667,344.7426541968L598.2140364583333,345.7077110954789L602.6783203125,346.4617595462515L607.1426041666666,347.32328199399257L611.6068880208333,345.3971126318995L616.0711718749999,345.8072009902836L620.5354557291666,346.078439788661L624.9997395833333,346.6725657830497L629.4640234374999,347.4146417147354L633.9283072916667,347.9114717407847L638.3925911458333,347.614444313376L642.856875,346.65711972319485L647.3211588541666,345.6593072666905L651.7854427083332,345.9641731395424L656.2497265625,346.8465701054008L660.7140104166666,346.6538317472596L665.1782942708332,345.74238797685825L669.642578125,345.7913560941793L674.1068619791666,344.42159796156454L678.5711458333333,343.75257406344537L683.0354296874999,342.6471792967582L687.4997135416667,343.1041868940941L691.9639973958333,343.1950343899341L696.4282812499999,342.88096052129447L700.8925651041666,341.6428710855486L705.3568489583332,341.7121354579552L709.8211328125,341.7626967499463L714.2854166666666,342.65600920853643L718.7497005208332,343.10858134686265L723.213984375,343.4659168139134L727.6782682291666,343.59813603200894L732.1425520833333,344.2786189335011L736.6068359374999,345.1277396752271L741.0711197916665,346.15010383966336L745.5354036458332,344.2759578898914L749.9996874999999,344.21063450625064L754.4639713541667,343.9548838789229L758.9282552083333,344.3681257356655L763.3925390625,342.81492261868846L767.8568229166666,340.526343998731L772.3211067708332,340.45087665423495L776.7853906249999,341.4935397314846L781.2496744791665,341.140064773681L785.7139583333333,340.92932156078183L790.1782421875,342.29054834149287L794.6425260416667,342.7808157320027L799.1068098958333,342.7350462240148L803.5710937499999,343.7900715547874L808.0353776041666,344.2347124409024L812.4996614583332,345.3756314378826L816.9639453124998,343.43294656678034L821.4282291666666,344.52571667999234L825.8925130208333,345.46544331663836L830.356796875,346.01808225108664L834.8210807291666,346.0720152152024L839.2853645833333,346.92250729506486L843.7496484374999,346.08533248001436L848.2139322916665,346.2988320906276L852.6782161458332,346.6990036421539L857.1424999999999,347.37615496929124L861.6067838541667,345.66997819648776L866.0710677083333,344.06223235347903L870.5353515625,343.89966881500453L874.9996354166666,342.91071688352014L879.4639192708332,344.05566173801355L883.9282031249999,344.84783910586214L888.3924869791666,343.1875681147481L892.8567708333333,343.56337228345814L897.3210546874999,344.2769688605279L901.7853385416666,343.6550423468473L906.2496223958333,343.35194704957706L910.7139062499999,343.59576688959726L915.1781901041666,342.0751176471888L919.6424739583332,339.20948533650744L924.1067578125,339.37587687200687L928.5710416666666,339.64747411879665L933.0353255208332,340.44727989752676L937.4996093749999,340.20850345763245L941.9638932291666,341.30536489772715L946.4281770833333,342.02777435138574L950.8924609374999,342.4386055559824L955.3567447916666,342.80727255821085L959.8210286458333,343.4651382914182L964.2853124999999,344.270721222082L968.7495963541666,344.8805852824339L973.2138802083332,345.79664276946875L977.6781640625,346.56421854966237L982.1424479166666,347.44426999468357" style="fill: none;" fill="none"></path></g><g><path stroke="rgb(0, 119, 187)" stroke-width="2px" d="M89.28567708333333,356.0415510814637L133.928515625,320.66844069523114L178.57135416666665,315.200531579337L223.21419270833331,311.7585838068965L267.85703125,307.3434890682251L312.49986979166664,306.8932070415736L357.1427083333333,304.93565544670645L401.78554687499997,304.6304766338426L446.42838541666663,304.03991521979765L491.0712239583333,302.57842473085975L535.7140625,302.3656396860482L580.3569010416666,301.6003065628754L624.9997395833333,301.97129934083904L669.642578125,302.3012080966113L714.2854166666666,302.1962723286436L758.9282552083333,301.53287022856847L803.5710937499999,301.2608531756163L848.2139322916665,301.35087600225177L892.8567708333333,300.920563737822L937.4996093749999,299.3656437819166L982.1424479166666,298.6800912118943" style="fill: none;" fill="none"></path></g></g></g></g><g opacity="0.2"><g><g><g><path stroke="rgb(255, 112, 67)" stroke-width="2px" d="M93.74996093749999,58.77110970020294L98.21424479166666,241.50628831982613L102.67852864583332,264.90330240502954L107.14281249999999,280.89295004308224L111.60709635416666,314.3553912900388L116.07138020833332,351.1050359932706L120.53566406249999,352.0662256591022L124.99994791666666,360.8875310588628L129.46423177083332,360.43854741193354L133.928515625,337.7163430098444L138.39279947916665,352.5807525059208L142.85708333333332,358.198808029294L147.3213671875,277.4951666854322L151.78565104166665,316.20771392062306L156.24993489583332,356.90246588364244L160.71421875,282.28505355119705L165.17850260416665,358.75647559110075L169.64278645833332,356.1280291322619L174.10707031249999,359.7056257426739L178.57135416666665,353.1267193732783L183.03563802083332,351.34529785998166L187.49992187499998,333.7177145089954L191.96420572916665,334.7554405853152L196.42848958333332,333.006435174495L200.89277343749998,328.6205549426377L205.35705729166665,322.85615208372474L209.82134114583332,354.0602873247117L214.28562499999998,333.6841590590775L218.74990885416665,357.43538379948586L223.21419270833331,341.1873149573803L227.67847656249998,348.49307057261467L232.14276041666665,357.07542374078184L236.6070442708333,365.3998727123253L241.07132812499998,333.630270909518L245.53561197916665,357.2374463202432L249.9998958333333,362.29782813740894L254.46417968749998,354.721951501444L258.92846354166664,348.98655548039824L263.3927473958333,347.27244148775935L267.85703125,330.24568221345544L272.3213151041666,353.0142821073532L276.7855989583333,362.16504851635545L281.2498828125,354.75765924714506L285.71416666666664,354.5380144780502L290.1784505208333,356.81911621056497L294.642734375,349.44160101749003L299.10701822916667,353.8146622739732L303.5713020833333,359.67270755488425L308.03558593749995,342.4335574153811L312.49986979166664,362.4122886667028L316.96415364583333,367.4363421536982L321.4284375,360.0651012714952L325.8927213541666,356.7566346777603L330.3570052083333,346.43545824848115L334.8212890625,363.32418443914503L339.28557291666664,355.1507358700037L343.74985677083333,366.4773556943983L348.21414062499997,360.3788940589875L352.6784244791666,352.9981012670323L357.1427083333333,346.6013324894011L361.6069921875,353.31045626476407L366.07127604166664,362.13654727488756L370.5355598958333,346.92797936312854L374.99984374999997,336.8202822357416L379.46412760416666,357.8406772464514L383.9284114583333,350.1861004931852L388.39269531249994,365.68620968423784L392.85697916666663,358.5064739715308L397.3212630208333,354.32425780035555L401.78554687499997,361.64329936541617L406.2498307291666,350.55159929022193L410.7141145833333,362.4077470768243L415.1783984375,354.57541983388364L419.64268229166663,347.83742439746857L424.10696614583327,352.7039688061923L428.57124999999996,362.98860448459163L433.03553385416666,346.89359529688954L437.4998177083333,333.0985134076327L441.96410156249993,346.8003829829395L446.42838541666663,358.4992674672976L450.8926692708333,307.249549895525L455.35695312499996,311.4118160754442L459.8212369791666,361.21754681970924L464.2855208333333,358.60651008132845L468.74980468749993,339.35755456611514L473.2140885416666,339.69951679743826L477.6783723958333,301.20678813010454L482.14265624999996,356.30946801789105L486.6069401041666,343.32224490866065L491.0712239583333,346.60804568603635L495.5355078125,320.84185251779854L499.9997916666666,356.9020357755944L504.46407552083326,324.5560303777456L508.92835937499996,355.6374777369201L513.3926432291667,362.08790117688477L517.8569270833333,342.99762393161654L522.3212109374999,360.2075881678611L526.7854947916666,364.9697585199028L531.2497786458333,280.9422035589814L535.7140625,353.7260582605377L540.1783463541666,365.5094089433551L544.6426302083332,328.81546937674284L549.1069140624999,352.19283015746623L553.5711979166666,356.0366601385176L558.0354817708334,358.513847252354L562.499765625,349.37397574353963L566.9640494791666,345.7156539969146L571.4283333333333,326.9303777795285L575.8926171874999,347.6512631010264L580.3569010416666,349.40350573323667L584.8211848958332,361.5497008319944L589.28546875,321.9893211014569L593.7497526041667,333.8535759858787L598.2140364583333,363.9880641112104L602.6783203125,360.74731407966465L607.1426041666666,363.64730969350785L611.6068880208333,308.89525915309787L616.0711718749999,353.5795915480703L620.5354557291666,351.21985728666186L624.9997395833333,357.93573990277946L629.4640234374999,361.4841593876481L633.9283072916667,357.3322087787092L638.3925911458333,341.9817332997918L642.856875,328.50105161592364L647.3211588541666,326.7336446028203L651.7854427083332,351.7471118206158L656.2497265625,363.5859552193433L660.7140104166666,342.99723068997264L665.1782942708332,328.44934033975005L669.642578125,346.72050577402115L674.1068619791666,318.42926587723196L678.5711458333333,331.0564657282084L683.0354296874999,321.66876596212387L687.4997135416667,351.7778706904501L691.9639973958333,344.919350201264L696.4282812499999,336.9194247741252L700.8925651041666,318.14114615134895L705.3568489583332,343.02699065580964L709.8211328125,342.72255140170455L714.2854166666666,359.6153522077948L718.7497005208332,351.700909438543L723.213984375,350.2503832131624L727.6782682291666,346.1085761319846L732.1425520833333,357.1993598137051L736.6068359374999,361.25103555899113L741.0711197916665,365.56358675751835L745.5354036458332,308.68710090219975L749.9996874999999,342.97014968283474L754.4639713541667,339.0980747696012L758.9282552083333,352.2159559261054L763.3925390625,313.3175072148442L767.8568229166666,297.06216866895556L772.3211067708332,339.0175866317004L776.7853906249999,361.2964005470276L781.2496744791665,334.42653257213533L785.7139583333333,336.9266119673848L790.1782421875,368.1451962054707L794.6425260416667,352.0929327355698L799.1068098958333,341.8656883928925L803.5710937499999,363.8297975161113L808.0353776041666,352.6805849727243L812.4996614583332,367.047475323081L816.9639453124998,306.53102016821504L821.4282291666666,365.28349337447435L825.8925130208333,363.3162827398628L830.356796875,356.5160059025511L834.8210807291666,347.0965360738337L839.2853645833333,363.0787788312882L843.7496484374999,330.18188928999007L848.2139322916665,350.3546273596585L852.6782161458332,354.30102143250406L857.1424999999999,360.2400341145694L861.6067838541667,313.25739742070436L866.0710677083333,313.5193384885788L870.5353515625,340.8113724347204L874.9996354166666,324.1230046171695L879.4639192708332,365.8070024573244L883.9282031249999,359.89749255403876L888.3924869791666,311.64583698660135L892.8567708333333,350.70291656814516L897.3210546874999,357.83397809416056L901.7853385416666,331.8395362403244L906.2496223958333,337.59364459477365L910.7139062499999,348.22795548290014L915.1781901041666,313.185083091259L919.6424739583332,284.76659090071917L924.1067578125,342.53708881139755L928.5710416666666,344.80746944248676L933.0353255208332,355.6426039226353L937.4996093749999,335.6720306798816L941.9638932291666,362.1445121737197L946.4281770833333,355.7527905823663L950.8924609374999,350.24398601427674L955.3567447916666,349.8115940047428L959.8210286458333,355.9639911893755L964.2853124999999,359.5761035317555L968.7495963541666,356.4675037590787L973.2138802083332,363.20102343847975L977.6781640625,361.1475919401273L982.1424479166666,364.16463048709556" style="fill: none;" fill="none"></path></g><g><path stroke="rgb(0, 119, 187)" stroke-width="2px" d="M89.28567708333333,356.0415510814637L133.928515625,287.06398582831025L178.57135416666665,305.07122994214296L223.21419270833331,302.4313355870545L267.85703125,291.78301195427775L312.49986979166664,304.95782186090946L357.1427083333333,295.08280089870095L401.78554687499997,302.88131638243794L446.42838541666663,300.2632680051029L491.0712239583333,292.3110722824931L535.7140625,300.74336689710617L580.3569010416666,295.3300866931677L624.9997395833333,305.2112380117178L669.642578125,305.35170954465866L714.2854166666666,301.17480915784836L758.9282552083333,294.7678494527936L803.5710937499999,298.3672463968396L848.2139322916665,302.3461425937712L892.8567708333333,295.99222837761045L937.4996093749999,280.9705029129982L982.1424479166666,290.32405034452677" style="fill: none;" fill="none"></path></g></g></g></g></g></g><g transform="translate(41, 377)" clip-path="url(#clip_1)"><clipPath id="clip_1"><rect width="1071" height="23"></rect></clipPath><g><g><line x1="0" y1="0" x2="0" y2="5" style="visibility: inherit;" fill="rgb(0, 0, 0)" stroke="rgb(204, 204, 204)" stroke-width="1px"></line><line x1="89.28567708333333" y1="0" x2="89.28567708333333" y2="5" style="visibility: inherit;" fill="rgb(0, 0, 0)" stroke="rgb(204, 204, 204)" stroke-width="1px"></line><line x1="178.57135416666665" y1="0" x2="178.57135416666665" y2="5" style="visibility: inherit;" fill="rgb(0, 0, 0)" stroke="rgb(204, 204, 204)" stroke-width="1px"></line><line x1="267.85703125" y1="0" x2="267.85703125" y2="5" style="visibility: inherit;" fill="rgb(0, 0, 0)" stroke="rgb(204, 204, 204)" stroke-width="1px"></line><line x1="357.1427083333333" y1="0" x2="357.1427083333333" y2="5" style="visibility: inherit;" fill="rgb(0, 0, 0)" stroke="rgb(204, 204, 204)" stroke-width="1px"></line><line x1="446.42838541666663" y1="0" x2="446.42838541666663" y2="5" style="visibility: inherit;" fill="rgb(0, 0, 0)" stroke="rgb(204, 204, 204)" stroke-width="1px"></line><line x1="535.7140625" y1="0" x2="535.7140625" y2="5" style="visibility: inherit;" fill="rgb(0, 0, 0)" stroke="rgb(204, 204, 204)" stroke-width="1px"></line><line x1="624.9997395833333" y1="0" x2="624.9997395833333" y2="5" style="visibility: inherit;" fill="rgb(0, 0, 0)" stroke="rgb(204, 204, 204)" stroke-width="1px"></line><line x1="714.2854166666666" y1="0" x2="714.2854166666666" y2="5" style="visibility: inherit;" fill="rgb(0, 0, 0)" stroke="rgb(204, 204, 204)" stroke-width="1px"></line><line x1="803.5710937499999" y1="0" x2="803.5710937499999" y2="5" style="visibility: inherit;" fill="rgb(0, 0, 0)" stroke="rgb(204, 204, 204)" stroke-width="1px"></line><line x1="892.8567708333333" y1="0" x2="892.8567708333333" y2="5" style="visibility: inherit;" fill="rgb(0, 0, 0)" stroke="rgb(204, 204, 204)" stroke-width="1px"></line><line x1="982.1424479166666" y1="0" x2="982.1424479166666" y2="5" style="visibility: inherit;" fill="rgb(0, 0, 0)" stroke="rgb(204, 204, 204)" stroke-width="1px"></line><line x1="1071.428125" y1="0" x2="1071.428125" y2="5" style="visibility: inherit;" fill="rgb(0, 0, 0)" stroke="rgb(204, 204, 204)" stroke-width="1px"></line></g><g transform="translate(0, 8)"><text x="0" y="0" dx="0em" dy="0.95em" style="text-anchor: middle; visibility: hidden; font-family: Roboto, sans-serif; font-size: 12px; font-weight: 200;" fill="rgb(33, 33, 33)" stroke="none" stroke-width="1px">-2k</text><text x="89.28567708333333" y="0" dx="0em" dy="0.95em" style="text-anchor: middle; visibility: inherit; font-family: Roboto, sans-serif; font-size: 12px; font-weight: 200;" fill="rgb(33, 33, 33)" stroke="none" stroke-width="1px">0</text><text x="178.57135416666665" y="0" dx="0em" dy="0.95em" style="text-anchor: middle; visibility: inherit; font-family: Roboto, sans-serif; font-size: 12px; font-weight: 200;" fill="rgb(33, 33, 33)" stroke="none" stroke-width="1px">2k</text><text x="267.85703125" y="0" dx="0em" dy="0.95em" style="text-anchor: middle; visibility: inherit; font-family: Roboto, sans-serif; font-size: 12px; font-weight: 200;" fill="rgb(33, 33, 33)" stroke="none" stroke-width="1px">4k</text><text x="357.1427083333333" y="0" dx="0em" dy="0.95em" style="text-anchor: middle; visibility: inherit; font-family: Roboto, sans-serif; font-size: 12px; font-weight: 200;" fill="rgb(33, 33, 33)" stroke="none" stroke-width="1px">6k</text><text x="446.42838541666663" y="0" dx="0em" dy="0.95em" style="text-anchor: middle; visibility: inherit; font-family: Roboto, sans-serif; font-size: 12px; font-weight: 200;" fill="rgb(33, 33, 33)" stroke="none" stroke-width="1px">8k</text><text x="535.7140625" y="0" dx="0em" dy="0.95em" style="text-anchor: middle; visibility: inherit; font-family: Roboto, sans-serif; font-size: 12px; font-weight: 200;" fill="rgb(33, 33, 33)" stroke="none" stroke-width="1px">10k</text><text x="624.9997395833333" y="0" dx="0em" dy="0.95em" style="text-anchor: middle; visibility: inherit; font-family: Roboto, sans-serif; font-size: 12px; font-weight: 200;" fill="rgb(33, 33, 33)" stroke="none" stroke-width="1px">12k</text><text x="714.2854166666666" y="0" dx="0em" dy="0.95em" style="text-anchor: middle; visibility: inherit; font-family: Roboto, sans-serif; font-size: 12px; font-weight: 200;" fill="rgb(33, 33, 33)" stroke="none" stroke-width="1px">14k</text><text x="803.5710937499999" y="0" dx="0em" dy="0.95em" style="text-anchor: middle; visibility: inherit; font-family: Roboto, sans-serif; font-size: 12px; font-weight: 200;" fill="rgb(33, 33, 33)" stroke="none" stroke-width="1px">16k</text><text x="892.8567708333333" y="0" dx="0em" dy="0.95em" style="text-anchor: middle; visibility: inherit; font-family: Roboto, sans-serif; font-size: 12px; font-weight: 200;" fill="rgb(33, 33, 33)" stroke="none" stroke-width="1px">18k</text><text x="982.1424479166666" y="0" dx="0em" dy="0.95em" style="text-anchor: middle; visibility: inherit; font-family: Roboto, sans-serif; font-size: 12px; font-weight: 200;" fill="rgb(33, 33, 33)" stroke="none" stroke-width="1px">20k</text><text x="1071.428125" y="0" dx="0em" dy="0.95em" style="text-anchor: middle; visibility: hidden; font-family: Roboto, sans-serif; font-size: 12px; font-weight: 200;" fill="rgb(33, 33, 33)" stroke="none" stroke-width="1px">22k</text></g><line x1="0" y1="0" x2="1071.428125" y2="0" fill="rgb(0, 0, 0)" stroke="rgb(204, 204, 204)" stroke-width="1px"></line></g></g></g></g></svg>