<svg viewBox="0 0 330 200" xmlns="http://www.w3.org/2000/svg"><g><g><g><g><g><line x1="41.171875" y1="177" x2="36.171875" y2="177" style="visibility: inherit;" fill="rgb(0, 0, 0)" stroke="rgb(204, 204, 204)" stroke-width="1px"></line><line x1="41.171875" y1="159.3" x2="36.171875" y2="159.3" style="visibility: inherit;" fill="rgb(0, 0, 0)" stroke="rgb(204, 204, 204)" stroke-width="1px"></line><line x1="41.171875" y1="141.6" x2="36.171875" y2="141.6" style="visibility: inherit;" fill="rgb(0, 0, 0)" stroke="rgb(204, 204, 204)" stroke-width="1px"></line><line x1="41.171875" y1="123.89999999999999" x2="36.171875" y2="123.89999999999999" style="visibility: inherit;" fill="rgb(0, 0, 0)" stroke="rgb(204, 204, 204)" stroke-width="1px"></line><line x1="41.171875" y1="106.2" x2="36.171875" y2="106.2" style="visibility: inherit;" fill="rgb(0, 0, 0)" stroke="rgb(204, 204, 204)" stroke-width="1px"></line><line x1="41.171875" y1="88.5" x2="36.171875" y2="88.5" style="visibility: inherit;" fill="rgb(0, 0, 0)" stroke="rgb(204, 204, 204)" stroke-width="1px"></line><line x1="41.171875" y1="70.8" x2="36.171875" y2="70.8" style="visibility: inherit;" fill="rgb(0, 0, 0)" stroke="rgb(204, 204, 204)" stroke-width="1px"></line><line x1="41.171875" y1="53.10000000000001" x2="36.171875" y2="53.10000000000001" style="visibility: inherit;" fill="rgb(0, 0, 0)" stroke="rgb(204, 204, 204)" stroke-width="1px"></line><line x1="41.171875" y1="35.39999999999999" x2="36.171875" y2="35.39999999999999" style="visibility: inherit;" fill="rgb(0, 0, 0)" stroke="rgb(204, 204, 204)" stroke-width="1px"></line><line x1="41.171875" y1="17.699999999999996" x2="36.171875" y2="17.699999999999996" style="visibility: inherit;" fill="rgb(0, 0, 0)" stroke="rgb(204, 204, 204)" stroke-width="1px"></line><line x1="41.171875" y1="0" x2="36.171875" y2="0" style="visibility: inherit;" fill="rgb(0, 0, 0)" stroke="rgb(204, 204, 204)" stroke-width="1px"></line></g><g transform="translate(31.171875, 0)"><text x="0" y="177" dx="0em" dy="0.3em" style="text-anchor: end; visibility: hidden; font-family: Roboto, sans-serif; font-size: 12px; font-weight: 200;" fill="rgb(33, 33, 33)" stroke="none" stroke-width="1px">0</text><text x="0" y="159.3" dx="0em" dy="0.3em" style="text-anchor: end; visibility: inherit; font-family: Roboto, sans-serif; font-size: 12px; font-weight: 200;" fill="rgb(33, 33, 33)" stroke="none" stroke-width="1px">0.1</text><text x="0" y="141.6" dx="0em" dy="0.3em" style="text-anchor: end; visibility: hidden; font-family: Roboto, sans-serif; font-size: 12px; font-weight: 200;" fill="rgb(33, 33, 33)" stroke="none" stroke-width="1px">0.2</text><text x="0" y="123.89999999999999" dx="0em" dy="0.3em" style="text-anchor: end; visibility: inherit; font-family: Roboto, sans-serif; font-size: 12px; font-weight: 200;" fill="rgb(33, 33, 33)" stroke="none" stroke-width="1px">0.3</text><text x="0" y="106.2" dx="0em" dy="0.3em" style="text-anchor: end; visibility: hidden; font-family: Roboto, sans-serif; font-size: 12px; font-weight: 200;" fill="rgb(33, 33, 33)" stroke="none" stroke-width="1px">0.4</text><text x="0" y="88.5" dx="0em" dy="0.3em" style="text-anchor: end; visibility: inherit; font-family: Roboto, sans-serif; font-size: 12px; font-weight: 200;" fill="rgb(33, 33, 33)" stroke="none" stroke-width="1px">0.5</text><text x="0" y="70.8" dx="0em" dy="0.3em" style="text-anchor: end; visibility: hidden; font-family: Roboto, sans-serif; font-size: 12px; font-weight: 200;" fill="rgb(33, 33, 33)" stroke="none" stroke-width="1px">0.6</text><text x="0" y="53.10000000000001" dx="0em" dy="0.3em" style="text-anchor: end; visibility: inherit; font-family: Roboto, sans-serif; font-size: 12px; font-weight: 200;" fill="rgb(33, 33, 33)" stroke="none" stroke-width="1px">0.7</text><text x="0" y="35.39999999999999" dx="0em" dy="0.3em" style="text-anchor: end; visibility: hidden; font-family: Roboto, sans-serif; font-size: 12px; font-weight: 200;" fill="rgb(33, 33, 33)" stroke="none" stroke-width="1px">0.8</text><text x="0" y="17.699999999999996" dx="0em" dy="0.3em" style="text-anchor: end; visibility: inherit; font-family: Roboto, sans-serif; font-size: 12px; font-weight: 200;" fill="rgb(33, 33, 33)" stroke="none" stroke-width="1px">0.9</text><text x="0" y="0" dx="0em" dy="0.3em" style="text-anchor: end; visibility: hidden; font-family: Roboto, sans-serif; font-size: 12px; font-weight: 200;" fill="rgb(33, 33, 33)" stroke="none" stroke-width="1px">1</text></g><line x1="41.171875" y1="0" x2="41.171875" y2="177" fill="rgb(0, 0, 0)" stroke="rgb(204, 204, 204)" stroke-width="1px"></line></g></g><g transform="translate(41, 0)" clip-path="url(#clip_0)"><clipPath id="clip_0"><rect width="288" height="177"></rect></clipPath><g><g><g><line x1="0" y1="0" x2="0" y2="177" fill="rgb(0, 0, 0)" stroke="rgb(66, 66, 66)" stroke-width="1px" opacity="0.25"></line><line x1="24.069010416666664" y1="0" x2="24.069010416666664" y2="177" fill="rgb(0, 0, 0)" stroke="rgb(66, 66, 66)" stroke-width="1px" opacity="0.25"></line><line x1="48.13802083333333" y1="0" x2="48.13802083333333" y2="177" fill="rgb(0, 0, 0)" stroke="rgb(66, 66, 66)" stroke-width="1px" opacity="0.25"></line><line x1="72.20703125" y1="0" x2="72.20703125" y2="177" fill="rgb(0, 0, 0)" stroke="rgb(66, 66, 66)" stroke-width="1px" opacity="0.25"></line><line x1="96.27604166666666" y1="0" x2="96.27604166666666" y2="177" fill="rgb(0, 0, 0)" stroke="rgb(66, 66, 66)" stroke-width="1px" opacity="0.25"></line><line x1="120.34505208333334" y1="0" x2="120.34505208333334" y2="177" fill="rgb(0, 0, 0)" stroke="rgb(66, 66, 66)" stroke-width="1px" opacity="0.25"></line><line x1="144.4140625" y1="0" x2="144.4140625" y2="177" fill="rgb(0, 0, 0)" stroke="rgb(66, 66, 66)" stroke-width="1px" opacity="0.25"></line><line x1="168.48307291666669" y1="0" x2="168.48307291666669" y2="177" fill="rgb(0, 0, 0)" stroke="rgb(66, 66, 66)" stroke-width="1px" opacity="0.25"></line><line x1="192.55208333333331" y1="0" x2="192.55208333333331" y2="177" fill="rgb(0, 0, 0)" stroke="rgb(66, 66, 66)" stroke-width="1px" opacity="0.25"></line><line x1="216.62109375" y1="0" x2="216.62109375" y2="177" fill="rgb(0, 0, 0)" stroke="rgb(66, 66, 66)" stroke-width="1px" opacity="0.25"></line><line x1="240.69010416666669" y1="0" x2="240.69010416666669" y2="177" fill="rgb(0, 0, 0)" stroke="rgb(66, 66, 66)" stroke-width="1px" opacity="0.25"></line><line x1="264.7591145833333" y1="0" x2="264.7591145833333" y2="177" fill="rgb(0, 0, 0)" stroke="rgb(66, 66, 66)" stroke-width="1px" opacity="0.25"></line><line x1="288.828125" y1="0" x2="288.828125" y2="177" fill="rgb(0, 0, 0)" stroke="rgb(66, 66, 66)" stroke-width="1px" opacity="0.25"></line></g><g><line x1="0" y1="177" x2="288.828125" y2="177" fill="rgb(0, 0, 0)" stroke="rgb(66, 66, 66)" stroke-width="1px" opacity="0.25"></line><line x1="0" y1="159.3" x2="288.828125" y2="159.3" fill="rgb(0, 0, 0)" stroke="rgb(66, 66, 66)" stroke-width="1px" opacity="0.25"></line><line x1="0" y1="141.6" x2="288.828125" y2="141.6" fill="rgb(0, 0, 0)" stroke="rgb(66, 66, 66)" stroke-width="1px" opacity="0.25"></line><line x1="0" y1="123.89999999999999" x2="288.828125" y2="123.89999999999999" fill="rgb(0, 0, 0)" stroke="rgb(66, 66, 66)" stroke-width="1px" opacity="0.25"></line><line x1="0" y1="106.2" x2="288.828125" y2="106.2" fill="rgb(0, 0, 0)" stroke="rgb(66, 66, 66)" stroke-width="1px" opacity="0.25"></line><line x1="0" y1="88.5" x2="288.828125" y2="88.5" fill="rgb(0, 0, 0)" stroke="rgb(66, 66, 66)" stroke-width="1px" opacity="0.25"></line><line x1="0" y1="70.8" x2="288.828125" y2="70.8" fill="rgb(0, 0, 0)" stroke="rgb(66, 66, 66)" stroke-width="1px" opacity="0.25"></line><line x1="0" y1="53.10000000000001" x2="288.828125" y2="53.10000000000001" fill="rgb(0, 0, 0)" stroke="rgb(66, 66, 66)" stroke-width="1px" opacity="0.25"></line><line x1="0" y1="35.39999999999999" x2="288.828125" y2="35.39999999999999" fill="rgb(0, 0, 0)" stroke="rgb(66, 66, 66)" stroke-width="1px" opacity="0.25"></line><line x1="0" y1="17.699999999999996" x2="288.828125" y2="17.699999999999996" fill="rgb(0, 0, 0)" stroke="rgb(66, 66, 66)" stroke-width="1px" opacity="0.25"></line><line x1="0" y1="0" x2="288.828125" y2="0" fill="rgb(0, 0, 0)" stroke="rgb(66, 66, 66)" stroke-width="1px" opacity="0.25"></line></g></g></g><g><g><line x1="0" y1="177" x2="288.828125" y2="177" fill="rgb(0, 0, 0)" stroke="rgb(153, 153, 153)" stroke-width="1.5px"></line></g></g><g><g><line x1="24.069010416666664" y1="0" x2="24.069010416666664" y2="177" fill="rgb(0, 0, 0)" stroke="rgb(153, 153, 153)" stroke-width="1.5px"></line></g></g><g><g><g><g><g><path stroke="rgb(255, 112, 67)" stroke-width="2px" d="M25.2724609375,22.004181146621704L26.475911458333332,73.7123742928871L27.679361979166668,94.66515740890654L28.8828125,102.32460674695633L30.086263020833336,104.600893475452L31.289713541666668,109.15797454356762L32.4931640625,118.31647675293502L33.696614583333336,119.07357079389256L34.900065104166664,121.13957038481874L36.103515625,122.93889742535465L37.306966145833336,126.6334704918161L38.510416666666664,127.71535076333619L39.7138671875,129.77766707780967L40.917317708333336,130.67696968361727L42.12076822916667,131.87662008862867L43.32421875,133.26264429569716L44.527669270833336,134.3930441319315L45.731119791666664,135.64418457211684L46.9345703125,135.76013364100226L48.13802083333333,134.75085858668413L49.341471354166664,131.64172133472016L50.544921875,133.18199831845234L51.748372395833336,133.81436496231055L52.951822916666664,135.39141806877112L54.1552734375,135.97168985292762L55.358723958333336,136.38439047153162L56.562174479166664,138.16890545668542L57.765625,139.24324845768578L58.969075520833336,139.55298150366085L60.17252604166667,139.9403975865917L61.3759765625,141.16236007318312L62.579427083333336,142.41125534053535L63.782877604166664,142.76525933459584L64.986328125,142.73231274343163L66.18977864583333,141.7780489219161L67.39322916666667,142.10611122591882L68.5966796875,142.43294109115598L69.80013020833333,142.2126148904907L71.00358072916666,136.96676718281796L72.20703125,138.09046024593187L73.41048177083333,137.16807737536317L74.61393229166667,138.14749641381673L75.8173828125,135.85686013772286L77.02083333333333,136.05054663158361L78.22428385416666,136.05278499986525L79.427734375,132.37446176607946L80.63118489583333,133.20047815264218L81.83463541666667,134.20492773381034L83.0380859375,135.2785010748443L84.24153645833334,135.7400759766671L85.44498697916667,136.367563478421L86.6484375,136.3841649717014L87.85188802083333,135.13640793600382L89.05533854166667,135.98216084245882L90.2587890625,134.1406068548133L91.46223958333333,134.7887594694511L92.66569010416667,136.17251257967675L93.869140625,137.12299973411578L95.07259114583333,137.7161186622204L96.27604166666666,136.49613766489196L97.4794921875,135.93086892972616L98.68294270833333,136.89796197270613L99.88639322916667,137.03270670268535L101.08984375,136.46774876211336L102.29329427083334,137.4379163078706L103.49674479166667,137.82244449493194L104.7001953125,138.80479984727572L105.90364583333333,137.38258065193077L107.10709635416667,136.3076211228833L108.310546875,134.71125017342177L109.51399739583333,135.5335382544561L110.71744791666667,136.16613464109332L111.9208984375,136.72431263082441L113.12434895833333,137.6197965237245L114.32779947916666,138.86277992046496L115.53125,139.8670846674122L116.73470052083333,140.08317829580014L117.93815104166667,138.89446226653303L119.1416015625,138.06331356824853L120.34505208333334,138.9833759315358L121.54850260416667,139.42308666490382L122.751953125,138.65904907183068L123.95540364583333,137.88667866462166L125.15885416666667,138.70647193452092L126.3623046875,138.79278040129915L127.56575520833333,138.58563982392678L128.76920572916669,139.5113254921016L129.97265625,136.27174690348392L131.17610677083334,135.13545822088082L132.37955729166666,136.75404149571952L133.5830078125,137.70750625759155L134.78645833333334,137.74224558037602L135.98990885416666,139.12768423483573L137.193359375,138.7626034676451L138.39680989583334,138.89140363803168L139.60026041666666,139.83465950186846L140.8037109375,140.12456662965369L142.00716145833331,139.56253335802495L143.21061197916666,140.50504854160465L144.4140625,141.3655891591628L145.61751302083334,141.80983740654406L146.82096354166666,140.47248407265124L148.0244140625,140.1234495321158L149.22786458333334,141.045135950636L150.43131510416669,140.83749385852863L151.634765625,141.69800099413158L152.83821614583334,141.95397265638601L154.04166666666666,142.7985865374731L155.2451171875,142.80855133848533L156.44856770833331,142.78391850160776L157.65201822916666,143.0754946649017L158.85546875,144.0958756699697L160.05891927083334,144.7785079231542L161.26236979166666,144.79818816145288L162.4658203125,144.76997785009996L163.66927083333334,144.51875213848965L164.87272135416666,144.70204213854504L166.076171875,144.54958651438503L167.27962239583334,145.3130519963251L168.48307291666669,146.42662114340504L169.6865234375,146.53028871025853L170.88997395833334,146.76253707586406L172.09342447916666,146.8398560492846L173.296875,146.46572183161862L174.50032552083331,145.82709816016313L175.70377604166666,146.53531621849913L176.9072265625,147.06389033075666L178.11067708333334,147.22895827470762L179.31412760416666,146.14966878609755L180.517578125,146.80716129564482L181.72102864583334,147.0528093997374L182.92447916666666,146.61523243453732L184.1279296875,146.32402715954836L185.33138020833334,146.55734768813647L186.53483072916669,146.93434688091415L187.73828125,146.9380816295614L188.94173177083334,147.43595869677276L190.14518229166666,146.85911513800133L191.3486328125,147.44113538325064L192.55208333333331,147.1581189180973L193.75553385416666,147.36329563508014L194.958984375,146.82231433045587L196.16243489583334,147.77385168405303L197.36588541666666,146.4393226094183L198.5693359375,147.00241662122994L199.77278645833334,147.31484333101477L200.97623697916666,147.89454538890044L202.1796875,147.73897724901616L203.38313802083334,147.98418033426915L204.58658854166669,148.20861805981104L205.7900390625,146.31302860368334L206.99348958333334,146.2352784847812L208.19694010416666,146.18995977081366L209.400390625,146.66024976595412L210.60384114583331,147.51469284290351L211.80729166666666,148.1850397537832L213.0107421875,149.12458542861555L214.21419270833334,149.74788269228685L215.41764322916666,149.67534294584183L216.62109375,150.63538335038947L217.82454427083334,150.96614080256123L219.02799479166666,151.11118957116815L220.2314453125,148.83103923264702L221.43489583333334,146.48622746600398L222.63834635416669,147.46463410411394L223.841796875,146.92638109503457L225.04524739583334,146.46312368066444L226.24869791666666,145.51186841252914L227.4521484375,144.5571547816454L228.65559895833331,145.2879097087877L229.85904947916666,145.27257790101316L231.0625,145.68597763641068L232.26595052083334,145.06810387889072L233.46940104166666,145.57358122177203L234.6728515625,146.12811527595494L235.87630208333334,146.93866824043525L237.07975260416666,147.7566530386504L238.283203125,147.66808994187352L239.48665364583334,148.00658043899108L240.69010416666669,148.64990478558255L241.8935546875,149.21285426372648L243.09700520833334,148.52216441641949L244.30045572916666,147.4641338719119L245.50390625,147.77285806360013L246.70735677083331,148.4227024251047L247.91080729166666,149.41666067509192L249.1142578125,149.16665267959922L250.31770833333334,149.76843949575667L251.52115885416666,149.4048326811256L252.724609375,150.1044207781042L253.92805989583334,150.57051933071386L255.13151041666666,151.22685765361086L256.3349609375,149.67795503264682L257.53841145833337,150.11224451640294L258.7418619791667,150.91295418286973L259.9453125,151.46476180026337L261.1487630208333,152.19413619065352L262.3522135416667,152.40179086256276L263.5556640625,152.42332921872745L264.7591145833333,152.84740188991324" style="fill: none;" fill="none"></path></g></g></g></g><g opacity="0.2"><g><g><g><path stroke="rgb(255, 112, 67)" stroke-width="2px" d="M25.2724609375,22.004181146621704L26.475911458333332,122.83515778183937L27.679361979166668,133.4801881313324L28.8828125,123.08075702190399L30.086263020833336,112.62339574098587L31.289713541666668,128.74504807591438L32.4931640625,164.4135453477502L33.696614583333336,123.4129244685173L34.900065104166664,134.35166215896606L36.103515625,135.57963989675045L37.306966145833336,154.8008887320757L38.510416666666664,136.57897755503654L39.7138671875,147.78820198774338L40.917317708333336,138.99237160384655L42.12076822916667,143.55422754585743L43.32421875,147.39657989144325L44.527669270833336,146.41777785122395L45.731119791666664,149.47643499076366L46.9345703125,137.08808997273445L48.13802083333333,122.81085053086281L49.341471354166664,93.74517032504082L50.544921875,152.4806355535984L51.748372395833336,141.94208657741547L52.951822916666664,156.1457831338048L54.1552734375,143.777626901865L55.358723958333336,142.05060410499573L56.562174479166664,163.13983458280563L57.765625,154.5456124842167L58.969075520833336,144.03831531107426L60.17252604166667,145.63821297883987L61.3759765625,159.39631748199463L62.579427083333336,161.30175829678774L63.782877604166664,148.1884170770645L64.986328125,142.2215250134468L66.18977864583333,126.81678360700607L67.39322916666667,147.304066747427L68.5966796875,147.6629363000393L69.80013020833333,138.65388733148575L71.00358072916666,51.48840183019638L72.20703125,156.55246406793594L73.41048177083333,121.89501366019249L74.61393229166667,154.48455423116684L75.8173828125,97.38255947828293L77.02083333333333,139.32511138916016L78.22428385416666,136.0908623188734L79.427734375,69.43601506948471L80.63118489583333,147.4121754616499L81.83463541666667,151.57673075795174L83.0380859375,153.93731930851936L84.24153645833334,143.79968172311783L85.44498697916667,147.372467815876L86.6484375,136.6765362471342L87.85188802083333,113.07533231377602L89.05533854166667,150.99136278033257L90.2587890625,101.34395036101341L91.46223958333333,146.37044781446457L92.66569010416667,160.97674244642258L93.869140625,154.21186780929565L95.07259114583333,148.41011787950993L96.27604166666666,114.44058430194855L97.4794921875,125.68555748462677L98.68294270833333,154.46853402256966L99.88639322916667,139.486410677433L101.08984375,126.15753909945488L102.29329427083334,155.1794103384018L103.49674479166667,144.86803498864174L104.7001953125,156.83745972812176L105.90364583333333,111.22978001832962L107.10709635416667,116.50762903690338L108.310546875,105.26087817549706L109.51399739583333,150.72605873644352L110.71744791666667,147.87050534784794L111.9208984375,147.0656810849905L113.12434895833333,154.23161217570305L114.32779947916666,161.9488663226366L115.53125,158.54159820824862L116.73470052083333,144.10570621490479L117.93815104166667,116.74391788244247L119.1416015625,122.56047213077545L120.34505208333334,156.16065734624863L121.54850260416667,147.6396128386259L122.751953125,124.37009632587433L123.95540364583333,123.43037420511246L125.15885416666667,154.06198891997337L126.3623046875,140.41058206558228L127.56575520833333,134.70026390254498L128.76920572916669,156.88582894206047L129.97265625,75.42965143918991L131.17610677083334,113.78252139687538L132.37955729166666,167.18702088296413L133.5830078125,155.64420079439878L134.78645833333334,138.39609226584435L135.98990885416666,165.21610267460346L137.193359375,131.88487708568573L138.39680989583334,141.3188967704773L139.60026041666666,157.61939308047295L140.8037109375,145.59276348352432L142.00716145833331,128.95764157176018L143.21061197916666,158.29535937309265L144.4140625,157.61396377533674L145.61751302083334,150.20058059692383L146.82096354166666,115.20568773150444L148.0244140625,133.52722804248333L149.22786458333334,158.46828478574753L150.43131510416669,136.91131907701492L151.634765625,157.9727357402444L152.83821614583334,146.79626780748367L154.04166666666666,158.77990078926086L155.2451171875,142.99713890254498L156.44856770833331,142.31764099001884L157.65201822916666,148.59580354392529L158.85546875,163.41782634705305L160.05891927083334,157.7070268392563L161.26236979166666,145.1709762364626L162.4658203125,144.23552951216698L163.66927083333334,139.75855641067028L164.87272135416666,148.1754774749279L166.076171875,141.66010031104088L167.27962239583334,159.78478248417377L168.48307291666669,167.53716556727886L169.6865234375,148.4957919716835L170.88997395833334,151.16635863482952L172.09342447916666,148.3061025738716L173.296875,139.37010723352432L174.50032552083331,133.71422454714775L175.70377604166666,159.96936039626598L176.9072265625,157.0911297351122L178.11067708333334,150.360600695014L179.31412760416666,125.67204290628433L180.517578125,159.28280847519636L181.72102864583334,151.7141922712326L182.92447916666666,138.31130701303482L184.1279296875,140.79747247695923L185.33138020833334,150.98560774326324L186.53483072916669,154.08991746604443L187.73828125,147.00897207856178L188.94173177083334,156.88678635656834L190.14518229166666,135.90881377458572L191.3486328125,158.49019718170166L192.55208333333331,141.78511279821396L193.75553385416666,151.2586871534586L194.958984375,136.5510991215706L196.16243489583334,165.84064684063196L197.36588541666666,121.09981101751328L198.5693359375,157.69457253813744L199.77278645833334,153.24745599925518L200.97623697916666,158.90272414684296L202.1796875,144.78475311398506L203.38313802083334,152.64068730175495L204.58658854166669,152.4708899706602L205.7900390625,110.31323629617691L206.99348958333334,144.75866554677486L208.19694010416666,145.32925821840763L209.400390625,155.59226962924004L210.60384114583331,163.74308748543262L211.80729166666666,160.91714141517878L213.0107421875,166.9699752777815L214.21419270833334,161.5867631882429L215.41764322916666,148.29750430583954L216.62109375,168.87091387063265L217.82454427083334,157.24881827831268L219.02799479166666,153.86640205979347L220.2314453125,105.51884731650352L221.43489583333334,101.94522249698639L222.63834635416669,166.05023028329015L223.841796875,136.70173233747482L225.04524739583334,137.66299760341644L226.24869791666666,127.4414609670639L227.4521484375,126.4208782017231L228.65559895833331,159.16986653208733L229.85904947916666,144.9813211262226L231.0625,153.53935401141644L232.26595052083334,133.3302327543497L233.46940104166666,155.17630599439144L234.6728515625,156.66286081820726L235.87630208333334,162.33722846210003L237.07975260416666,163.2964984551072L238.283203125,145.98558300733566L239.48665364583334,154.4372030943632L240.69010416666669,160.87180928885937L241.8935546875,159.90784849226475L243.09700520833334,135.40027633309364L244.30045572916666,127.36332750320435L245.50390625,153.6381259560585L246.70735677083331,160.76876194775105L247.91080729166666,168.30043856799603L249.1142578125,144.41684219241142L250.31770833333334,161.20160825550556L251.52115885416666,142.49675135314465L252.724609375,163.39577548205853L253.92805989583334,159.4258733689785L255.13151041666666,163.6965922191739L256.3349609375,120.25036016106606L257.53841145833337,158.36333052814007L258.7418619791667,166.12571239471436L259.9453125,161.94863158464432L261.1487630208333,166.0516532175243L262.3522135416667,156.3470683246851L263.5556640625,152.83254209160805L264.7591145833333,160.90448534488678" style="fill: none;" fill="none"></path></g></g></g></g></g></g><g transform="translate(41, 177)" clip-path="url(#clip_1)"><clipPath id="clip_1"><rect width="288" height="23"></rect></clipPath><g><g><line x1="0" y1="0" x2="0" y2="5" style="visibility: inherit;" fill="rgb(0, 0, 0)" stroke="rgb(204, 204, 204)" stroke-width="1px"></line><line x1="24.069010416666664" y1="0" x2="24.069010416666664" y2="5" style="visibility: inherit;" fill="rgb(0, 0, 0)" stroke="rgb(204, 204, 204)" stroke-width="1px"></line><line x1="48.13802083333333" y1="0" x2="48.13802083333333" y2="5" style="visibility: inherit;" fill="rgb(0, 0, 0)" stroke="rgb(204, 204, 204)" stroke-width="1px"></line><line x1="72.20703125" y1="0" x2="72.20703125" y2="5" style="visibility: inherit;" fill="rgb(0, 0, 0)" stroke="rgb(204, 204, 204)" stroke-width="1px"></line><line x1="96.27604166666666" y1="0" x2="96.27604166666666" y2="5" style="visibility: inherit;" fill="rgb(0, 0, 0)" stroke="rgb(204, 204, 204)" stroke-width="1px"></line><line x1="120.34505208333334" y1="0" x2="120.34505208333334" y2="5" style="visibility: inherit;" fill="rgb(0, 0, 0)" stroke="rgb(204, 204, 204)" stroke-width="1px"></line><line x1="144.4140625" y1="0" x2="144.4140625" y2="5" style="visibility: inherit;" fill="rgb(0, 0, 0)" stroke="rgb(204, 204, 204)" stroke-width="1px"></line><line x1="168.48307291666669" y1="0" x2="168.48307291666669" y2="5" style="visibility: inherit;" fill="rgb(0, 0, 0)" stroke="rgb(204, 204, 204)" stroke-width="1px"></line><line x1="192.55208333333331" y1="0" x2="192.55208333333331" y2="5" style="visibility: inherit;" fill="rgb(0, 0, 0)" stroke="rgb(204, 204, 204)" stroke-width="1px"></line><line x1="216.62109375" y1="0" x2="216.62109375" y2="5" style="visibility: inherit;" fill="rgb(0, 0, 0)" stroke="rgb(204, 204, 204)" stroke-width="1px"></line><line x1="240.69010416666669" y1="0" x2="240.69010416666669" y2="5" style="visibility: inherit;" fill="rgb(0, 0, 0)" stroke="rgb(204, 204, 204)" stroke-width="1px"></line><line x1="264.7591145833333" y1="0" x2="264.7591145833333" y2="5" style="visibility: inherit;" fill="rgb(0, 0, 0)" stroke="rgb(204, 204, 204)" stroke-width="1px"></line><line x1="288.828125" y1="0" x2="288.828125" y2="5" style="visibility: inherit;" fill="rgb(0, 0, 0)" stroke="rgb(204, 204, 204)" stroke-width="1px"></line></g><g transform="translate(0, 8)"><text x="0" y="0" dx="0em" dy="0.95em" style="text-anchor: middle; visibility: hidden; font-family: Roboto, sans-serif; font-size: 12px; font-weight: 200;" fill="rgb(33, 33, 33)" stroke="none" stroke-width="1px">-2k</text><text x="24.069010416666664" y="0" dx="0em" dy="0.95em" style="text-anchor: middle; visibility: inherit; font-family: Roboto, sans-serif; font-size: 12px; font-weight: 200;" fill="rgb(33, 33, 33)" stroke="none" stroke-width="1px">0</text><text x="48.13802083333333" y="0" dx="0em" dy="0.95em" style="text-anchor: middle; visibility: hidden; font-family: Roboto, sans-serif; font-size: 12px; font-weight: 200;" fill="rgb(33, 33, 33)" stroke="none" stroke-width="1px">2k</text><text x="72.20703125" y="0" dx="0em" dy="0.95em" style="text-anchor: middle; visibility: inherit; font-family: Roboto, sans-serif; font-size: 12px; font-weight: 200;" fill="rgb(33, 33, 33)" stroke="none" stroke-width="1px">4k</text><text x="96.27604166666666" y="0" dx="0em" dy="0.95em" style="text-anchor: middle; visibility: hidden; font-family: Roboto, sans-serif; font-size: 12px; font-weight: 200;" fill="rgb(33, 33, 33)" stroke="none" stroke-width="1px">6k</text><text x="120.34505208333334" y="0" dx="0em" dy="0.95em" style="text-anchor: middle; visibility: inherit; font-family: Roboto, sans-serif; font-size: 12px; font-weight: 200;" fill="rgb(33, 33, 33)" stroke="none" stroke-width="1px">8k</text><text x="144.4140625" y="0" dx="0em" dy="0.95em" style="text-anchor: middle; visibility: hidden; font-family: Roboto, sans-serif; font-size: 12px; font-weight: 200;" fill="rgb(33, 33, 33)" stroke="none" stroke-width="1px">10k</text><text x="168.48307291666669" y="0" dx="0em" dy="0.95em" style="text-anchor: middle; visibility: inherit; font-family: Roboto, sans-serif; font-size: 12px; font-weight: 200;" fill="rgb(33, 33, 33)" stroke="none" stroke-width="1px">12k</text><text x="192.55208333333331" y="0" dx="0em" dy="0.95em" style="text-anchor: middle; visibility: hidden; font-family: Roboto, sans-serif; font-size: 12px; font-weight: 200;" fill="rgb(33, 33, 33)" stroke="none" stroke-width="1px">14k</text><text x="216.62109375" y="0" dx="0em" dy="0.95em" style="text-anchor: middle; visibility: inherit; font-family: Roboto, sans-serif; font-size: 12px; font-weight: 200;" fill="rgb(33, 33, 33)" stroke="none" stroke-width="1px">16k</text><text x="240.69010416666669" y="0" dx="0em" dy="0.95em" style="text-anchor: middle; visibility: hidden; font-family: Roboto, sans-serif; font-size: 12px; font-weight: 200;" fill="rgb(33, 33, 33)" stroke="none" stroke-width="1px">18k</text><text x="264.7591145833333" y="0" dx="0em" dy="0.95em" style="text-anchor: middle; visibility: inherit; font-family: Roboto, sans-serif; font-size: 12px; font-weight: 200;" fill="rgb(33, 33, 33)" stroke="none" stroke-width="1px">20k</text><text x="288.828125" y="0" dx="0em" dy="0.95em" style="text-anchor: middle; visibility: hidden; font-family: Roboto, sans-serif; font-size: 12px; font-weight: 200;" fill="rgb(33, 33, 33)" stroke="none" stroke-width="1px">22k</text></g><line x1="0" y1="0" x2="288.828125" y2="0" fill="rgb(0, 0, 0)" stroke="rgb(204, 204, 204)" stroke-width="1px"></line></g></g></g></g></svg>