<svg viewBox="0 0 330 200" xmlns="http://www.w3.org/2000/svg"><g><g><g><g><g><line x1="41.171875" y1="177" x2="36.171875" y2="177" style="visibility: inherit;" fill="rgb(0, 0, 0)" stroke="rgb(204, 204, 204)" stroke-width="1px"></line><line x1="41.171875" y1="164.35714285714286" x2="36.171875" y2="164.35714285714286" style="visibility: inherit;" fill="rgb(0, 0, 0)" stroke="rgb(204, 204, 204)" stroke-width="1px"></line><line x1="41.171875" y1="151.7142857142857" x2="36.171875" y2="151.7142857142857" style="visibility: inherit;" fill="rgb(0, 0, 0)" stroke="rgb(204, 204, 204)" stroke-width="1px"></line><line x1="41.171875" y1="139.07142857142856" x2="36.171875" y2="139.07142857142856" style="visibility: inherit;" fill="rgb(0, 0, 0)" stroke="rgb(204, 204, 204)" stroke-width="1px"></line><line x1="41.171875" y1="126.42857142857142" x2="36.171875" y2="126.42857142857142" style="visibility: inherit;" fill="rgb(0, 0, 0)" stroke="rgb(204, 204, 204)" stroke-width="1px"></line><line x1="41.171875" y1="113.78571428571428" x2="36.171875" y2="113.78571428571428" style="visibility: inherit;" fill="rgb(0, 0, 0)" stroke="rgb(204, 204, 204)" stroke-width="1px"></line><line x1="41.171875" y1="101.14285714285714" x2="36.171875" y2="101.14285714285714" style="visibility: inherit;" fill="rgb(0, 0, 0)" stroke="rgb(204, 204, 204)" stroke-width="1px"></line><line x1="41.171875" y1="88.5" x2="36.171875" y2="88.5" style="visibility: inherit;" fill="rgb(0, 0, 0)" stroke="rgb(204, 204, 204)" stroke-width="1px"></line><line x1="41.171875" y1="75.85714285714285" x2="36.171875" y2="75.85714285714285" style="visibility: inherit;" fill="rgb(0, 0, 0)" stroke="rgb(204, 204, 204)" stroke-width="1px"></line><line x1="41.171875" y1="63.21428571428571" x2="36.171875" y2="63.21428571428571" style="visibility: inherit;" fill="rgb(0, 0, 0)" stroke="rgb(204, 204, 204)" stroke-width="1px"></line><line x1="41.171875" y1="50.57142857142857" x2="36.171875" y2="50.57142857142857" style="visibility: inherit;" fill="rgb(0, 0, 0)" stroke="rgb(204, 204, 204)" stroke-width="1px"></line><line x1="41.171875" y1="37.92857142857141" x2="36.171875" y2="37.92857142857141" style="visibility: inherit;" fill="rgb(0, 0, 0)" stroke="rgb(204, 204, 204)" stroke-width="1px"></line><line x1="41.171875" y1="25.285714285714274" x2="36.171875" y2="25.285714285714274" style="visibility: inherit;" fill="rgb(0, 0, 0)" stroke="rgb(204, 204, 204)" stroke-width="1px"></line><line x1="41.171875" y1="12.642857142857117" x2="36.171875" y2="12.642857142857117" style="visibility: inherit;" fill="rgb(0, 0, 0)" stroke="rgb(204, 204, 204)" stroke-width="1px"></line><line x1="41.171875" y1="0" x2="36.171875" y2="0" style="visibility: inherit;" fill="rgb(0, 0, 0)" stroke="rgb(204, 204, 204)" stroke-width="1px"></line></g><g transform="translate(31.171875, 0)"><text x="0" y="177" dx="0em" dy="0.3em" style="text-anchor: end; visibility: hidden; font-family: Roboto, sans-serif; font-size: 12px; font-weight: 200;" fill="rgb(33, 33, 33)" stroke="none" stroke-width="1px">0</text><text x="0" y="164.35714285714286" dx="0em" dy="0.3em" style="text-anchor: end; visibility: inherit; font-family: Roboto, sans-serif; font-size: 12px; font-weight: 200;" fill="rgb(33, 33, 33)" stroke="none" stroke-width="1px">0.2</text><text x="0" y="151.7142857142857" dx="0em" dy="0.3em" style="text-anchor: end; visibility: hidden; font-family: Roboto, sans-serif; font-size: 12px; font-weight: 200;" fill="rgb(33, 33, 33)" stroke="none" stroke-width="1px">0.4</text><text x="0" y="139.07142857142856" dx="0em" dy="0.3em" style="text-anchor: end; visibility: inherit; font-family: Roboto, sans-serif; font-size: 12px; font-weight: 200;" fill="rgb(33, 33, 33)" stroke="none" stroke-width="1px">0.6</text><text x="0" y="126.42857142857142" dx="0em" dy="0.3em" style="text-anchor: end; visibility: hidden; font-family: Roboto, sans-serif; font-size: 12px; font-weight: 200;" fill="rgb(33, 33, 33)" stroke="none" stroke-width="1px">0.8</text><text x="0" y="113.78571428571428" dx="0em" dy="0.3em" style="text-anchor: end; visibility: inherit; font-family: Roboto, sans-serif; font-size: 12px; font-weight: 200;" fill="rgb(33, 33, 33)" stroke="none" stroke-width="1px">1</text><text x="0" y="101.14285714285714" dx="0em" dy="0.3em" style="text-anchor: end; visibility: hidden; font-family: Roboto, sans-serif; font-size: 12px; font-weight: 200;" fill="rgb(33, 33, 33)" stroke="none" stroke-width="1px">1.2</text><text x="0" y="88.5" dx="0em" dy="0.3em" style="text-anchor: end; visibility: inherit; font-family: Roboto, sans-serif; font-size: 12px; font-weight: 200;" fill="rgb(33, 33, 33)" stroke="none" stroke-width="1px">1.4</text><text x="0" y="75.85714285714285" dx="0em" dy="0.3em" style="text-anchor: end; visibility: hidden; font-family: Roboto, sans-serif; font-size: 12px; font-weight: 200;" fill="rgb(33, 33, 33)" stroke="none" stroke-width="1px">1.6</text><text x="0" y="63.21428571428571" dx="0em" dy="0.3em" style="text-anchor: end; visibility: inherit; font-family: Roboto, sans-serif; font-size: 12px; font-weight: 200;" fill="rgb(33, 33, 33)" stroke="none" stroke-width="1px">1.8</text><text x="0" y="50.57142857142857" dx="0em" dy="0.3em" style="text-anchor: end; visibility: hidden; font-family: Roboto, sans-serif; font-size: 12px; font-weight: 200;" fill="rgb(33, 33, 33)" stroke="none" stroke-width="1px">2</text><text x="0" y="37.92857142857141" dx="0em" dy="0.3em" style="text-anchor: end; visibility: inherit; font-family: Roboto, sans-serif; font-size: 12px; font-weight: 200;" fill="rgb(33, 33, 33)" stroke="none" stroke-width="1px">2.2</text><text x="0" y="25.285714285714274" dx="0em" dy="0.3em" style="text-anchor: end; visibility: hidden; font-family: Roboto, sans-serif; font-size: 12px; font-weight: 200;" fill="rgb(33, 33, 33)" stroke="none" stroke-width="1px">2.4</text><text x="0" y="12.642857142857117" dx="0em" dy="0.3em" style="text-anchor: end; visibility: inherit; font-family: Roboto, sans-serif; font-size: 12px; font-weight: 200;" fill="rgb(33, 33, 33)" stroke="none" stroke-width="1px">2.6</text><text x="0" y="0" dx="0em" dy="0.3em" style="text-anchor: end; visibility: hidden; font-family: Roboto, sans-serif; font-size: 12px; font-weight: 200;" fill="rgb(33, 33, 33)" stroke="none" stroke-width="1px">2.8</text></g><line x1="41.171875" y1="0" x2="41.171875" y2="177" fill="rgb(0, 0, 0)" stroke="rgb(204, 204, 204)" stroke-width="1px"></line></g></g><g transform="translate(41, 0)" clip-path="url(#clip_0)"><clipPath id="clip_0"><rect width="288" height="177"></rect></clipPath><g><g><g><line x1="0" y1="0" x2="0" y2="177" fill="rgb(0, 0, 0)" stroke="rgb(66, 66, 66)" stroke-width="1px" opacity="0.25"></line><line x1="24.069010416666664" y1="0" x2="24.069010416666664" y2="177" fill="rgb(0, 0, 0)" stroke="rgb(66, 66, 66)" stroke-width="1px" opacity="0.25"></line><line x1="48.13802083333333" y1="0" x2="48.13802083333333" y2="177" fill="rgb(0, 0, 0)" stroke="rgb(66, 66, 66)" stroke-width="1px" opacity="0.25"></line><line x1="72.20703125" y1="0" x2="72.20703125" y2="177" fill="rgb(0, 0, 0)" stroke="rgb(66, 66, 66)" stroke-width="1px" opacity="0.25"></line><line x1="96.27604166666666" y1="0" x2="96.27604166666666" y2="177" fill="rgb(0, 0, 0)" stroke="rgb(66, 66, 66)" stroke-width="1px" opacity="0.25"></line><line x1="120.34505208333334" y1="0" x2="120.34505208333334" y2="177" fill="rgb(0, 0, 0)" stroke="rgb(66, 66, 66)" stroke-width="1px" opacity="0.25"></line><line x1="144.4140625" y1="0" x2="144.4140625" y2="177" fill="rgb(0, 0, 0)" stroke="rgb(66, 66, 66)" stroke-width="1px" opacity="0.25"></line><line x1="168.48307291666669" y1="0" x2="168.48307291666669" y2="177" fill="rgb(0, 0, 0)" stroke="rgb(66, 66, 66)" stroke-width="1px" opacity="0.25"></line><line x1="192.55208333333331" y1="0" x2="192.55208333333331" y2="177" fill="rgb(0, 0, 0)" stroke="rgb(66, 66, 66)" stroke-width="1px" opacity="0.25"></line><line x1="216.62109375" y1="0" x2="216.62109375" y2="177" fill="rgb(0, 0, 0)" stroke="rgb(66, 66, 66)" stroke-width="1px" opacity="0.25"></line><line x1="240.69010416666669" y1="0" x2="240.69010416666669" y2="177" fill="rgb(0, 0, 0)" stroke="rgb(66, 66, 66)" stroke-width="1px" opacity="0.25"></line><line x1="264.7591145833333" y1="0" x2="264.7591145833333" y2="177" fill="rgb(0, 0, 0)" stroke="rgb(66, 66, 66)" stroke-width="1px" opacity="0.25"></line><line x1="288.828125" y1="0" x2="288.828125" y2="177" fill="rgb(0, 0, 0)" stroke="rgb(66, 66, 66)" stroke-width="1px" opacity="0.25"></line></g><g><line x1="0" y1="177" x2="288.828125" y2="177" fill="rgb(0, 0, 0)" stroke="rgb(66, 66, 66)" stroke-width="1px" opacity="0.25"></line><line x1="0" y1="164.35714285714286" x2="288.828125" y2="164.35714285714286" fill="rgb(0, 0, 0)" stroke="rgb(66, 66, 66)" stroke-width="1px" opacity="0.25"></line><line x1="0" y1="151.7142857142857" x2="288.828125" y2="151.7142857142857" fill="rgb(0, 0, 0)" stroke="rgb(66, 66, 66)" stroke-width="1px" opacity="0.25"></line><line x1="0" y1="139.07142857142856" x2="288.828125" y2="139.07142857142856" fill="rgb(0, 0, 0)" stroke="rgb(66, 66, 66)" stroke-width="1px" opacity="0.25"></line><line x1="0" y1="126.42857142857142" x2="288.828125" y2="126.42857142857142" fill="rgb(0, 0, 0)" stroke="rgb(66, 66, 66)" stroke-width="1px" opacity="0.25"></line><line x1="0" y1="113.78571428571428" x2="288.828125" y2="113.78571428571428" fill="rgb(0, 0, 0)" stroke="rgb(66, 66, 66)" stroke-width="1px" opacity="0.25"></line><line x1="0" y1="101.14285714285714" x2="288.828125" y2="101.14285714285714" fill="rgb(0, 0, 0)" stroke="rgb(66, 66, 66)" stroke-width="1px" opacity="0.25"></line><line x1="0" y1="88.5" x2="288.828125" y2="88.5" fill="rgb(0, 0, 0)" stroke="rgb(66, 66, 66)" stroke-width="1px" opacity="0.25"></line><line x1="0" y1="75.85714285714285" x2="288.828125" y2="75.85714285714285" fill="rgb(0, 0, 0)" stroke="rgb(66, 66, 66)" stroke-width="1px" opacity="0.25"></line><line x1="0" y1="63.21428571428571" x2="288.828125" y2="63.21428571428571" fill="rgb(0, 0, 0)" stroke="rgb(66, 66, 66)" stroke-width="1px" opacity="0.25"></line><line x1="0" y1="50.57142857142857" x2="288.828125" y2="50.57142857142857" fill="rgb(0, 0, 0)" stroke="rgb(66, 66, 66)" stroke-width="1px" opacity="0.25"></line><line x1="0" y1="37.92857142857141" x2="288.828125" y2="37.92857142857141" fill="rgb(0, 0, 0)" stroke="rgb(66, 66, 66)" stroke-width="1px" opacity="0.25"></line><line x1="0" y1="25.285714285714274" x2="288.828125" y2="25.285714285714274" fill="rgb(0, 0, 0)" stroke="rgb(66, 66, 66)" stroke-width="1px" opacity="0.25"></line><line x1="0" y1="12.642857142857117" x2="288.828125" y2="12.642857142857117" fill="rgb(0, 0, 0)" stroke="rgb(66, 66, 66)" stroke-width="1px" opacity="0.25"></line><line x1="0" y1="0" x2="288.828125" y2="0" fill="rgb(0, 0, 0)" stroke="rgb(66, 66, 66)" stroke-width="1px" opacity="0.25"></line></g></g></g><g><g><line x1="0" y1="177" x2="288.828125" y2="177" fill="rgb(0, 0, 0)" stroke="rgb(153, 153, 153)" stroke-width="1.5px"></line></g></g><g><g><line x1="24.069010416666664" y1="0" x2="24.069010416666664" y2="177" fill="rgb(0, 0, 0)" stroke="rgb(153, 153, 153)" stroke-width="1.5px"></line></g></g><g><g><g><g><g><path stroke="rgb(255, 112, 67)" stroke-width="2px" d="M25.2724609375,18.23555047171456L26.475911458333332,62.76156718390322L27.679361979166668,75.71801584910521L28.8828125,85.56136806257257L30.086263020833336,84.42913511187113L31.289713541666668,94.49579728331953L32.4931640625,105.71469855898121L33.696614583333336,105.41532655003934L34.900065104166664,105.84902014151423L36.103515625,111.01175697634505L37.306966145833336,114.3881224351472L38.510416666666664,114.98651315390232L39.7138671875,118.36915264728873L40.917317708333336,118.95467476100995L42.12076822916667,120.7032901246159L43.32421875,123.11072417169491L44.527669270833336,124.6567687277452L45.731119791666664,125.87928692109192L46.9345703125,126.3141358476553L48.13802083333333,127.35218081658425L49.341471354166664,125.56042148382237L50.544921875,126.46547629461729L51.748372395833336,126.8316716830859L52.951822916666664,128.53953809086715L54.1552734375,128.70315039940056L55.358723958333336,129.69462024047124L56.562174479166664,131.64930098286115L57.765625,133.0132457310943L58.969075520833336,132.4621752003174L60.17252604166667,130.6125549997515L61.3759765625,132.21602983781813L62.579427083333336,133.54498560990618L63.782877604166664,133.93951327812525L64.986328125,134.60397172899292L66.18977864583333,135.52409015867556L67.39322916666667,136.11802209888123L68.5966796875,136.60993591362055L69.80013020833333,136.744985565525L71.00358072916666,133.57145971619983L72.20703125,134.32932573847066L73.41048177083333,133.105017660975L74.61393229166667,134.1684491597439L75.8173828125,130.93493568918342L77.02083333333333,130.6694293785453L78.22428385416666,130.41086458701508L79.427734375,127.65836261911527L80.63118489583333,128.13942599611357L81.83463541666667,128.8444227887445L83.0380859375,129.402512000605L84.24153645833334,129.3160550964132L85.44498697916667,130.15289977893715L86.6484375,126.75217528986302L87.85188802083333,126.56307001757237L89.05533854166667,127.2330596899594L90.2587890625,125.90186462536258L91.46223958333333,126.27104087217026L92.66569010416667,127.76949459901006L93.869140625,129.17729354114272L95.07259114583333,129.8445929884299L96.27604166666666,129.56013783440807L97.4794921875,129.8838857901684L98.68294270833333,131.04155961976247L99.88639322916667,130.6742166974492L101.08984375,130.73994044962222L102.29329427083334,131.3319965698576L103.49674479166667,131.84997774147539L104.7001953125,133.06355614212603L105.90364583333333,132.96101522827843L107.10709635416667,132.23998527114725L108.310546875,130.0667990524251L109.51399739583333,131.15300374691407L110.71744791666667,131.71309347659138L111.9208984375,132.4186631939884L113.12434895833333,132.35453257935927L114.32779947916666,133.44880963283669L115.53125,134.71409098456738L116.73470052083333,134.99199590244277L117.93815104166667,134.84685435584356L119.1416015625,134.1050692267075L120.34505208333334,135.2389108563124L121.54850260416667,135.24605023377126L122.751953125,135.03077186314047L123.95540364583333,132.91525548715032L125.15885416666667,133.05372035394987L126.3623046875,134.15129957881274L127.56575520833333,134.06672113219022L128.76920572916669,134.34197540541507L129.97265625,133.07926780910108L131.17610677083334,130.9097431047312L132.37955729166666,132.24254702228848L133.5830078125,133.01779323719663L134.78645833333334,132.40498775466907L135.98990885416666,134.12389094133422L137.193359375,134.25789682949022L138.39680989583334,133.49739942507418L139.60026041666666,135.04185698922214L140.8037109375,135.54227042272797L142.00716145833331,133.4072351333078L143.21061197916666,134.87258800039595L144.4140625,135.04372437369636L145.61751302083334,135.33716044228885L146.82096354166666,134.50091406498703L148.0244140625,134.3402910590083L149.22786458333334,135.74000565617732L150.43131510416669,136.55060726299178L151.634765625,136.99541635728357L152.83821614583334,136.87990736766997L154.04166666666666,137.38641278857946L155.2451171875,138.05864327547152L156.44856770833331,138.43341442270227L157.65201822916666,139.1391041731879L158.85546875,140.18926349594244L160.05891927083334,141.24931836929107L161.26236979166666,139.79347646775113L162.4658203125,139.44445872934264L163.66927083333334,139.2976491295489L164.87272135416666,139.9199698712473L166.076171875,139.83416610937573L167.27962239583334,140.811300876339L168.48307291666669,142.04580674657916L169.6865234375,142.0996780598912L170.88997395833334,142.67837723445328L172.09342447916666,142.97948175810555L173.296875,143.20116844659606L174.50032552083331,141.95136935112964L175.70377604166666,142.921722511401L176.9072265625,142.86621584733456L178.11067708333334,142.5381675302579L179.31412760416666,141.86735929017357L180.517578125,142.9704347609063L181.72102864583334,143.76177881303516L182.92447916666666,142.5462186395248L184.1279296875,142.62468144141934L185.33138020833334,143.24751124028617L186.53483072916669,143.42691674022984L187.73828125,143.19741101046876L188.94173177083334,143.81709745047522L190.14518229166666,143.572381987004L191.3486328125,144.32425524886486L192.55208333333331,144.59088731975393L193.75553385416666,144.90748667073996L194.958984375,145.16043181494928L196.16243489583334,145.65708445950835L197.36588541666666,144.4201817114974L198.5693359375,145.20280241952923L199.77278645833334,145.53116909132092L200.97623697916666,144.33785479182833L202.1796875,144.85187019291476L203.38313802083334,144.81944293546138L204.58658854166669,144.87712724035183L205.7900390625,140.9036366102903L206.99348958333334,140.71690515316396L208.19694010416666,140.79548666687165L209.400390625,140.48139894822162L210.60384114583331,141.47278286962074L211.80729166666666,141.97848755159097L213.0107421875,142.7523095789461L214.21419270833334,143.60819536348762L215.41764322916666,143.78345872150766L216.62109375,144.55295380580267L217.82454427083334,145.12380663504777L219.02799479166666,145.3660848209266L220.2314453125,142.69885357721384L221.43489583333334,140.5548785377246L222.63834635416669,141.5028610619383L223.841796875,141.20623422170874L225.04524739583334,141.23673831822353L226.24869791666666,139.9484001329471L227.4521484375,139.75576964710825L228.65559895833331,140.4105683622231L229.85904947916666,140.7890399527182L231.0625,141.15901397938217L232.26595052083334,140.70404154598396L233.46940104166666,140.6580852605433L234.6728515625,141.38300064690105L235.87630208333334,142.09958673028933L237.07975260416666,143.09575317197854L238.283203125,142.48067085342748L239.48665364583334,143.07851743991623L240.69010416666669,143.46373020617466L241.8935546875,143.66429810757356L243.09700520833334,141.89414613363894L244.30045572916666,140.9268188340849L245.50390625,141.3467630883907L246.70735677083331,142.06643136680924L247.91080729166666,143.00190586352292L249.1142578125,143.1714035310712L250.31770833333334,144.17203981536036L251.52115885416666,144.01805326360747L252.724609375,144.95562976445495L253.92805989583334,145.67668798496416L255.13151041666666,146.55488514461354L256.3349609375,145.52236974152467L257.53841145833337,145.8190364861918L258.7418619791667,146.67136009951687L259.9453125,146.68812563348908L261.1487630208333,147.34511900296368L262.3522135416667,147.1633400045036L263.5556640625,146.81701197338458L264.7591145833333,147.69420307913038" style="fill: none;" fill="none"></path></g></g></g></g><g opacity="0.2"><g><g><g><path stroke="rgb(255, 112, 67)" stroke-width="2px" d="M25.2724609375,18.23555047171456L26.475911458333332,105.06128306048257L27.679361979166668,99.71983700139182L28.8828125,112.23562214204243L30.086263020833336,80.4387145297868L31.289713541666668,137.7639439829758L32.4931640625,162.18227915678705L33.696614583333336,103.69944852590561L34.900065104166664,108.62249577896935L36.103515625,147.28133182653357L37.306966145833336,140.12952646187375L38.510416666666664,119.88900758538927L39.7138671875,147.9102789312601L40.917317708333336,124.3687052300998L42.12076822916667,137.72461877550396L43.32421875,147.6604525234018L44.527669270833336,141.10296193190982L45.731119791666664,139.39509797521998L46.9345703125,131.29442927241325L48.13802083333333,139.63254506247384L49.341471354166664,103.72108360699244L50.544921875,137.80520587308067L51.748372395833336,131.53833071248872L52.951822916666664,151.01543491653035L54.1552734375,130.90409729310443L55.358723958333336,143.3071026972362L56.562174479166664,159.00137966445516L57.765625,152.4405413248709L58.969075520833336,124.48196348547935L60.17252604166667,103.40977506126676L61.3759765625,156.14286247321536L62.579427083333336,153.64646537176202L63.782877604166664,139.98347270914485L64.986328125,144.90540844202042L66.18977864583333,149.9500126732247L67.39322916666667,145.52852665952275L68.5966796875,144.48163666043962L69.80013020833333,138.9263190456799L71.00358072916666,81.86050333295549L72.20703125,146.78088022342752L73.41048177083333,112.83259514399937L74.61393229166667,151.9068646878004L75.8173828125,76.62375117199761L77.02083333333333,126.18064138719014L78.22428385416666,126.01236853429249L79.427734375,80.56130578688213L80.63118489583333,136.4161711207458L81.83463541666667,141.03723529406955L83.0380859375,139.1021615394524L84.24153645833334,127.80642240388053L85.44498697916667,144.8295198721545L86.6484375,66.8615293417658L87.85188802083333,123.219577980893L89.05533854166667,139.12306942258562L90.2587890625,102.19430701221738L91.46223958333333,132.86776537554604L92.66569010416667,154.62977076428277L93.869140625,154.48819888702462L95.07259114583333,141.8760750889778L96.27604166666666,124.4175857433251L97.4794921875,135.75171188797268L98.68294270833333,152.0746872808252L99.88639322916667,123.98489542518342L101.08984375,131.9393671963896L102.29329427083334,142.15895132507595L103.49674479166667,141.34078580566813L104.7001953125,155.34067458552974L105.90364583333333,131.07541834882326L107.10709635416667,118.95912486740521L108.310546875,89.9751508150782L109.51399739583333,151.2216237953731L110.71744791666667,142.07593772241046L111.9208984375,145.49075946424688L113.12434895833333,131.16486746498515L114.32779947916666,153.77295448524612L115.53125,158.24132592763218L116.73470052083333,140.16512525081635L117.93815104166667,132.14228556837355L119.1416015625,120.26906459672111L120.34505208333334,156.40738543868065L121.54850260416667,135.37945812514852L122.751953125,131.00465784328324L123.95540364583333,93.31955304316111L125.15885416666667,135.64730057971818L126.3623046875,154.72477936531814L127.56575520833333,132.48026683075088L128.76920572916669,139.50831478408406L129.97265625,109.3645240494183L131.17610677083334,90.14041691167014L132.37955729166666,157.30223643141133L133.5830078125,147.60181889150823L134.78645833333334,120.87106016278267L135.98990885416666,166.49159300220865L137.193359375,136.78242267455371L138.39680989583334,119.16432656560625L139.60026041666666,164.16202189347575L140.8037109375,144.98101442200797L142.00716145833331,93.12168737820215L143.21061197916666,162.53164690732956L144.4140625,138.2750511084284L145.61751302083334,140.87943710599626L146.82096354166666,118.701598827328L148.0244140625,131.3047607583659L149.22786458333334,162.19958590290378L150.43131510416669,151.8777673499925L151.634765625,145.40807178190778L152.83821614583334,134.69478806427549L154.04166666666666,146.97022674552034L155.2451171875,150.78085517457555L156.44856770833331,145.527496148433L157.65201822916666,152.49967985068048L158.85546875,160.07509686265672L160.05891927083334,161.32592538318465L161.26236979166666,112.21654920918601L162.4658203125,132.83226831895965L163.66927083333334,136.51591781207492L164.87272135416666,151.71325294247697L166.076171875,138.20793036052157L167.27962239583334,159.33320046748432L168.48307291666669,165.4490153246692L169.6865234375,143.1210605927876L170.88997395833334,153.65149170373166L172.09342447916666,148.6895092172282L173.296875,147.40555080132825L174.50032552083331,118.24623726521219L175.70377604166666,161.3281540753586L176.9072265625,141.8132346357618L178.11067708333334,136.31448774678367L179.31412760416666,129.13994896837642L180.517578125,163.90083348857505L181.72102864583334,158.77820901785577L182.92447916666666,119.47845724225044L184.1279296875,144.11376492466243L185.33138020833334,155.06838416627477L186.53483072916669,146.83209304511547L187.73828125,138.8410899383681L188.94173177083334,155.58014124844755L190.14518229166666,138.92691436835696L191.3486328125,158.5978036395141L192.55208333333331,149.65283927321434L193.75553385416666,150.91829747174467L194.958984375,149.9629157270704L196.16243489583334,155.08700495532582L197.36588541666666,120.93436029553413L198.5693359375,160.06338068630012L199.77278645833334,151.76646273263862L200.97623697916666,121.67756413987703L202.1796875,154.61297362191337L203.38313802083334,144.20363604170936L204.58658854166669,145.9726034658296L205.7900390625,65.44170736415045L206.99348958333334,137.1705429170813L208.19694010416666,142.28792157769203L209.400390625,134.51606315374374L210.60384114583331,160.30208812441143L211.80729166666666,151.58348955426897L213.0107421875,157.45000456273556L214.21419270833334,159.86485187709332L215.41764322916666,147.11245611522878L216.62109375,159.16916269489695L217.82454427083334,155.96705200629575L219.02799479166666,149.96817755060536L220.2314453125,92.03393488270896L221.43489583333334,99.8288790157863L222.63834635416669,159.51052750008446L223.841796875,135.57151374220848L225.04524739583334,141.816199945552L226.24869791666666,115.47463718482426L227.4521484375,136.09645270024026L228.65559895833331,152.8496052452496L229.85904947916666,147.97882581608636L231.0625,148.1874298964228L232.26595052083334,132.06083939756667L233.46940104166666,139.78503809656414L234.6728515625,155.15456089164527L235.87630208333334,155.7130018217223L237.07975260416666,162.0206433981657L238.283203125,130.79543960094452L239.48665364583334,154.43637190333436L240.69010416666669,150.78201944487435L241.8935546875,147.47471561602185L243.09700520833334,108.26438281365803L244.30045572916666,122.54922203932489L245.50390625,149.32503501432282L246.70735677083331,155.7390396531139L247.91080729166666,160.77457651708806L249.1142578125,146.391627737454L250.31770833333334,163.1828310095838L251.52115885416666,141.09249857068062L252.724609375,162.76848548437866L253.92805989583334,159.37599211079734L255.13151041666666,163.23970316456897L256.3349609375,125.90561361398017L257.53841145833337,151.4554217053311L258.7418619791667,162.86473653891255L259.9453125,147.0066563487053L261.1487630208333,159.82745581652435L262.3522135416667,143.70968023794038L263.5556640625,140.237034955195L264.7591145833333,164.36021913055862" style="fill: none;" fill="none"></path></g></g></g></g></g></g><g transform="translate(41, 177)" clip-path="url(#clip_1)"><clipPath id="clip_1"><rect width="288" height="23"></rect></clipPath><g><g><line x1="0" y1="0" x2="0" y2="5" style="visibility: inherit;" fill="rgb(0, 0, 0)" stroke="rgb(204, 204, 204)" stroke-width="1px"></line><line x1="24.069010416666664" y1="0" x2="24.069010416666664" y2="5" style="visibility: inherit;" fill="rgb(0, 0, 0)" stroke="rgb(204, 204, 204)" stroke-width="1px"></line><line x1="48.13802083333333" y1="0" x2="48.13802083333333" y2="5" style="visibility: inherit;" fill="rgb(0, 0, 0)" stroke="rgb(204, 204, 204)" stroke-width="1px"></line><line x1="72.20703125" y1="0" x2="72.20703125" y2="5" style="visibility: inherit;" fill="rgb(0, 0, 0)" stroke="rgb(204, 204, 204)" stroke-width="1px"></line><line x1="96.27604166666666" y1="0" x2="96.27604166666666" y2="5" style="visibility: inherit;" fill="rgb(0, 0, 0)" stroke="rgb(204, 204, 204)" stroke-width="1px"></line><line x1="120.34505208333334" y1="0" x2="120.34505208333334" y2="5" style="visibility: inherit;" fill="rgb(0, 0, 0)" stroke="rgb(204, 204, 204)" stroke-width="1px"></line><line x1="144.4140625" y1="0" x2="144.4140625" y2="5" style="visibility: inherit;" fill="rgb(0, 0, 0)" stroke="rgb(204, 204, 204)" stroke-width="1px"></line><line x1="168.48307291666669" y1="0" x2="168.48307291666669" y2="5" style="visibility: inherit;" fill="rgb(0, 0, 0)" stroke="rgb(204, 204, 204)" stroke-width="1px"></line><line x1="192.55208333333331" y1="0" x2="192.55208333333331" y2="5" style="visibility: inherit;" fill="rgb(0, 0, 0)" stroke="rgb(204, 204, 204)" stroke-width="1px"></line><line x1="216.62109375" y1="0" x2="216.62109375" y2="5" style="visibility: inherit;" fill="rgb(0, 0, 0)" stroke="rgb(204, 204, 204)" stroke-width="1px"></line><line x1="240.69010416666669" y1="0" x2="240.69010416666669" y2="5" style="visibility: inherit;" fill="rgb(0, 0, 0)" stroke="rgb(204, 204, 204)" stroke-width="1px"></line><line x1="264.7591145833333" y1="0" x2="264.7591145833333" y2="5" style="visibility: inherit;" fill="rgb(0, 0, 0)" stroke="rgb(204, 204, 204)" stroke-width="1px"></line><line x1="288.828125" y1="0" x2="288.828125" y2="5" style="visibility: inherit;" fill="rgb(0, 0, 0)" stroke="rgb(204, 204, 204)" stroke-width="1px"></line></g><g transform="translate(0, 8)"><text x="0" y="0" dx="0em" dy="0.95em" style="text-anchor: middle; visibility: hidden; font-family: Roboto, sans-serif; font-size: 12px; font-weight: 200;" fill="rgb(33, 33, 33)" stroke="none" stroke-width="1px">-2k</text><text x="24.069010416666664" y="0" dx="0em" dy="0.95em" style="text-anchor: middle; visibility: inherit; font-family: Roboto, sans-serif; font-size: 12px; font-weight: 200;" fill="rgb(33, 33, 33)" stroke="none" stroke-width="1px">0</text><text x="48.13802083333333" y="0" dx="0em" dy="0.95em" style="text-anchor: middle; visibility: hidden; font-family: Roboto, sans-serif; font-size: 12px; font-weight: 200;" fill="rgb(33, 33, 33)" stroke="none" stroke-width="1px">2k</text><text x="72.20703125" y="0" dx="0em" dy="0.95em" style="text-anchor: middle; visibility: inherit; font-family: Roboto, sans-serif; font-size: 12px; font-weight: 200;" fill="rgb(33, 33, 33)" stroke="none" stroke-width="1px">4k</text><text x="96.27604166666666" y="0" dx="0em" dy="0.95em" style="text-anchor: middle; visibility: hidden; font-family: Roboto, sans-serif; font-size: 12px; font-weight: 200;" fill="rgb(33, 33, 33)" stroke="none" stroke-width="1px">6k</text><text x="120.34505208333334" y="0" dx="0em" dy="0.95em" style="text-anchor: middle; visibility: inherit; font-family: Roboto, sans-serif; font-size: 12px; font-weight: 200;" fill="rgb(33, 33, 33)" stroke="none" stroke-width="1px">8k</text><text x="144.4140625" y="0" dx="0em" dy="0.95em" style="text-anchor: middle; visibility: hidden; font-family: Roboto, sans-serif; font-size: 12px; font-weight: 200;" fill="rgb(33, 33, 33)" stroke="none" stroke-width="1px">10k</text><text x="168.48307291666669" y="0" dx="0em" dy="0.95em" style="text-anchor: middle; visibility: inherit; font-family: Roboto, sans-serif; font-size: 12px; font-weight: 200;" fill="rgb(33, 33, 33)" stroke="none" stroke-width="1px">12k</text><text x="192.55208333333331" y="0" dx="0em" dy="0.95em" style="text-anchor: middle; visibility: hidden; font-family: Roboto, sans-serif; font-size: 12px; font-weight: 200;" fill="rgb(33, 33, 33)" stroke="none" stroke-width="1px">14k</text><text x="216.62109375" y="0" dx="0em" dy="0.95em" style="text-anchor: middle; visibility: inherit; font-family: Roboto, sans-serif; font-size: 12px; font-weight: 200;" fill="rgb(33, 33, 33)" stroke="none" stroke-width="1px">16k</text><text x="240.69010416666669" y="0" dx="0em" dy="0.95em" style="text-anchor: middle; visibility: hidden; font-family: Roboto, sans-serif; font-size: 12px; font-weight: 200;" fill="rgb(33, 33, 33)" stroke="none" stroke-width="1px">18k</text><text x="264.7591145833333" y="0" dx="0em" dy="0.95em" style="text-anchor: middle; visibility: inherit; font-family: Roboto, sans-serif; font-size: 12px; font-weight: 200;" fill="rgb(33, 33, 33)" stroke="none" stroke-width="1px">20k</text><text x="288.828125" y="0" dx="0em" dy="0.95em" style="text-anchor: middle; visibility: hidden; font-family: Roboto, sans-serif; font-size: 12px; font-weight: 200;" fill="rgb(33, 33, 33)" stroke="none" stroke-width="1px">22k</text></g><line x1="0" y1="0" x2="288.828125" y2="0" fill="rgb(0, 0, 0)" stroke="rgb(204, 204, 204)" stroke-width="1px"></line></g></g></g></g></svg>