<svg viewBox="0 0 1112.5999755859375 400" xmlns="http://www.w3.org/2000/svg"><g><g><g><g><g><line x1="41.171875" y1="377" x2="36.171875" y2="377" style="visibility: inherit;" fill="rgb(0, 0, 0)" stroke="rgb(204, 204, 204)" stroke-width="1px"></line><line x1="41.171875" y1="342.7272727272727" x2="36.171875" y2="342.7272727272727" style="visibility: inherit;" fill="rgb(0, 0, 0)" stroke="rgb(204, 204, 204)" stroke-width="1px"></line><line x1="41.171875" y1="308.45454545454544" x2="36.171875" y2="308.45454545454544" style="visibility: inherit;" fill="rgb(0, 0, 0)" stroke="rgb(204, 204, 204)" stroke-width="1px"></line><line x1="41.171875" y1="274.1818181818182" x2="36.171875" y2="274.1818181818182" style="visibility: inherit;" fill="rgb(0, 0, 0)" stroke="rgb(204, 204, 204)" stroke-width="1px"></line><line x1="41.171875" y1="239.9090909090909" x2="36.171875" y2="239.9090909090909" style="visibility: inherit;" fill="rgb(0, 0, 0)" stroke="rgb(204, 204, 204)" stroke-width="1px"></line><line x1="41.171875" y1="205.63636363636363" x2="36.171875" y2="205.63636363636363" style="visibility: inherit;" fill="rgb(0, 0, 0)" stroke="rgb(204, 204, 204)" stroke-width="1px"></line><line x1="41.171875" y1="171.36363636363637" x2="36.171875" y2="171.36363636363637" style="visibility: inherit;" fill="rgb(0, 0, 0)" stroke="rgb(204, 204, 204)" stroke-width="1px"></line><line x1="41.171875" y1="137.09090909090915" x2="36.171875" y2="137.09090909090915" style="visibility: inherit;" fill="rgb(0, 0, 0)" stroke="rgb(204, 204, 204)" stroke-width="1px"></line><line x1="41.171875" y1="102.81818181818181" x2="36.171875" y2="102.81818181818181" style="visibility: inherit;" fill="rgb(0, 0, 0)" stroke="rgb(204, 204, 204)" stroke-width="1px"></line><line x1="41.171875" y1="68.54545454545458" x2="36.171875" y2="68.54545454545458" style="visibility: inherit;" fill="rgb(0, 0, 0)" stroke="rgb(204, 204, 204)" stroke-width="1px"></line><line x1="41.171875" y1="34.27272727272729" x2="36.171875" y2="34.27272727272729" style="visibility: inherit;" fill="rgb(0, 0, 0)" stroke="rgb(204, 204, 204)" stroke-width="1px"></line><line x1="41.171875" y1="0" x2="36.171875" y2="0" style="visibility: inherit;" fill="rgb(0, 0, 0)" stroke="rgb(204, 204, 204)" stroke-width="1px"></line></g><g transform="translate(31.171875, 0)"><text x="0" y="377" dx="0em" dy="0.3em" style="text-anchor: end; visibility: hidden; font-family: Roboto, sans-serif; font-size: 12px; font-weight: 200;" fill="rgb(33, 33, 33)" stroke="none" stroke-width="1px">0</text><text x="0" y="342.7272727272727" dx="0em" dy="0.3em" style="text-anchor: end; visibility: inherit; font-family: Roboto, sans-serif; font-size: 12px; font-weight: 200;" fill="rgb(33, 33, 33)" stroke="none" stroke-width="1px">0.2</text><text x="0" y="308.45454545454544" dx="0em" dy="0.3em" style="text-anchor: end; visibility: inherit; font-family: Roboto, sans-serif; font-size: 12px; font-weight: 200;" fill="rgb(33, 33, 33)" stroke="none" stroke-width="1px">0.4</text><text x="0" y="274.1818181818182" dx="0em" dy="0.3em" style="text-anchor: end; visibility: inherit; font-family: Roboto, sans-serif; font-size: 12px; font-weight: 200;" fill="rgb(33, 33, 33)" stroke="none" stroke-width="1px">0.6</text><text x="0" y="239.9090909090909" dx="0em" dy="0.3em" style="text-anchor: end; visibility: inherit; font-family: Roboto, sans-serif; font-size: 12px; font-weight: 200;" fill="rgb(33, 33, 33)" stroke="none" stroke-width="1px">0.8</text><text x="0" y="205.63636363636363" dx="0em" dy="0.3em" style="text-anchor: end; visibility: inherit; font-family: Roboto, sans-serif; font-size: 12px; font-weight: 200;" fill="rgb(33, 33, 33)" stroke="none" stroke-width="1px">1</text><text x="0" y="171.36363636363637" dx="0em" dy="0.3em" style="text-anchor: end; visibility: inherit; font-family: Roboto, sans-serif; font-size: 12px; font-weight: 200;" fill="rgb(33, 33, 33)" stroke="none" stroke-width="1px">1.2</text><text x="0" y="137.09090909090915" dx="0em" dy="0.3em" style="text-anchor: end; visibility: inherit; font-family: Roboto, sans-serif; font-size: 12px; font-weight: 200;" fill="rgb(33, 33, 33)" stroke="none" stroke-width="1px">1.4</text><text x="0" y="102.81818181818181" dx="0em" dy="0.3em" style="text-anchor: end; visibility: inherit; font-family: Roboto, sans-serif; font-size: 12px; font-weight: 200;" fill="rgb(33, 33, 33)" stroke="none" stroke-width="1px">1.6</text><text x="0" y="68.54545454545458" dx="0em" dy="0.3em" style="text-anchor: end; visibility: inherit; font-family: Roboto, sans-serif; font-size: 12px; font-weight: 200;" fill="rgb(33, 33, 33)" stroke="none" stroke-width="1px">1.8</text><text x="0" y="34.27272727272729" dx="0em" dy="0.3em" style="text-anchor: end; visibility: inherit; font-family: Roboto, sans-serif; font-size: 12px; font-weight: 200;" fill="rgb(33, 33, 33)" stroke="none" stroke-width="1px">2</text><text x="0" y="0" dx="0em" dy="0.3em" style="text-anchor: end; visibility: hidden; font-family: Roboto, sans-serif; font-size: 12px; font-weight: 200;" fill="rgb(33, 33, 33)" stroke="none" stroke-width="1px">2.2</text></g><line x1="41.171875" y1="0" x2="41.171875" y2="377" fill="rgb(0, 0, 0)" stroke="rgb(204, 204, 204)" stroke-width="1px"></line></g></g><g transform="translate(41, 0)" clip-path="url(#clip_0)"><clipPath id="clip_0"><rect width="1071" height="377"></rect></clipPath><g><g><g><line x1="0" y1="0" x2="0" y2="377" fill="rgb(0, 0, 0)" stroke="rgb(66, 66, 66)" stroke-width="1px" opacity="0.25"></line><line x1="89.28567708333333" y1="0" x2="89.28567708333333" y2="377" fill="rgb(0, 0, 0)" stroke="rgb(66, 66, 66)" stroke-width="1px" opacity="0.25"></line><line x1="178.57135416666665" y1="0" x2="178.57135416666665" y2="377" fill="rgb(0, 0, 0)" stroke="rgb(66, 66, 66)" stroke-width="1px" opacity="0.25"></line><line x1="267.85703125" y1="0" x2="267.85703125" y2="377" fill="rgb(0, 0, 0)" stroke="rgb(66, 66, 66)" stroke-width="1px" opacity="0.25"></line><line x1="357.1427083333333" y1="0" x2="357.1427083333333" y2="377" fill="rgb(0, 0, 0)" stroke="rgb(66, 66, 66)" stroke-width="1px" opacity="0.25"></line><line x1="446.42838541666663" y1="0" x2="446.42838541666663" y2="377" fill="rgb(0, 0, 0)" stroke="rgb(66, 66, 66)" stroke-width="1px" opacity="0.25"></line><line x1="535.7140625" y1="0" x2="535.7140625" y2="377" fill="rgb(0, 0, 0)" stroke="rgb(66, 66, 66)" stroke-width="1px" opacity="0.25"></line><line x1="624.9997395833333" y1="0" x2="624.9997395833333" y2="377" fill="rgb(0, 0, 0)" stroke="rgb(66, 66, 66)" stroke-width="1px" opacity="0.25"></line><line x1="714.2854166666666" y1="0" x2="714.2854166666666" y2="377" fill="rgb(0, 0, 0)" stroke="rgb(66, 66, 66)" stroke-width="1px" opacity="0.25"></line><line x1="803.5710937499999" y1="0" x2="803.5710937499999" y2="377" fill="rgb(0, 0, 0)" stroke="rgb(66, 66, 66)" stroke-width="1px" opacity="0.25"></line><line x1="892.8567708333333" y1="0" x2="892.8567708333333" y2="377" fill="rgb(0, 0, 0)" stroke="rgb(66, 66, 66)" stroke-width="1px" opacity="0.25"></line><line x1="982.1424479166666" y1="0" x2="982.1424479166666" y2="377" fill="rgb(0, 0, 0)" stroke="rgb(66, 66, 66)" stroke-width="1px" opacity="0.25"></line><line x1="1071.428125" y1="0" x2="1071.428125" y2="377" fill="rgb(0, 0, 0)" stroke="rgb(66, 66, 66)" stroke-width="1px" opacity="0.25"></line></g><g><line x1="0" y1="377" x2="1071.428125" y2="377" fill="rgb(0, 0, 0)" stroke="rgb(66, 66, 66)" stroke-width="1px" opacity="0.25"></line><line x1="0" y1="342.7272727272727" x2="1071.428125" y2="342.7272727272727" fill="rgb(0, 0, 0)" stroke="rgb(66, 66, 66)" stroke-width="1px" opacity="0.25"></line><line x1="0" y1="308.45454545454544" x2="1071.428125" y2="308.45454545454544" fill="rgb(0, 0, 0)" stroke="rgb(66, 66, 66)" stroke-width="1px" opacity="0.25"></line><line x1="0" y1="274.1818181818182" x2="1071.428125" y2="274.1818181818182" fill="rgb(0, 0, 0)" stroke="rgb(66, 66, 66)" stroke-width="1px" opacity="0.25"></line><line x1="0" y1="239.9090909090909" x2="1071.428125" y2="239.9090909090909" fill="rgb(0, 0, 0)" stroke="rgb(66, 66, 66)" stroke-width="1px" opacity="0.25"></line><line x1="0" y1="205.63636363636363" x2="1071.428125" y2="205.63636363636363" fill="rgb(0, 0, 0)" stroke="rgb(66, 66, 66)" stroke-width="1px" opacity="0.25"></line><line x1="0" y1="171.36363636363637" x2="1071.428125" y2="171.36363636363637" fill="rgb(0, 0, 0)" stroke="rgb(66, 66, 66)" stroke-width="1px" opacity="0.25"></line><line x1="0" y1="137.09090909090915" x2="1071.428125" y2="137.09090909090915" fill="rgb(0, 0, 0)" stroke="rgb(66, 66, 66)" stroke-width="1px" opacity="0.25"></line><line x1="0" y1="102.81818181818181" x2="1071.428125" y2="102.81818181818181" fill="rgb(0, 0, 0)" stroke="rgb(66, 66, 66)" stroke-width="1px" opacity="0.25"></line><line x1="0" y1="68.54545454545458" x2="1071.428125" y2="68.54545454545458" fill="rgb(0, 0, 0)" stroke="rgb(66, 66, 66)" stroke-width="1px" opacity="0.25"></line><line x1="0" y1="34.27272727272729" x2="1071.428125" y2="34.27272727272729" fill="rgb(0, 0, 0)" stroke="rgb(66, 66, 66)" stroke-width="1px" opacity="0.25"></line><line x1="0" y1="0" x2="1071.428125" y2="0" fill="rgb(0, 0, 0)" stroke="rgb(66, 66, 66)" stroke-width="1px" opacity="0.25"></line></g></g></g><g><g><line x1="0" y1="377" x2="1071.428125" y2="377" fill="rgb(0, 0, 0)" stroke="rgb(153, 153, 153)" stroke-width="1.5px"></line></g></g><g><g><line x1="89.28567708333333" y1="0" x2="89.28567708333333" y2="377" fill="rgb(0, 0, 0)" stroke="rgb(153, 153, 153)" stroke-width="1.5px"></line></g></g><g><g><g><g><g><path stroke="rgb(255, 112, 67)" stroke-width="2px" d="M93.74996093749999,275.6669601093639L98.21424479166666,23.026402820240204L102.67852864583332,44.02261122999205L107.14281249999999,106.86262499177701L111.60709635416666,145.8750154106658L116.07138020833332,174.0744606145938L120.53566406249999,205.2724667448464L124.99994791666666,230.35053029706856L129.46423177083332,247.1271562985806L133.928515625,260.79623977426377L138.39279947916665,267.86866858289324L142.85708333333332,276.17403844866055L147.3213671875,283.69747611553714L151.78565104166665,287.70657932718524L156.24993489583332,294.38086978372223L160.71421875,289.11979558091485L165.17850260416665,296.1255604070024L169.64278645833332,302.6717710221662L174.10707031249999,307.6531521923762L178.57135416666665,311.6184501664837L183.03563802083332,314.99965607840863L187.49992187499998,316.4357454905218L191.96420572916665,318.25268309441583L196.42848958333332,321.58574913136493L200.89277343749998,319.04621202336745L205.35705729166665,320.94991083079907L209.82134114583332,323.5690921092175L214.28562499999998,326.0719612360579L218.74990885416665,328.4536624454175L223.21419270833331,329.90212163575615L227.67847656249998,332.63855718179263L232.14276041666665,332.8812357275505L236.6070442708333,334.30362929774975L241.07132812499998,332.6782968992787L245.53561197916665,333.89633334085306L249.9998958333333,336.01428405428356L254.46417968749998,337.9384256214622L258.92846354166664,335.5154010684379L263.3927473958333,336.88813193443974L267.85703125,334.9391118813276L272.3213151041666,335.9307384205479L276.7855989583333,337.3168815929915L281.2498828125,338.0857265405125L285.71416666666664,339.12375830867705L290.1784505208333,339.7810249391379L294.642734375,340.6436411259255L299.10701822916667,341.3665879826504L303.5713020833333,342.62449282657354L308.03558593749995,343.2035421806908L312.49986979166664,343.67981206652865L316.96415364583333,343.3091843082141L321.4284375,343.39145622559465L325.8927213541666,343.4755245104508L330.3570052083333,341.74420695629334L334.8212890625,343.1463816120938L339.28557291666664,344.1148521500734L343.74985677083333,345.45784025748236L348.21414062499997,346.7373823674034L352.6784244791666,346.4473151998507L357.1427083333333,346.13161769014545L361.6069921875,345.34633633860494L366.07127604166664,346.6460817981905L370.5355598958333,347.76210794180435L374.99984374999997,348.6771361041536L379.46412760416666,350.03583599032527L383.9284114583333,350.32504265204375L388.39269531249994,351.2225348232062L392.85697916666663,351.9607886639615L397.3212630208333,352.4262459201042L401.78554687499997,353.29992105181924L406.2498307291666,352.32173838798127L410.7141145833333,352.78875690333206L415.1783984375,352.78731000756295L419.64268229166663,352.7174191433937L424.10696614583327,351.16731753452103L428.57124999999996,351.6668854529222L433.03553385416666,352.67164790546195L437.4998177083333,352.947091094638L441.96410156249993,353.29453045087297L446.42838541666663,354.2157855707523L450.8926692708333,353.0449950279103L455.35695312499996,351.9072532563157L459.8212369791666,352.86233075392244L464.2855208333333,352.7447549433578L468.74980468749993,350.7214831242166L473.2140885416666,351.2168589065698L477.6783723958333,352.0301296928271L482.14265624999996,352.05477618926426L486.6069401041666,352.6013804266622L491.0712239583333,352.9107839976568L495.5355078125,351.06386662930487L499.9997916666666,350.3896452475667L504.46407552083326,348.02205618554336L508.92835937499996,348.75124625554L513.3926432291667,349.977585861225L517.8569270833333,350.9302613453491L522.3212109374999,351.9678520190007L526.7854947916666,352.2187680706871L531.2497786458333,351.3050152313056L535.7140625,352.4162711303314L540.1783463541666,352.8774963951425L544.6426302083332,350.77963076967774L549.1069140624999,351.3788307707651L553.5711979166666,351.89574735588917L558.0354817708334,350.29295498694114L562.499765625,350.11116120220964L566.9640494791666,349.7146577847323L571.4283333333333,347.5961102250628L575.8926171874999,348.88658143882L580.3569010416666,348.90218339635726L584.8211848958332,350.12352976360506L589.28546875,350.20026009317684L593.7497526041667,350.8481149635482L598.2140364583333,352.0374580189372L602.6783203125,353.08287025126134L607.1426041666666,353.5427212845756L611.6068880208333,353.4590960212484L616.0711718749999,354.0811857873687L620.5354557291666,355.1017655102106L624.9997395833333,355.25631109878236L629.4640234374999,356.15343854072876L633.9283072916667,356.98873689324796L638.3925911458333,356.1931418605322L642.856875,356.54142137749574L647.3211588541666,354.57411896626513L651.7854427083332,354.36209595813193L656.2497265625,355.0667300590635L660.7140104166666,355.14776353240853L665.1782942708332,355.8767172918793L669.642578125,354.4102119816532L674.1068619791666,351.72148548386633L678.5711458333333,351.40441993745105L683.0354296874999,350.897640531202L687.4997135416667,351.67659593843706L691.9639973958333,351.6695721276695L696.4282812499999,352.60491331124905L700.8925651041666,351.81213296419975L705.3568489583332,352.638663619891L709.8211328125,353.2521659030805L714.2854166666666,354.2631943204662L718.7497005208332,353.9961603050912L723.213984375,354.1009123427189L727.6782682291666,354.95199270987337L732.1425520833333,355.8566848250769L736.6068359374999,356.19628640147266L741.0711197916665,356.7410594538888L745.5354036458332,355.1124619686654L749.9996874999999,352.7246953359325L754.4639713541667,353.14036505905875L758.9282552083333,354.02234296356L763.3925390625,354.40941895837824L767.8568229166666,352.7611503593223L772.3211067708332,352.3264889972717L776.7853906249999,352.7157832415098L781.2496744791665,353.52466130551323L785.7139583333333,353.32926201886266L790.1782421875,353.674869811693L794.6425260416667,354.5059996492604L799.1068098958333,355.4844924749637L803.5710937499999,356.04012815283346L808.0353776041666,356.7013476435715L812.4996614583332,357.018869358688L816.9639453124998,355.01230962065404L821.4282291666666,355.6229439360591L825.8925130208333,356.2448499106456L830.356796875,356.3716917709355L834.8210807291666,356.97522020157163L839.2853645833333,356.9601060639543L843.7496484374999,356.44793484241103L848.2139322916665,356.6251714566057L852.6782161458332,355.7752593917605L857.1424999999999,355.8007464389809L861.6067838541667,354.9777638738038L866.0710677083333,352.95726694752153L870.5353515625,350.76743838463443L874.9996354166666,351.3609054034683L879.4639192708332,352.33541398152715L883.9282031249999,352.9522571070354L888.3924869791666,348.84661009572443L892.8567708333333,349.38761181962894L897.3210546874999,349.4614516737912L901.7853385416666,350.1465348316074L906.2496223958333,351.02274198966154L910.7139062499999,351.4781524527883L915.1781901041666,351.49975084728356L919.6424739583332,349.0748355206937L924.1067578125,349.9889718792246L928.5710416666666,350.4070690727258L933.0353255208332,350.76948154531107L937.4996093749999,349.26697090779055L941.9638932291666,350.4486220770078L946.4281770833333,351.5440522369555L950.8924609374999,352.6728405799215L955.3567447916666,351.5167260322337L959.8210286458333,350.6405332312901L964.2853124999999,351.33568615321644L968.7495963541666,352.33533709675646L973.2138802083332,353.0945325953636L977.6781640625,353.7869352990575L982.1424479166666,354.7410777587673" style="fill: none;" fill="none"></path></g><g><path stroke="rgb(0, 119, 187)" stroke-width="2px" d="M89.28567708333333,247.3090386228128L133.928515625,298.01356642715854L178.57135416666665,315.19052855264766L223.21419270833331,323.1004191331931L267.85703125,328.5295314029401L312.49986979166664,332.14983393743L357.1427083333333,335.01797939324086L401.78554687499997,337.08221401266786L446.42838541666663,338.6242908030222L491.0712239583333,339.460700055395L535.7140625,340.7336689797619L580.3569010416666,341.93831341845305L624.9997395833333,342.82435121535997L669.642578125,343.2414750726992L714.2854166666666,344.0631212316259L758.9282552083333,344.4250928498732L803.5710937499999,344.8571929969272L848.2139322916665,345.4384122661563L892.8567708333333,345.77849158982656L937.4996093749999,346.1276646619979L982.1424479166666,346.26762257832416" style="fill: none;" fill="none"></path></g></g></g></g><g opacity="0.2"><g><g><g><path stroke="rgb(255, 112, 67)" stroke-width="2px" d="M93.74996093749999,275.6669601093639L98.21424479166666,-216.98212660442698L102.67852864583332,82.9180873090571L107.14281249999999,277.15120728449386L111.60709635416666,283.3695527206768L116.07138020833332,295.2802496985956L120.53566406249999,362.2999583293091L124.99994791666666,374.08774303509426L129.46423177083332,354.4138776348396L133.928515625,356.82512176375496L138.39279947916665,321.7888527675109L142.85708333333332,344.2182581235062L147.3213671875,349.40084847943353L151.78565104166665,324.77675384824926L156.24993489583332,359.3495837368749L160.71421875,235.47016697580165L165.17850260416665,370.65003735165703L169.64278645833332,375.04480095055294L174.10707031249999,364.7045518227599L178.57135416666665,358.5290416370739L183.03563802083332,356.2123887213794L187.49992187499998,334.4289823526686L191.96420572916665,341.60553255270827L196.42848958333332,365.44962982968855L200.89277343749998,284.88382925770503L205.35705729166665,347.0869303806262L209.82134114583332,360.2196053388444L214.28562499999998,361.7214832732623L218.74990885416665,362.9437663988634L223.21419270833331,351.20493644746864L227.67847656249998,373.4712748354809L232.14276041666665,336.55193567005074L236.6070442708333,356.0939617021518L241.07132812499998,307.4799435355447L245.53561197916665,352.9931134500287L249.9998958333333,369.5719755989584L254.46417968749998,368.72891403125095L258.92846354166664,296.3785021115433L263.3927473958333,359.25606883114034L267.85703125,302.91718627647924L272.3213151041666,352.3503574295478L276.7855989583333,360.4382425858216L281.2498828125,350.9995059912855L285.71416666666664,356.67326409776103L290.1784505208333,350.9619156650521L294.642734375,355.40355194427747L299.10701822916667,353.8049633773891L303.5713020833333,364.37976614385843L308.03558593749995,353.2674812092023L312.49986979166664,351.99600840563124L316.96415364583333,336.80909783054483L321.4284375,344.8403587436134L325.8927213541666,344.9619010537863L330.3570052083333,311.01928175579417L334.8212890625,368.1180310120637L339.28557291666664,361.4202269783074L343.74985677083333,369.5313440337777L348.21414062499997,369.74235009469766L352.6784244791666,341.2173724079674L357.1427083333333,340.42424742200154L361.6069921875,331.11336798559535L366.07127604166664,370.26042936268175L370.5355598958333,368.0849642414938L374.99984374999997,365.37595830586827L379.46412760416666,374.8824369977651L383.9284114583333,355.6240864545107L388.39269531249994,367.6973990662532L392.85697916666663,365.5363370586525L397.3212630208333,360.99963844228876L401.78554687499997,369.41776486689395L406.2498307291666,334.24892364306885L410.7141145833333,361.4295868954875L415.1783984375,352.760503357107L419.64268229166663,351.4208976084536L424.10696614583327,322.377086089416L428.57124999999996,360.95608565346765L433.03553385416666,371.37504535202277L437.4998177083333,358.0797017744996L441.96410156249993,359.77507630261505L446.42838541666663,371.41533538428223L450.8926692708333,331.1673595526002L455.35695312499996,330.6293232711879L459.8212369791666,370.7383277612654L464.2855208333333,350.54244684631175L468.74980468749993,312.7964377782562L473.2140885416666,360.50871838290584L477.6783723958333,367.2946806817569L482.14265624999996,352.5176587673751L486.6069401041666,362.8730709993027L491.0712239583333,358.72826193950397L495.5355078125,316.3194334886291L499.9997916666666,337.6997773864053L504.46407552083326,303.4393141459335L508.92835937499996,362.48839768225497L513.3926432291667,373.09037338248027L517.8569270833333,368.89259831200945L522.3212109374999,371.53877495771104L526.7854947916666,356.95325214822185L531.2497786458333,334.05760392275727L535.7140625,373.3985487513922L540.1783463541666,361.58889317106116L544.6426302083332,311.1443734548309L549.1069140624999,362.7027986442501L553.5711979166666,361.66730785302144L558.0354817708334,319.9867539893497L562.499765625,346.67290310697126L566.9640494791666,342.2138799293475L571.4283333333333,307.51013121550733L575.8926171874999,373.3092289551754L580.3569010416666,349.19751446084547L584.8211848958332,373.2468506802212L589.28546875,351.6532268144868L593.7497526041667,363.1179775541479L598.2140364583333,374.56629641083157L602.6783203125,372.8883528292857L607.1426041666666,362.2559254792603L611.6068880208333,351.87435629422015L616.0711718749999,365.8716317374598L620.5354557291666,374.4471780268306L624.9997395833333,358.18611704896796L629.4640234374999,373.1626822857017L633.9283072916667,372.8274054815146L638.3925911458333,341.1057913682677L642.856875,363.1466905779459L647.3211588541666,317.25999089533633L651.7854427083332,350.34027467803526L656.2497265625,368.4338902333243L660.7140104166666,356.6851175244559L665.1782942708332,369.7073369056664L669.642578125,326.58388305523175L674.1068619791666,300.7006005915729L678.5711458333333,345.38744724338704L683.0354296874999,341.2798748476939L687.4997135416667,366.4606234539639L691.9639973958333,351.5362578535622L696.4282812499999,370.35892107337713L700.8925651041666,336.76337710564786L705.3568489583332,368.3288098099557L709.8211328125,364.8988821398128L714.2854166666666,373.457349229604L718.7497005208332,348.92637434737253L723.213984375,356.08976244316864L727.6782682291666,371.11141577092087L732.1425520833333,373.03462180376727L736.6068359374999,362.64471761950034L741.0711197916665,367.0856535966424L745.5354036458332,324.1864164281975L749.9996874999999,307.38123477589L754.4639713541667,361.0341032635082L758.9282552083333,370.77188736064863L763.3925390625,361.76051250641996L767.8568229166666,321.45760030638087L772.3211067708332,344.07131853157824L776.7853906249999,360.10948491096497L781.2496744791665,368.8876419351859L785.7139583333333,349.61798425831574L790.1782421875,360.2392189042135L794.6425260416667,370.2924428074198L799.1068098958333,374.0702373981476L803.5710937499999,366.5941749553789L808.0353776041666,369.2610912675207L812.4996614583332,363.0502186993306L816.9639453124998,316.89705950021744L821.4282291666666,367.22228272462434L825.8925130208333,368.0584383051504L830.356796875,358.78117847578096L834.8210807291666,368.4399612203918L839.2853645833333,356.6729921481826L843.7496484374999,346.7184425321492L848.2139322916665,359.9920882359147L852.6782161458332,339.62956734408033L857.1424999999999,356.2849252068184L861.6067838541667,339.3433997820724L866.0710677083333,314.5732005590742L870.5353515625,309.1662300960584L874.9996354166666,362.63535387204456L879.4639192708332,370.84885419837457L883.9282031249999,364.67093987627464L888.3924869791666,270.8477684421973L892.8567708333333,359.6655865934762L897.3210546874999,350.8642717220567L901.7853385416666,363.16190570999277L906.2496223958333,367.6692088750953L910.7139062499999,360.1302258541638L915.1781901041666,351.910087659955L919.6424739583332,303.0049302334135L924.1067578125,367.3563142872669L928.5710416666666,358.35037331757223L933.0353255208332,357.6548718464645L937.4996093749999,320.7210280651396L941.9638932291666,372.89867989109325L946.4281770833333,372.3560677069155L950.8924609374999,374.1186859177595L955.3567447916666,329.551652206616L959.8210286458333,333.99366385286504L964.2853124999999,364.54299334504384L968.7495963541666,371.3278876353394L973.2138802083332,367.51865733313286L977.6781640625,366.9420757100664L982.1424479166666,372.86911558850926" style="fill: none;" fill="none"></path></g><g><path stroke="rgb(0, 119, 187)" stroke-width="2px" d="M89.28567708333333,247.3090386228128L133.928515625,346.18286784128713L178.57135416666665,347.0108508901163L223.21419270833331,344.53523387014866L267.85703125,347.66379289058125L312.49986979166664,347.7104813984849L357.1427083333333,349.4540842053565L401.78554687499997,348.9135633517395L446.42838541666663,348.4858900823377L491.0712239583333,345.33669353615153L535.7140625,350.4387817098336L580.3569010416666,351.80772226371545L624.9997395833333,350.56225958602L669.642578125,347.09841099381447L714.2854166666666,352.06116905672985L758.9282552083333,348.1162863468582L803.5710937499999,349.4536986242641L848.2139322916665,351.86420606347644L892.8567708333333,349.67339558086616L937.4996093749999,350.2584804161029L982.1424479166666,347.9735370766033" style="fill: none;" fill="none"></path></g></g></g></g></g></g><g transform="translate(41, 377)" clip-path="url(#clip_1)"><clipPath id="clip_1"><rect width="1071" height="23"></rect></clipPath><g><g><line x1="0" y1="0" x2="0" y2="5" style="visibility: inherit;" fill="rgb(0, 0, 0)" stroke="rgb(204, 204, 204)" stroke-width="1px"></line><line x1="89.28567708333333" y1="0" x2="89.28567708333333" y2="5" style="visibility: inherit;" fill="rgb(0, 0, 0)" stroke="rgb(204, 204, 204)" stroke-width="1px"></line><line x1="178.57135416666665" y1="0" x2="178.57135416666665" y2="5" style="visibility: inherit;" fill="rgb(0, 0, 0)" stroke="rgb(204, 204, 204)" stroke-width="1px"></line><line x1="267.85703125" y1="0" x2="267.85703125" y2="5" style="visibility: inherit;" fill="rgb(0, 0, 0)" stroke="rgb(204, 204, 204)" stroke-width="1px"></line><line x1="357.1427083333333" y1="0" x2="357.1427083333333" y2="5" style="visibility: inherit;" fill="rgb(0, 0, 0)" stroke="rgb(204, 204, 204)" stroke-width="1px"></line><line x1="446.42838541666663" y1="0" x2="446.42838541666663" y2="5" style="visibility: inherit;" fill="rgb(0, 0, 0)" stroke="rgb(204, 204, 204)" stroke-width="1px"></line><line x1="535.7140625" y1="0" x2="535.7140625" y2="5" style="visibility: inherit;" fill="rgb(0, 0, 0)" stroke="rgb(204, 204, 204)" stroke-width="1px"></line><line x1="624.9997395833333" y1="0" x2="624.9997395833333" y2="5" style="visibility: inherit;" fill="rgb(0, 0, 0)" stroke="rgb(204, 204, 204)" stroke-width="1px"></line><line x1="714.2854166666666" y1="0" x2="714.2854166666666" y2="5" style="visibility: inherit;" fill="rgb(0, 0, 0)" stroke="rgb(204, 204, 204)" stroke-width="1px"></line><line x1="803.5710937499999" y1="0" x2="803.5710937499999" y2="5" style="visibility: inherit;" fill="rgb(0, 0, 0)" stroke="rgb(204, 204, 204)" stroke-width="1px"></line><line x1="892.8567708333333" y1="0" x2="892.8567708333333" y2="5" style="visibility: inherit;" fill="rgb(0, 0, 0)" stroke="rgb(204, 204, 204)" stroke-width="1px"></line><line x1="982.1424479166666" y1="0" x2="982.1424479166666" y2="5" style="visibility: inherit;" fill="rgb(0, 0, 0)" stroke="rgb(204, 204, 204)" stroke-width="1px"></line><line x1="1071.428125" y1="0" x2="1071.428125" y2="5" style="visibility: inherit;" fill="rgb(0, 0, 0)" stroke="rgb(204, 204, 204)" stroke-width="1px"></line></g><g transform="translate(0, 8)"><text x="0" y="0" dx="0em" dy="0.95em" style="text-anchor: middle; visibility: hidden; font-family: Roboto, sans-serif; font-size: 12px; font-weight: 200;" fill="rgb(33, 33, 33)" stroke="none" stroke-width="1px">-2k</text><text x="89.28567708333333" y="0" dx="0em" dy="0.95em" style="text-anchor: middle; visibility: inherit; font-family: Roboto, sans-serif; font-size: 12px; font-weight: 200;" fill="rgb(33, 33, 33)" stroke="none" stroke-width="1px">0</text><text x="178.57135416666665" y="0" dx="0em" dy="0.95em" style="text-anchor: middle; visibility: inherit; font-family: Roboto, sans-serif; font-size: 12px; font-weight: 200;" fill="rgb(33, 33, 33)" stroke="none" stroke-width="1px">2k</text><text x="267.85703125" y="0" dx="0em" dy="0.95em" style="text-anchor: middle; visibility: inherit; font-family: Roboto, sans-serif; font-size: 12px; font-weight: 200;" fill="rgb(33, 33, 33)" stroke="none" stroke-width="1px">4k</text><text x="357.1427083333333" y="0" dx="0em" dy="0.95em" style="text-anchor: middle; visibility: inherit; font-family: Roboto, sans-serif; font-size: 12px; font-weight: 200;" fill="rgb(33, 33, 33)" stroke="none" stroke-width="1px">6k</text><text x="446.42838541666663" y="0" dx="0em" dy="0.95em" style="text-anchor: middle; visibility: inherit; font-family: Roboto, sans-serif; font-size: 12px; font-weight: 200;" fill="rgb(33, 33, 33)" stroke="none" stroke-width="1px">8k</text><text x="535.7140625" y="0" dx="0em" dy="0.95em" style="text-anchor: middle; visibility: inherit; font-family: Roboto, sans-serif; font-size: 12px; font-weight: 200;" fill="rgb(33, 33, 33)" stroke="none" stroke-width="1px">10k</text><text x="624.9997395833333" y="0" dx="0em" dy="0.95em" style="text-anchor: middle; visibility: inherit; font-family: Roboto, sans-serif; font-size: 12px; font-weight: 200;" fill="rgb(33, 33, 33)" stroke="none" stroke-width="1px">12k</text><text x="714.2854166666666" y="0" dx="0em" dy="0.95em" style="text-anchor: middle; visibility: inherit; font-family: Roboto, sans-serif; font-size: 12px; font-weight: 200;" fill="rgb(33, 33, 33)" stroke="none" stroke-width="1px">14k</text><text x="803.5710937499999" y="0" dx="0em" dy="0.95em" style="text-anchor: middle; visibility: inherit; font-family: Roboto, sans-serif; font-size: 12px; font-weight: 200;" fill="rgb(33, 33, 33)" stroke="none" stroke-width="1px">16k</text><text x="892.8567708333333" y="0" dx="0em" dy="0.95em" style="text-anchor: middle; visibility: inherit; font-family: Roboto, sans-serif; font-size: 12px; font-weight: 200;" fill="rgb(33, 33, 33)" stroke="none" stroke-width="1px">18k</text><text x="982.1424479166666" y="0" dx="0em" dy="0.95em" style="text-anchor: middle; visibility: inherit; font-family: Roboto, sans-serif; font-size: 12px; font-weight: 200;" fill="rgb(33, 33, 33)" stroke="none" stroke-width="1px">20k</text><text x="1071.428125" y="0" dx="0em" dy="0.95em" style="text-anchor: middle; visibility: hidden; font-family: Roboto, sans-serif; font-size: 12px; font-weight: 200;" fill="rgb(33, 33, 33)" stroke="none" stroke-width="1px">22k</text></g><line x1="0" y1="0" x2="1071.428125" y2="0" fill="rgb(0, 0, 0)" stroke="rgb(204, 204, 204)" stroke-width="1px"></line></g></g></g></g></svg>